<svg width="1582" height="631" viewBox="0 0 1582 631" fill="none" xmlns="http://www.w3.org/2000/svg">
<path d="M640.655 -9.78773C1062.55 -79.9205 1371.83 -388.952 1552.89 -9.78776C1601.61 92.2357 1485.7 216.34 1498.69 328.219C1519.62 508.464 1632.6 597.921 1552.89 761.729C1373.71 1129.99 436.118 361.22 -65 417.221" stroke="#B79946" stroke-opacity="0.5" stroke-dasharray="5 5"/>
<g clip-path="url(#clip0_2039_1188)">
<path d="M108.246 405.893L94.8674 419.06C89.7659 417.972 85.6198 417.095 85.0596 416.998C83.6463 416.755 79.9612 417.768 79.6986 419.248C79.4361 420.728 82.5467 422.954 83.9588 423.204C84.8028 423.354 88.8985 423.945 93.8824 424.652L101.911 441.607C101.981 441.754 102.085 441.883 102.215 441.982C102.345 442.081 102.496 442.148 102.657 442.176L104.366 442.479C104.413 442.488 104.462 442.485 104.508 442.471C104.554 442.458 104.596 442.433 104.631 442.4C104.665 442.367 104.692 442.326 104.708 442.281C104.725 442.236 104.73 442.188 104.724 442.14L102.752 425.904C106.821 426.476 110.624 427.007 113.052 427.346L116.987 432.346C117.142 432.544 117.365 432.677 117.613 432.721L118.754 432.924C118.789 432.931 118.825 432.929 118.859 432.918C118.893 432.908 118.924 432.889 118.949 432.863C118.973 432.837 118.99 432.805 118.999 432.77C119.008 432.736 119.008 432.7 118.998 432.665L117.114 426.156C117.088 426.067 117.083 425.973 117.099 425.882C117.116 425.791 117.152 425.704 117.207 425.63L121.219 420.147C121.24 420.118 121.253 420.084 121.256 420.048C121.26 420.013 121.255 419.977 121.24 419.944C121.226 419.912 121.204 419.883 121.176 419.861C121.148 419.84 121.114 419.825 121.079 419.82L119.938 419.618C119.69 419.574 119.434 419.623 119.22 419.755L113.793 423.116C111.395 422.6 107.645 421.794 103.631 420.934L111.071 406.36C111.093 406.317 111.105 406.27 111.105 406.222C111.105 406.174 111.094 406.126 111.073 406.083C111.051 406.04 111.02 406.003 110.982 405.974C110.943 405.946 110.899 405.926 110.851 405.918L109.143 405.615C108.982 405.586 108.816 405.597 108.66 405.645C108.504 405.693 108.362 405.778 108.246 405.893Z" fill="#DBCCA2"/>
</g>
<g clip-path="url(#clip1_2039_1188)">
<path d="M1519.4 341.144L1502.87 332.233C1502.41 327.037 1502.03 322.816 1501.96 322.252C1501.78 320.83 1499.72 317.606 1498.23 317.791C1496.74 317.975 1495.53 321.603 1495.7 323.027C1495.81 323.877 1496.45 327.966 1497.24 332.937L1483.4 345.599C1483.28 345.709 1483.19 345.847 1483.13 346C1483.07 346.153 1483.05 346.318 1483.07 346.48L1483.29 348.202C1483.29 348.25 1483.31 348.295 1483.34 348.335C1483.36 348.375 1483.4 348.408 1483.44 348.432C1483.48 348.455 1483.53 348.469 1483.58 348.471C1483.63 348.473 1483.67 348.464 1483.72 348.445L1498.65 341.782C1499.3 345.839 1499.92 349.631 1500.31 352.051L1496.69 357.283C1496.54 357.489 1496.48 357.741 1496.51 357.991L1496.65 359.142C1496.66 359.177 1496.67 359.211 1496.69 359.24C1496.71 359.27 1496.74 359.294 1496.77 359.309C1496.8 359.325 1496.84 359.332 1496.87 359.33C1496.91 359.329 1496.94 359.318 1496.97 359.299L1502.64 355.582C1502.72 355.532 1502.81 355.499 1502.9 355.488C1502.99 355.476 1503.08 355.486 1503.17 355.516L1509.59 357.738C1509.62 357.749 1509.66 357.751 1509.7 357.744C1509.73 357.737 1509.76 357.721 1509.79 357.698C1509.82 357.675 1509.84 357.646 1509.85 357.612C1509.86 357.579 1509.87 357.543 1509.86 357.508L1509.72 356.357C1509.69 356.107 1509.57 355.878 1509.38 355.712L1504.57 351.514C1504.36 349.07 1504.02 345.249 1503.66 341.16L1519.78 343.982C1519.83 343.99 1519.88 343.987 1519.92 343.973C1519.97 343.96 1520.01 343.935 1520.05 343.902C1520.08 343.869 1520.11 343.828 1520.12 343.783C1520.14 343.738 1520.14 343.689 1520.14 343.642L1519.93 341.92C1519.91 341.758 1519.85 341.603 1519.75 341.468C1519.66 341.333 1519.54 341.222 1519.4 341.144Z" fill="#DBCCA2"/>
</g>
<defs>
<clipPath id="clip0_2039_1188">
<rect width="40" height="40" fill="white" transform="translate(97.9102 451.199) rotate(-124.941)"/>
</clipPath>
<clipPath id="clip1_2039_1188">
<rect width="40" height="40" fill="white" transform="translate(1473.05 344.598) rotate(-52.0543)"/>
</clipPath>
</defs>
</svg>
