<svg width="700" height="114" viewBox="0 0 700 114" fill="none" xmlns="http://www.w3.org/2000/svg">
<path d="M61.5603 -179C61.5603 -179 5.32334 -150 1.05997 -83.5C-2.82924 -22.836 13.0602 19 61.5602 59.5C102.611 93.7793 237.56 104 322.56 80C498.663 30.2768 504.561 5.5 699.06 -105.5" stroke="#B79946" stroke-opacity="0.5" stroke-dasharray="5 5"/>
<g clip-path="url(#clip0_2039_1187)">
<path d="M279.6 103.425L287.903 89.6923C292.359 89.5166 295.979 89.3676 296.464 89.3293C297.686 89.2327 300.525 87.6155 300.43 86.3339C300.335 85.0524 297.288 83.8654 296.065 83.956C295.335 84.0102 291.817 84.3851 287.539 84.8513L277.308 72.5011C277.219 72.3936 277.105 72.3089 276.977 72.2542C276.848 72.1995 276.709 72.1764 276.569 72.1867L275.09 72.2963C275.049 72.2994 275.009 72.312 274.974 72.3331C274.939 72.3542 274.909 72.3833 274.887 72.418C274.866 72.4527 274.852 72.4921 274.848 72.5329C274.844 72.5738 274.85 72.615 274.865 72.6532L279.927 85.687C276.435 86.0727 273.172 86.4353 271.089 86.6672L266.774 83.3558C266.603 83.2249 266.391 83.1614 266.176 83.1773L265.188 83.2506C265.157 83.2519 265.128 83.261 265.102 83.2771C265.076 83.2931 265.055 83.3155 265.04 83.3422C265.025 83.3688 265.017 83.3988 265.017 83.4293C265.017 83.4598 265.025 83.4897 265.04 83.5162L267.976 88.5111C268.016 88.5793 268.04 88.6559 268.046 88.7348C268.051 88.8138 268.039 88.893 268.01 88.9665L265.843 94.3557C265.833 94.3842 265.829 94.415 265.834 94.4451C265.838 94.4752 265.85 94.5037 265.869 94.5279C265.887 94.552 265.912 94.571 265.94 94.583C265.968 94.5951 265.998 94.5997 266.028 94.5966L267.017 94.5233C267.231 94.5074 267.433 94.4129 267.582 94.2578L271.369 90.3284C273.464 90.2492 276.741 90.1247 280.248 89.9899L277.161 103.635C277.152 103.675 277.153 103.716 277.163 103.756C277.172 103.796 277.192 103.833 277.218 103.864C277.245 103.895 277.279 103.919 277.317 103.935C277.355 103.951 277.396 103.957 277.437 103.954L278.916 103.845C279.055 103.834 279.19 103.791 279.309 103.718C279.428 103.645 279.528 103.544 279.6 103.425Z" fill="#DBCCA2"/>
</g>
<defs>
<clipPath id="clip0_2039_1187">
<rect width="34.1963" height="34.1963" fill="white" transform="translate(278.598 63.7096) rotate(40.7606)"/>
</clipPath>
</defs>
</svg>
