<svg width="140" height="74" viewBox="0 0 140 74" fill="none" xmlns="http://www.w3.org/2000/svg">
<path d="M116.544 40.0129H85.1909C88.6601 35.5775 90.6502 29.9427 90.4168 23.8381C90.3866 23.0449 90.3131 22.2629 90.2081 21.4912C92.3564 20.8557 100.247 18.326 100.601 15.3525C100.601 15.3525 100.247 16.556 96.6522 17.7774C93.7756 18.7551 90.9842 19.744 89.9828 20.1001C89.9814 20.0943 89.9805 20.088 89.9796 20.0822L63.1332 29.4913C63.1332 29.4913 48.7719 33.8397 48.4145 40.0129H17.4995C16.9867 40.0129 16.5667 40.4299 16.5667 40.94C16.5667 41.4497 16.9867 41.8671 17.4995 41.8671H116.544C117.057 41.8671 117.477 41.4501 117.477 40.94C117.477 40.4299 117.057 40.0129 116.544 40.0129ZM88.0138 21.6583C88.0138 21.6583 88.3667 26.6271 85.3671 28.0303L80.5441 24.406L88.0138 21.6583Z" fill="url(#paint0_linear_113_4578)"/>
<path d="M61.9435 29.8862C61.9435 29.8862 51.1844 35.1927 54.4733 41.8671H82.2679C83.8124 40.1588 85.4276 37.919 86.8016 35.0333C86.8016 35.0333 41.3685 45.9195 61.9435 29.8862Z" fill="url(#paint1_linear_113_4578)"/>
<path d="M62.4281 28.4979L64.9572 27.6209L60.1928 24.4643C60.1928 24.4643 62.1338 23.0615 65.1925 24.5229C68.2511 25.9844 71.2507 24.9905 71.2507 24.9905L80.1914 19.8462L75.7213 21.1907L65.6044 14.7605C68.0749 13.299 71.545 12.9483 75.0741 14.3511C78.6033 15.7539 84.4263 17.4491 88.2497 16.3388C88.4449 16.2819 88.6513 16.2233 88.8631 16.1632C88.8617 16.1601 88.8608 16.1574 88.8595 16.1543C90.4417 15.723 94.3941 14.8012 94.3941 14.8012C92.061 15.2066 89.3183 15.4963 88.6256 15.5671C84.9045 6.42137 75.8434 -0.0290141 65.4052 9.81437e-05C57.6421 0.0220443 50.7136 3.56613 46.1511 9.10911C43.1122 12.801 41.4056 17.4352 41.6129 22.2002C41.8828 28.3953 45.3786 35.5449 62.4281 28.4979Z" fill="url(#paint2_linear_113_4578)"/>
<path d="M56.0663 30.6465C56.0663 30.6465 37.0789 29.2867 51.9148 8.08715C51.9148 8.08715 61.76 -1.22161 75.0919 6.79591C75.0919 6.79591 35.0086 25.2786 56.0663 30.6465Z" fill="url(#paint3_linear_113_4578)"/>
<path d="M12.8626 65.9658V57.224H6.74036V65.9658H1.9132V45.5681H6.74036V53.4564H12.8626V45.5681H17.6898V65.9658H12.8626ZM29.7581 45.0678C32.6623 45.0678 34.9189 45.9998 36.5279 47.864C38.1566 49.7281 38.9709 52.3576 38.9709 55.7523C38.9709 57.9696 38.5981 59.8828 37.8524 61.4919C37.1264 63.1009 36.0668 64.3371 34.6736 65.2005C33.3 66.0443 31.6615 66.4662 29.7581 66.4662C27.8547 66.4662 26.2162 66.0443 24.8427 65.2005C23.4691 64.3568 22.4095 63.1402 21.6638 61.5507C20.9378 59.9417 20.5748 58.0089 20.5748 55.7523C20.5748 53.5545 20.9378 51.6511 21.6638 50.0421C22.4095 48.433 23.4691 47.2066 24.8427 46.3628C26.2162 45.4995 27.8547 45.0678 29.7581 45.0678ZM29.7581 48.5998C28.3649 48.5998 27.3249 49.1689 26.6381 50.307C25.971 51.4255 25.6374 53.2406 25.6374 55.7523C25.6374 58.264 25.9808 60.0889 26.6676 61.227C27.3544 62.3651 28.3845 62.9341 29.7581 62.9341C31.171 62.9341 32.2109 62.3749 32.8781 61.2564C33.5649 60.1183 33.9083 58.2836 33.9083 55.7523C33.9083 53.2209 33.5649 51.396 32.8781 50.2776C32.1913 49.1591 31.1513 48.5998 29.7581 48.5998ZM48.5783 58.1658H46.6946V65.9658H41.8674V45.5681H48.5489C51.3353 45.5681 53.4251 46.0783 54.8183 47.0987C56.2312 48.1191 56.9376 49.6791 56.9376 51.7787C56.9376 53.0934 56.6236 54.1923 55.9957 55.0753C55.3678 55.9387 54.3768 56.6745 53.0229 57.2828L58.2032 65.9658H52.758L48.5783 58.1658ZM46.6946 54.8398H48.7255C49.8048 54.8398 50.6093 54.5945 51.1391 54.104C51.6885 53.6134 51.9632 52.8383 51.9632 51.7787C51.9632 50.7976 51.6689 50.0813 51.0802 49.63C50.5112 49.1787 49.6281 48.953 48.4312 48.953H46.6946V54.8398ZM64.8608 45.5681V65.9658H60.0336V45.5681H64.8608ZM81.8138 45.5681V49.2179L72.9542 62.11H81.961L81.49 65.9658H67.2735V62.3455L76.3097 49.3062H68.1859V45.5681H81.8138ZM92.1614 45.0678C95.0656 45.0678 97.3222 45.9998 98.9312 47.864C100.56 49.7281 101.374 52.3576 101.374 55.7523C101.374 57.9696 101.001 59.8828 100.256 61.4919C99.5297 63.1009 98.4701 64.3371 97.0769 65.2005C95.7033 66.0443 94.0648 66.4662 92.1614 66.4662C90.258 66.4662 88.6195 66.0443 87.246 65.2005C85.8724 64.3568 84.8128 63.1402 84.0671 61.5507C83.3411 59.9417 82.978 58.0089 82.978 55.7523C82.978 53.5545 83.3411 51.6511 84.0671 50.0421C84.8128 48.433 85.8724 47.2066 87.246 46.3628C88.6195 45.4995 90.258 45.0678 92.1614 45.0678ZM92.1614 48.5998C90.7682 48.5998 89.7282 49.1689 89.0414 50.307C88.3743 51.4255 88.0407 53.2406 88.0407 55.7523C88.0407 58.264 88.3841 60.0889 89.0709 61.227C89.7577 62.3651 90.7878 62.9341 92.1614 62.9341C93.5742 62.9341 94.6142 62.3749 95.2814 61.2564C95.9682 60.1183 96.3116 58.2836 96.3116 55.7523C96.3116 53.2209 95.9682 51.396 95.2814 50.2776C94.5946 49.1591 93.5546 48.5998 92.1614 48.5998ZM119.988 65.9658H113.837L107.95 50.1598C108.146 51.71 108.293 53.0836 108.391 54.2806C108.509 55.4579 108.568 56.8609 108.568 58.4896V65.9658H104.271V45.5681H110.275L116.309 61.4036C115.877 58.7153 115.662 56.184 115.662 53.8096V45.5681H119.988V65.9658ZM130.352 45.0678C131.882 45.0678 133.207 45.2836 134.325 45.7153C135.463 46.147 136.494 46.8044 137.416 47.6874L135.179 50.307C133.786 49.1689 132.294 48.5998 130.705 48.5998C129.861 48.5998 129.194 48.7764 128.703 49.1296C128.213 49.4632 127.968 49.9538 127.968 50.6013C127.968 51.0526 128.075 51.4255 128.291 51.7198C128.507 51.9945 128.89 52.2594 129.439 52.5145C129.989 52.7696 130.813 53.0738 131.912 53.427C133.992 54.0942 135.522 54.9183 136.503 55.8994C137.484 56.8609 137.975 58.2345 137.975 60.0202C137.975 61.2956 137.651 62.4239 137.004 63.4051C136.356 64.3666 135.424 65.122 134.208 65.6715C132.991 66.2013 131.549 66.4662 129.881 66.4662C128.213 66.4662 126.731 66.2013 125.436 65.6715C124.161 65.1417 123.062 64.4353 122.14 63.5522L124.583 60.8738C125.368 61.5409 126.172 62.0413 126.996 62.3749C127.84 62.7085 128.752 62.8753 129.734 62.8753C130.734 62.8753 131.519 62.6594 132.088 62.2277C132.677 61.7764 132.971 61.1583 132.971 60.3734C132.971 59.8632 132.863 59.4413 132.648 59.1077C132.432 58.7545 132.059 58.4406 131.529 58.1658C130.999 57.8911 130.234 57.5968 129.233 57.2828C126.977 56.596 125.368 55.7523 124.406 54.7515C123.464 53.7508 122.993 52.4851 122.993 50.9545C122.993 49.7772 123.307 48.747 123.935 47.864C124.563 46.9613 125.436 46.2745 126.555 45.8036C127.673 45.313 128.939 45.0678 130.352 45.0678Z" fill="#383838"/>
<defs>
<linearGradient id="paint0_linear_113_4578" x1="36.3884" y1="43.5845" x2="106.83" y2="28.7991" gradientUnits="userSpaceOnUse">
<stop stop-color="#FBCD3E"/>
<stop offset="1" stop-color="#F96D34"/>
</linearGradient>
<linearGradient id="paint1_linear_113_4578" x1="53.849" y1="34.1985" x2="81.3573" y2="41.2513" gradientUnits="userSpaceOnUse">
<stop stop-color="#FBCD3E"/>
<stop offset="0.9981" stop-color="#F96D34" stop-opacity="0"/>
</linearGradient>
<linearGradient id="paint2_linear_113_4578" x1="31.6709" y1="21.106" x2="102.112" y2="6.32055" gradientUnits="userSpaceOnUse">
<stop stop-color="#FBCD3E"/>
<stop offset="1" stop-color="#F96D34"/>
</linearGradient>
<linearGradient id="paint3_linear_113_4578" x1="59.0226" y1="10.2051" x2="68.7301" y2="38.8046" gradientUnits="userSpaceOnUse">
<stop stop-color="#FBCD3E" stop-opacity="0"/>
<stop offset="1" stop-color="#F96D34"/>
</linearGradient>
</defs>
</svg>
