<svg width="254" height="50" viewBox="0 0 254 50" fill="none" xmlns="http://www.w3.org/2000/svg">
<path d="M40.4501 10.3244H25.9251V49.9999H14.2587V10.3244H0V1.25098H40.4501V10.3244Z" fill="#204E84"/>
<path d="M63.3507 32.757H57.0355V49.9999H45.3691V1.25098H64.4142C70.1528 1.25098 74.64 2.53326 77.8755 5.09715C81.1103 7.6617 82.728 11.2851 82.728 15.9672C82.728 19.3567 82.0469 22.1659 80.6839 24.3955C79.3211 26.6252 77.1882 28.4316 74.2856 29.8138L84.3898 49.4972V49.9999H71.8925L63.3507 32.757ZM57.0358 23.717H64.4145C66.63 23.717 68.2975 23.1299 69.4168 21.9549C70.5354 20.78 71.0953 19.141 71.0953 17.0374C71.0953 14.9345 70.5302 13.2839 69.4 12.0869C68.2699 10.8899 66.6081 10.2909 64.4145 10.2909H57.0358V23.717Z" fill="#204E84"/>
<path d="M117.262 40.8931H101.274L98.4824 49.9999H86.0186L103.767 1.25098H114.736L132.617 49.9999H120.087L117.262 40.8931ZM104.066 31.8196H114.469L109.251 14.9116L104.066 31.8196Z" fill="#204E84"/>
<path d="M209.973 46.6095C202.639 51.2631 191.387 51.725 182.658 44.1877C175.239 37.7833 173.048 27.9315 174.414 20.8365V20.8317C174.414 20.8317 174.778 18.0939 176.246 14.6707C176.559 13.9412 176.918 13.1827 177.338 12.4095C177.361 12.3754 177.38 12.3365 177.403 12.2928C178.527 10.3574 179.795 8.64095 181.217 7.15276C184.747 3.43272 189.219 1.10361 194.684 0.281691C202.765 -0.933912 209.689 1.82323 215.443 7.80921C209.386 2.81521 202.615 1.01595 195.099 3.16036C189.387 4.78954 185.162 8.16901 182.243 13.0609V13.0657C182.243 13.0657 182.229 13.09 182.206 13.1289C182.164 13.1921 182.126 13.2553 182.094 13.3187C182.024 13.4402 181.958 13.5716 181.889 13.6931C181.045 15.2736 178.96 19.6452 178.774 24.9116C178.839 32.8769 181.716 39.4805 188.109 44.2071C194.889 49.2208 202.275 49.8335 209.973 46.6095Z" fill="#20A8E2"/>
<path d="M156.996 15.3345C156.981 15.3253 156.967 15.3153 156.952 15.3062L156.928 15.3959C156.96 15.3804 156.992 15.3641 157.023 15.3512C157.014 15.3456 157.005 15.3401 156.996 15.3345Z" fill="black"/>
<path d="M162 1.2507L159.472 10.558C159.554 10.6046 159.636 10.6522 159.718 10.6975L161.168 8.68466L161.868 9.04097L162.525 7.54731L165.074 8.86521C165.452 8.69711 165.844 8.52333 166.261 8.38518C166.609 8.2702 166.934 8.21425 167.253 8.21425C168.186 8.21425 168.973 8.69165 169.594 9.63313L170.209 10.5667L165.069 14.5034L167.566 16.4942C167.677 16.4902 167.794 16.483 167.916 16.4756C168.122 16.4629 168.334 16.45 168.559 16.45C168.928 16.45 169.391 16.4848 169.877 16.6688L175.028 1.25049L162 1.2507Z" fill="#204E84"/>
<path d="M142.755 1.25098H129.826L145.979 49.9999H158.742L167.449 23.9387L165.318 22.0443L164.991 19.995L162.726 18.8037L161.837 25.3772L160.532 25.0183C158.935 24.5791 158.18 23.7207 158.007 22.1477C157.951 21.645 157.903 21.1413 157.858 20.6589C157.852 20.6558 157.846 20.6527 157.84 20.6497C157.558 20.5085 157.211 20.3345 156.895 20.0459L152.361 36.7411L142.755 1.25098Z" fill="#204E84"/>
<path d="M167.147 17.6846C165.877 16.6725 164.566 15.6274 163.134 14.4855C165.021 13.0403 166.816 11.666 168.606 10.295C168.069 9.4803 167.472 9.24313 166.631 9.52118C166.1 9.69672 165.592 9.95028 165.031 10.1868C164.47 9.89694 163.904 9.60424 163.1 9.18848C163 9.41494 162.923 9.59157 162.845 9.76841C162.902 9.81344 162.96 9.85847 163.017 9.9035C163.278 10.121 163.538 10.3385 163.891 10.6338C163.567 10.782 163.337 10.887 163.087 11.0013C162.57 10.7381 162.071 10.4841 161.534 10.2108C161.406 10.3886 161.305 10.5285 161.177 10.7062C161.419 10.9458 161.625 11.1497 161.951 11.4723C161.32 11.7635 160.755 12.0245 160.196 12.2822C157.958 11.2531 156.037 9.50392 153.533 9.47331C153.177 9.90088 153.321 10.2218 153.53 10.4756C154.068 11.1296 154.596 11.8044 155.209 12.3765C155.966 13.0817 156.753 13.7792 157.62 14.3185C158.534 14.8872 158.709 15.6674 158.624 16.6732C158.166 16.7978 157.754 16.0971 157.251 16.6161C157.39 17.4701 158.313 17.351 158.788 18.0446C158.799 18.1533 158.829 18.4455 158.861 18.7452C158.352 18.8799 157.871 17.9806 157.416 18.8047C157.742 19.429 158.413 19.5168 158.98 19.9333C159.044 20.5862 159.106 21.3023 159.185 22.0167C159.303 23.0828 159.714 23.5558 160.844 23.8666C161.15 21.6073 161.454 19.3575 161.778 16.9588C163.249 17.7322 164.623 18.4549 166.068 19.2143C166.18 19.9195 166.293 20.6266 166.421 21.4328C166.716 21.6947 167.072 22.0112 167.568 22.4519C167.638 21.7266 167.712 21.1873 167.736 20.6457C167.764 19.991 168.038 19.5542 168.616 19.2779C169.167 19.0143 169.692 18.6895 170.272 18.3673C169.323 17.2929 168.223 17.7585 167.147 17.6846Z" fill="#20A8E2"/>
<path d="M169.071 20.5153C169.718 21.5711 170.52 22.4605 171.439 23.2361C173.632 25.0874 176.117 26.3941 178.733 27.4406C184.24 29.6429 189.967 30.683 195.844 30.8902C199.371 31.0146 202.876 30.7772 206.339 30.0377C208.718 29.5299 211.024 28.781 213.136 27.5035C214.472 26.6954 215.674 25.7174 216.448 24.2635C217.454 22.3735 217.29 20.5432 216.233 18.6509C216.166 18.8177 216.111 18.9114 216.091 19.0129C215.748 20.677 214.817 21.9357 213.584 22.9887C212.151 24.2119 210.515 25.0553 208.789 25.7034C205.209 27.0484 201.488 27.6428 197.702 27.8393C192.967 28.085 188.274 27.6959 183.631 26.7164C179.292 25.8011 175.106 24.4189 171.277 22.0347C170.521 21.5643 169.805 21.0237 169.071 20.5153Z" fill="#20A8E2"/>
<path d="M233.692 40.9595H254.001V49.9994H222.026V1.25049H233.692V40.9595Z" fill="#204E84"/>
</svg>
