<svg width="218" height="72" viewBox="0 0 218 72" fill="none" xmlns="http://www.w3.org/2000/svg">
<g clip-path="url(#clip0_113_4568)">
<path fill-rule="evenodd" clip-rule="evenodd" d="M26.7474 56.3131C24.7445 56.3131 23.2679 55.8974 22.3155 55.0545C21.3639 54.2225 20.8871 52.8901 20.8871 51.0437V5.56306C20.1181 5.62361 19.1784 5.77091 18.0425 5.96596C16.9075 6.1738 15.7234 6.46755 14.4905 6.84625C13.2456 7.22585 11.9998 7.69012 10.7672 8.22807C9.52232 8.7663 8.41147 9.37703 7.43486 10.0868C6.45824 10.7953 5.66479 11.5909 5.04187 12.4711C4.41895 13.3514 4.11377 14.3286 4.11377 15.4048C4.11377 16.1751 4.21143 16.7744 4.41895 17.239C4.61461 17.6911 4.84649 18.0334 5.11537 18.2535C5.37141 18.4858 5.63966 18.6199 5.92076 18.6814C6.18901 18.7431 6.38467 18.7795 6.50641 18.7795C7.10518 18.7795 7.59317 18.6694 7.97192 18.4736C8.36226 18.2657 8.70373 18.0456 9.00926 17.8256C9.32665 17.5933 9.61997 17.3854 9.88822 17.1773C10.1693 16.9826 10.4739 16.8726 10.8407 16.8726C11.1209 16.8726 11.4263 16.9453 11.7437 17.0673C12.0733 17.2027 12.3666 17.4096 12.647 17.7033C12.9159 17.9848 13.1479 18.3635 13.3435 18.8278C13.526 19.2933 13.6237 19.8554 13.6237 20.5278C13.6237 21.4817 13.4402 22.3125 13.0743 22.9972C12.7084 23.6946 12.2317 24.269 11.6461 24.7333C11.0604 25.1979 10.389 25.553 9.64433 25.7731C8.88717 26.0054 8.14252 26.1155 7.39751 26.1155C6.26251 26.1155 5.22517 25.9196 4.30901 25.528C3.39375 25.1371 2.61279 24.5869 1.96544 23.8894C1.31844 23.2051 0.830445 22.3862 0.500836 21.4567C0.171226 20.5278 0 19.5375 0 18.4858C0 15.6986 0.769092 13.2778 2.3072 11.2354C3.84531 9.19429 5.94505 7.49424 8.61816 6.14967C11.2922 4.80511 14.4048 3.80261 17.9578 3.15462C21.5099 2.50635 25.3058 2.18848 29.3586 2.18848C31.2999 2.18848 33.1799 2.2126 35.0113 2.23797C36.8549 2.27433 38.5271 2.33487 40.0411 2.40855C41.5539 2.48224 42.8604 2.55494 43.9591 2.65274C45.0455 2.7509 45.8518 2.86087 46.3517 2.98286C46.8275 3.09289 47.2065 3.26466 47.4998 3.49669C47.78 3.729 47.9997 3.98542 48.134 4.26694C48.281 4.54875 48.3787 4.85349 48.4273 5.1836C48.4755 5.50176 48.5009 5.83187 48.5009 6.16198C48.5009 6.43127 48.4636 6.73628 48.391 7.07954C48.3174 7.42153 48.2075 7.75164 48.0733 8.06987C47.9262 8.37461 47.7437 8.63194 47.5362 8.85202C47.3164 9.07209 47.0604 9.17017 46.743 9.17017C46.5596 9.17017 46.3518 9.09649 46.1564 8.92472C45.9486 8.75414 45.6685 8.55825 45.3148 8.31406C44.9598 8.08175 44.4722 7.8003 43.8612 7.49431C43.2515 7.17643 42.4582 6.89581 41.4695 6.62624C40.4806 6.36982 39.2599 6.12562 37.8185 5.91743C36.3783 5.69736 34.6323 5.55097 32.5821 5.48952V51.0438C32.5821 52.8903 32.1054 54.2226 31.1538 55.0546C30.2015 55.8974 28.7369 56.3131 26.7474 56.3131Z" fill="#3B3B3B"/>
<path fill-rule="evenodd" clip-rule="evenodd" d="M57.0462 26.1157C57.9495 24.7335 58.9139 23.4749 59.939 22.3623C60.3666 21.8726 60.8302 21.4084 61.331 20.956C61.8312 20.504 62.3561 20.1002 62.8935 19.7456C63.4306 19.3782 63.98 19.0976 64.5534 18.8775C65.1272 18.6697 65.7006 18.5596 66.275 18.5596C67.4835 18.5596 68.4351 18.9261 69.1315 19.6478C69.827 20.3817 70.1689 21.3961 70.1689 22.7165C70.1689 23.5231 70.1084 24.3056 69.9733 25.0636C69.8393 25.8096 69.5832 26.7263 69.2042 27.8025H68.2035C68.0573 27.0565 67.7277 26.4457 67.2024 25.9561C66.6772 25.4674 65.9082 25.2232 64.9075 25.2232C64.1756 25.2232 63.4429 25.3573 62.7342 25.6382C62.0146 25.9075 61.319 26.2499 60.6345 26.6536C59.9635 27.0564 59.3161 27.4966 58.7064 27.974C58.0957 28.4628 57.5464 28.9148 57.0462 29.3431V52.5845C57.0462 52.9024 56.997 53.2698 56.8991 53.6971C56.8015 54.125 56.5695 54.5288 56.2036 54.9203C55.8377 55.299 55.2883 55.6291 54.5556 55.8977C53.835 56.1793 52.8341 56.3134 51.5773 56.3134C50.3071 56.3134 49.3184 56.167 48.5865 55.8614C47.8538 55.5676 47.3044 55.2131 46.9257 54.8102C46.5353 54.4064 46.3037 53.9785 46.2057 53.5506C46.108 53.1224 46.0595 52.7803 46.0595 52.5117V24.868C46.0595 24.1714 45.9005 23.5726 45.5829 23.0588C45.2532 22.545 44.7161 22.2885 43.9592 22.2885C43.5448 22.2885 43.203 22.3491 42.9219 22.4964C42.6286 22.6428 42.324 22.8509 41.9816 23.1074L41.2375 22.2148C41.7869 21.7625 42.3966 21.3104 43.0803 20.8703C43.7523 20.4301 44.4964 20.0383 45.2776 19.7082C46.0595 19.3662 46.9134 19.0975 47.8174 18.8774C48.7207 18.6696 49.6723 18.5596 50.6739 18.5596C51.6991 18.5596 52.578 18.6937 53.3107 18.9753C54.0307 19.2439 54.6292 19.5981 55.093 20.0514C55.5566 20.4916 55.9225 20.9803 56.1795 21.5305C56.4478 22.0807 56.6431 22.6309 56.7774 23.1929C56.9113 23.7554 56.9849 24.2933 57.009 24.8071C57.0343 25.3201 57.0462 25.7602 57.0462 26.1157Z" fill="#3B3B3B"/>
<path fill-rule="evenodd" clip-rule="evenodd" d="M90.0915 37.1795C90.0915 36.593 89.8968 36.1287 89.5181 35.8227C89.1278 35.5168 88.6392 35.3585 88.0535 35.3585C87.2108 35.3585 86.4174 35.5532 85.6727 35.9328C84.9156 36.3115 84.2564 36.8735 83.6829 37.6197C83.1095 38.3536 82.6578 39.2702 82.3282 40.3583C81.9864 41.4467 81.8274 42.7054 81.8274 44.1368C81.8274 45.518 81.925 46.6676 82.1325 47.5723C82.3281 48.4767 82.6083 49.1984 82.9501 49.7357C83.292 50.2737 83.6951 50.6533 84.1465 50.8734C84.5982 51.0812 85.0749 51.1912 85.5747 51.1912C86.1977 51.1912 86.7833 51.0317 87.3327 50.7016C87.882 50.3837 88.3587 49.9687 88.7609 49.4671C89.1641 48.9655 89.4937 48.4031 89.7256 47.7924C89.9694 47.1686 90.0915 46.5447 90.0915 45.9218L90.0915 37.1795ZM84.4034 21.4941C83.5852 21.4941 82.8403 21.5919 82.1448 21.7869C81.4615 21.9706 80.8627 22.2148 80.3628 22.4963C79.8616 22.7891 79.4716 23.1073 79.1783 23.4493C78.8972 23.7926 78.7511 24.1227 78.7511 24.4277C78.7511 24.7951 78.9345 25.0516 79.3004 25.1979C79.6783 25.3572 80.0814 25.5399 80.5331 25.7359C80.9848 25.9437 81.3998 26.2255 81.7666 26.604C82.1448 26.9704 82.3282 27.5338 82.3282 28.304C82.3282 28.8046 82.2305 29.257 82.0227 29.6849C81.8152 30.101 81.5461 30.4674 81.2045 30.7853C80.8505 31.1154 80.4474 31.36 79.9837 31.5436C79.5202 31.7273 79.0322 31.812 78.5313 31.812C77.2007 31.812 76.1261 31.36 75.2967 30.4552C74.4782 29.5385 74.0631 28.3404 74.0631 26.8363C74.0631 25.3817 74.4419 24.1349 75.2109 23.0951C75.968 22.0562 76.9687 21.2003 78.1895 20.5279C79.4222 19.8555 80.8141 19.3662 82.3645 19.0361C83.9148 18.7179 85.4649 18.5596 87.0153 18.5596C88.8708 18.5596 90.6409 18.7674 92.3384 19.1712C94.0346 19.574 95.5245 20.222 96.8307 21.1023C98.1241 21.9826 99.162 23.1074 99.9433 24.4651C100.712 25.8338 101.103 27.4724 101.103 29.4166V49.6507C101.103 49.8708 101.116 50.1031 101.14 50.3714C101.164 50.6287 101.225 50.8733 101.31 51.0811C101.408 51.3012 101.555 51.4718 101.75 51.6191C101.933 51.7655 102.214 51.8392 102.568 51.8392C102.996 51.8392 103.398 51.6677 103.765 51.3498C104.131 51.0316 104.46 50.7015 104.753 50.3595L105.644 51.1175C105.291 51.6191 104.863 52.1692 104.362 52.768C103.85 53.3667 103.252 53.9297 102.532 54.4426C101.811 54.9686 100.981 55.421 100.029 55.7753C99.0766 56.1305 97.9899 56.3133 96.7695 56.3133C95.2676 56.3133 93.937 55.8612 92.7657 54.9687C91.6057 54.0762 90.8366 52.6944 90.4826 50.836C89.7135 51.8636 88.9203 52.7195 88.1018 53.416C87.2846 54.1007 86.4419 54.6628 85.5749 55.091C84.7203 55.5189 83.8542 55.8368 82.9875 56.0205C82.1207 56.2155 81.2418 56.3133 80.3629 56.3133C79.2148 56.3133 78.1039 56.1305 77.0297 55.7753C75.956 55.4211 75.0036 54.8464 74.1487 54.0762C73.3061 53.294 72.6227 52.2915 72.1106 51.0438C71.5977 49.8093 71.3416 48.2929 71.3416 46.496C71.3416 44.3194 71.781 42.547 72.6349 41.1648C73.4895 39.7716 74.6245 38.6098 76.0164 37.6691C77.4083 36.727 78.995 35.9204 80.7651 35.2483C82.548 34.5881 84.3663 33.8784 86.2221 33.1323C87.6019 32.5821 88.6148 31.7755 89.2499 30.6874C89.8841 29.5992 90.1893 28.4867 90.1893 27.3377C90.1893 25.5652 89.6772 24.1467 88.6392 23.095C87.6018 22.032 86.1857 21.4941 84.4034 21.4941Z" fill="#3B3B3B"/>
<path fill-rule="evenodd" clip-rule="evenodd" d="M109.502 25.2959C109.356 24.3429 109.123 23.5967 108.806 23.071C108.489 22.545 107.939 22.2885 107.182 22.2885C106.767 22.2885 106.425 22.3491 106.12 22.4964C105.827 22.6428 105.51 22.8509 105.181 23.1074L104.46 22.2148C105.009 21.7625 105.62 21.3104 106.303 20.8703C106.987 20.4301 107.72 20.0383 108.501 19.7082C109.294 19.3662 110.137 19.0975 111.04 18.8774C111.943 18.6696 112.895 18.5596 113.896 18.5596C115.337 18.5596 116.484 18.8038 117.376 19.2934C118.255 19.7819 118.95 20.3938 119.463 21.1145C119.975 21.8484 120.342 22.6308 120.55 23.4625C120.769 24.3055 120.928 25.0516 121.014 25.7237C121.904 32.9618 122.893 38.4394 123.992 42.1684C125.079 45.8845 126.385 47.7551 127.886 47.7551C128.716 47.7551 129.522 47.3027 130.303 46.3861C131.072 45.4817 131.756 44.2469 132.342 42.6691C132.927 41.0922 133.391 39.2461 133.746 37.1433C134.112 35.0526 134.283 32.8024 134.283 30.4189C134.283 28.8411 134.185 27.5088 133.966 26.4204C133.746 25.3331 133.514 24.4156 133.245 23.6827C132.989 22.9366 132.745 22.325 132.537 21.8362C132.318 21.3469 132.208 20.9067 132.208 20.528C132.208 20.1738 132.354 19.8678 132.647 19.6355C132.927 19.3913 133.269 19.1953 133.66 19.0238C134.05 18.8533 134.466 18.7432 134.881 18.6696C135.296 18.5959 135.638 18.5596 135.894 18.5596C136.59 18.5596 137.09 18.6574 137.396 18.8402C137.713 19.0361 137.957 19.4035 138.153 19.9537C138.36 20.6503 138.519 21.5669 138.592 22.6923C138.678 23.829 138.726 25.0394 138.726 26.3357C138.726 28.169 138.592 30.1869 138.348 32.3876C138.091 34.5883 137.713 36.789 137.2 39.0138C136.687 41.2267 136.041 43.3788 135.247 45.4573C134.465 47.5351 133.526 49.3812 132.452 50.9953C131.365 52.6095 130.132 53.8926 128.765 54.8588C127.386 55.825 125.86 56.3134 124.162 56.3134C122.185 56.3134 120.476 55.7391 119.011 54.5901C117.558 53.4406 116.325 51.9493 115.312 50.1151C114.299 48.2809 113.457 46.2147 112.798 43.9168C112.126 41.6306 111.589 39.3318 111.162 37.0211C110.746 34.7226 110.417 32.5341 110.161 30.4676C109.917 28.401 109.697 26.6777 109.502 25.2959Z" fill="#3B3B3B"/>
<path fill-rule="evenodd" clip-rule="evenodd" d="M188.948 52.5844C188.948 52.9023 188.887 53.2696 188.777 53.6969C188.68 54.1248 188.424 54.5286 188.033 54.9201C187.642 55.2988 187.068 55.6289 186.311 55.8976C185.567 56.1791 184.553 56.3133 183.296 56.3133C182.026 56.3133 181.038 56.1669 180.318 55.8612C179.609 55.5675 179.072 55.213 178.73 54.8101C178.388 54.4063 178.169 53.9784 178.083 53.5505C178.01 53.1223 177.961 52.7802 177.961 52.5116V46.3964C181.873 42.7558 185.647 38.6325 188.948 34.7388L188.948 52.5844ZM177.961 44.72C181.913 41.1851 185.763 36.9256 188.948 33.0927V5.91747C188.948 5.39175 188.899 4.79298 188.814 4.10863C188.728 3.42304 188.484 2.77505 188.082 2.17627C187.679 1.56464 187.044 1.05178 186.189 0.635754C185.334 0.20784 184.126 0 182.576 0C181.575 0 180.623 0.110036 179.719 0.33011C178.804 0.53795 177.961 0.819478 177.156 1.14959C176.362 1.4797 175.63 1.87063 174.958 2.31078C174.287 2.76281 173.688 3.20296 173.139 3.65534L173.848 4.51145C174.189 4.25502 174.495 4.05907 174.8 3.92492C175.092 3.79041 175.446 3.72896 175.849 3.72896C176.618 3.72896 177.156 3.98539 177.485 4.49922C177.803 5.01298 177.961 5.61175 177.961 6.30931L177.961 44.72Z" fill="#3B3B3B"/>
<path fill-rule="evenodd" clip-rule="evenodd" d="M202.657 18.6467C202.657 18.6467 206.726 15.0174 211.755 9.53187C216.783 4.04665 218.599 1.26552 217.831 0.406967C217.063 -0.450679 214.181 -0.0601002 210.46 4.42199C209.897 5.10116 209.296 5.83688 208.684 6.59673C207.459 7.82363 205.832 8.46275 205.803 8.47407L196.766 11.0449L193.665 12.9943L201.97 12.7016C202.024 12.6954 203.77 12.4821 205.006 11.2451C202.989 13.8285 201.435 15.8709 201.435 15.8709L197.886 14.67L197.096 15.6221L199.236 18.4112L197.28 18.7385L196.181 19.7679L198.777 19.6986C198.777 19.6986 198.567 20.2209 198.622 20.5468C198.721 21.1342 201.675 19.1909 202.223 18.8556C202.223 18.8556 201.856 19.3089 201.544 19.6442L203.208 19.6952L203.486 19.0271L202.657 18.6467ZM212.865 9.47657L215.846 11.6262L215.766 12.8833L211.85 12.4777C211.692 12.4352 211.069 12.1641 211.468 11.4138C211.867 10.6619 212.865 9.47657 212.865 9.47657Z" fill="#3B3B3B"/>
<path fill-rule="evenodd" clip-rule="evenodd" d="M153.925 39.2943C153.925 40.0646 154.035 40.8965 154.267 41.7887C154.499 42.6813 154.816 43.5866 155.256 44.4913C155.683 45.3957 156.208 46.2638 156.842 47.0826C157.477 47.9143 158.198 48.6482 159.028 49.2955C159.846 49.9313 160.761 50.4451 161.762 50.836C172.935 55.0718 194.247 25.7949 196.802 21.9654L197.693 22.8212C190.517 32.5657 171.653 56.2406 158.759 56.2406C156.684 56.2406 154.657 55.8612 152.693 55.1152C150.727 54.3571 148.981 53.2324 147.455 51.7292C145.929 50.2251 144.709 48.3426 143.793 46.1046C142.865 43.8553 142.413 41.2267 142.413 38.2194C142.413 36.0551 142.682 34.0622 143.231 32.2402C143.78 30.4311 144.525 28.7928 145.466 27.3379C146.405 25.8833 147.504 24.5992 148.762 23.4989C150.006 22.3985 151.325 21.4941 152.705 20.7602C154.096 20.0383 155.5 19.4881 156.952 19.1098C158.393 18.7433 159.785 18.5596 161.115 18.5596C162.885 18.5596 164.411 18.7552 165.73 19.1339C167.036 19.5135 168.134 20.0264 169.001 20.6744C169.868 21.3224 170.515 22.0685 170.955 22.9124C171.382 23.7554 171.59 24.6479 171.59 25.5774C171.59 26.7022 171.272 27.7045 170.625 28.6092C169.99 29.5013 169.123 30.2848 168.049 30.9572L153.925 39.2943ZM161.115 32.0201C161.42 31.8373 161.676 31.6536 161.884 31.4699C162.092 31.2871 162.251 31.079 162.373 30.8216C162.483 30.5775 162.581 30.2596 162.629 29.893C162.691 29.5266 162.727 29.0611 162.727 28.5109C162.727 27.9243 162.653 27.2522 162.531 26.5303C162.397 25.7973 162.178 25.113 161.86 24.465C161.555 23.829 161.164 23.291 160.688 22.8628C160.212 22.4226 159.638 22.2148 158.967 22.2148C158.113 22.2148 157.38 22.4721 156.77 22.985C156.159 23.4988 155.659 24.159 155.268 24.9656C154.877 25.7854 154.56 26.702 154.341 27.7406C154.108 28.7804 153.938 29.8313 153.816 30.8833C153.706 31.935 153.632 32.9376 153.608 33.9026C153.584 34.8687 153.572 35.6885 153.572 36.3606L161.115 32.0201Z" fill="#3B3B3B"/>
<path fill-rule="evenodd" clip-rule="evenodd" d="M117.377 70.1113C117.377 70.4708 117.284 70.795 117.098 71.0827C116.914 71.3703 116.641 71.5947 116.284 71.7576C115.926 71.9196 115.502 72.0003 115.012 72.0003C114.424 72.0003 113.939 71.8893 113.557 71.6683C113.287 71.5088 113.068 71.2948 112.898 71.028C112.729 70.7611 112.645 70.502 112.645 70.2492C112.645 70.1037 112.696 69.9778 112.797 69.8723C112.898 69.7684 113.027 69.717 113.184 69.717C113.312 69.717 113.419 69.7571 113.506 69.8393C113.595 69.92 113.67 70.0404 113.732 70.2015C113.806 70.3904 113.89 70.5506 113.978 70.6771C114.066 70.8045 114.19 70.9103 114.349 70.9934C114.51 71.0756 114.719 71.1172 114.98 71.1172C115.337 71.1172 115.627 71.0341 115.851 70.8669C116.075 70.7007 116.187 70.4916 116.187 70.2421C116.187 70.0437 116.128 69.8826 116.007 69.7604C115.886 69.6366 115.729 69.5422 115.537 69.4762C115.348 69.4114 115.091 69.342 114.772 69.2683C114.345 69.1687 113.986 69.0501 113.698 68.9166C113.41 68.7824 113.181 68.5987 113.012 68.3673C112.843 68.135 112.758 67.8474 112.758 67.5017C112.758 67.1734 112.847 66.8821 113.026 66.6266C113.205 66.372 113.464 66.1761 113.803 66.0392C114.141 65.9013 114.539 65.8332 114.997 65.8332C115.362 65.8332 115.678 65.879 115.946 65.9692C116.212 66.0609 116.434 66.1822 116.61 66.332C116.784 66.4821 116.914 66.6404 116.995 66.8061C117.076 66.9705 117.117 67.1335 117.117 67.2902C117.117 67.4332 117.066 67.564 116.965 67.6793C116.864 67.7945 116.736 67.8517 116.585 67.8517C116.446 67.8517 116.342 67.8172 116.27 67.7487C116.198 67.6794 116.121 67.5659 116.037 67.4083C115.928 67.1839 115.799 67.0069 115.646 66.8807C115.495 66.7542 115.25 66.6918 114.914 66.6918C114.603 66.6918 114.351 66.7603 114.161 66.897C113.969 67.0348 113.873 67.1986 113.873 67.3918C113.873 67.5112 113.905 67.6146 113.971 67.702C114.036 67.7879 114.126 67.8631 114.24 67.9255C114.353 67.9878 114.469 68.0364 114.585 68.0728C114.702 68.1073 114.894 68.1587 115.162 68.2271C115.498 68.306 115.803 68.3916 116.075 68.4878C116.347 68.5823 116.578 68.6975 116.77 68.8335C116.961 68.9686 117.11 69.141 117.216 69.3473C117.322 69.5559 117.377 69.8099 117.377 70.1113ZM121.385 66.5651V70.9084H123.831C124.026 70.9084 124.175 70.9561 124.279 71.0505C124.385 71.1459 124.436 71.2654 124.436 71.4081C124.436 71.5549 124.385 71.6743 124.282 71.7645C124.18 71.8544 124.028 71.9006 123.831 71.9006H120.918C120.655 71.9006 120.467 71.8425 120.352 71.7254C120.237 71.6084 120.178 71.4195 120.178 71.1606V66.5651C120.178 66.3224 120.234 66.1387 120.343 66.0165C120.453 65.8945 120.597 65.8331 120.776 65.8331C120.957 65.8331 121.104 65.8927 121.216 66.014C121.328 66.1345 121.385 66.3191 121.385 66.5651ZM129.239 65.8331C129.857 65.8331 130.388 65.9587 130.83 66.21C131.273 66.4594 131.608 66.8164 131.835 67.2792C132.063 67.7416 132.177 68.2851 132.177 68.9089C132.177 69.3698 132.115 69.7892 131.989 70.1661C131.865 70.5438 131.678 70.8693 131.429 71.146C131.179 71.4232 130.874 71.6335 130.51 71.7808C130.147 71.9267 129.733 72.0003 129.264 72.0003C128.798 72.0003 128.381 71.9257 128.013 71.7741C127.645 71.624 127.337 71.4119 127.091 71.1381C126.844 70.8642 126.658 70.535 126.532 70.1487C126.406 69.7639 126.344 69.3473 126.344 68.9001C126.344 68.442 126.408 68.0226 126.541 67.6387C126.672 67.2576 126.862 66.9317 127.112 66.6621C127.36 66.3944 127.664 66.1893 128.022 66.0471C128.378 65.904 128.784 65.8331 129.239 65.8331ZM130.954 68.9C130.954 68.4641 130.882 68.0849 130.742 67.7642C130.601 67.4445 130.4 67.2027 130.139 67.0373C129.878 66.8735 129.577 66.7919 129.239 66.7919C128.999 66.7919 128.776 66.8371 128.572 66.9282C128.367 67.0189 128.19 67.1516 128.043 67.3249C127.896 67.4992 127.78 67.7208 127.694 67.9903C127.61 68.2614 127.567 68.5637 127.567 68.8999C127.567 69.2405 127.61 69.5464 127.694 69.8208C127.78 70.0947 127.9 70.3227 128.056 70.5027C128.211 70.684 128.39 70.8182 128.592 70.9074C128.794 70.9976 129.015 71.0416 129.256 71.0416C129.565 71.0416 129.848 70.9637 130.107 70.8105C130.365 70.6562 130.57 70.4172 130.724 70.0929C130.877 69.7708 130.954 69.3722 130.954 68.9ZM140.453 69.4752V70.618C140.453 70.7715 140.438 70.8919 140.409 70.982C140.379 71.0738 140.324 71.1563 140.244 71.2281C140.163 71.3018 140.06 71.3727 139.936 71.4402C139.577 71.6352 139.23 71.7764 138.897 71.8675C138.565 71.9559 138.201 72.0001 137.809 72.0001C137.351 72.0001 136.933 71.9299 136.558 71.7896C136.181 71.6474 135.86 71.4439 135.595 71.1743C135.328 70.9056 135.125 70.5807 134.983 70.1986C134.84 69.8157 134.769 69.3887 134.769 68.9164C134.769 68.4531 134.839 68.0291 134.976 67.6428C135.115 67.2583 135.318 66.9315 135.587 66.6619C135.854 66.3942 136.181 66.1891 136.565 66.0469C136.951 65.9039 137.385 65.833 137.873 65.833C138.275 65.833 138.63 65.8874 138.938 65.9941C139.247 66.1014 139.498 66.2358 139.689 66.3988C139.882 66.5608 140.026 66.7332 140.125 66.9151C140.221 67.0969 140.27 67.2583 140.27 67.4001C140.27 67.5511 140.214 67.681 140.101 67.7877C139.989 67.8959 139.855 67.9487 139.696 67.9487C139.61 67.9487 139.527 67.9295 139.446 67.887C139.366 67.8473 139.299 67.7901 139.246 67.7183C139.096 67.4851 138.97 67.3084 138.868 67.1889C138.764 67.0709 138.625 66.9697 138.452 66.8891C138.278 66.8068 138.054 66.7668 137.784 66.7668C137.505 66.7668 137.255 66.8154 137.036 66.9107C136.817 67.0067 136.63 67.1473 136.474 67.331C136.319 67.5129 136.2 67.7373 136.117 68.0031C136.034 68.2693 135.993 68.5637 135.993 68.8862C135.993 69.5861 136.154 70.1243 136.474 70.5018C136.795 70.8781 137.243 71.067 137.815 71.067C138.094 71.067 138.356 71.0306 138.602 70.9569C138.846 70.8833 139.096 70.7794 139.347 70.643V69.6754H138.413C138.188 69.6754 138.018 69.6417 137.903 69.5742C137.788 69.5058 137.731 69.3905 137.731 69.2267C137.731 69.095 137.779 68.9831 137.875 68.8975C137.971 68.8097 138.101 68.7667 138.268 68.7667H139.637C139.804 68.7667 139.947 68.7823 140.064 68.8116C140.18 68.8419 140.274 68.9088 140.345 69.0109C140.417 69.1139 140.453 69.2701 140.453 69.4752ZM146.899 71.2239L146.615 70.4753H144.194L143.909 71.2394C143.799 71.5384 143.704 71.7392 143.625 71.8431C143.548 71.948 143.418 72.0002 143.24 72.0002C143.088 72.0002 142.953 71.9445 142.837 71.8336C142.721 71.7226 142.663 71.5964 142.663 71.4558C142.663 71.3736 142.677 71.2896 142.702 71.203C142.73 71.1153 142.775 70.9958 142.837 70.8408L144.36 66.9679C144.404 66.857 144.456 66.7237 144.516 66.5675C144.578 66.4107 144.643 66.2817 144.712 66.1793C144.781 66.0764 144.872 65.9932 144.984 65.929C145.096 65.8648 145.235 65.833 145.4 65.833C145.569 65.833 145.709 65.8648 145.822 65.929C145.934 65.9932 146.024 66.0745 146.094 66.1751C146.163 66.2747 146.221 66.3832 146.268 66.4985C146.315 66.6137 146.377 66.7678 146.448 66.96L148.005 70.8088C148.126 71.1016 148.188 71.314 148.188 71.4473C148.188 71.5851 148.131 71.7132 148.016 71.8284C147.901 71.9436 147.761 72.0002 147.598 72.0002C147.504 72.0002 147.422 71.9837 147.354 71.9489C147.288 71.9162 147.231 71.87 147.184 71.8114C147.138 71.7533 147.089 71.6632 147.037 71.5436C146.983 71.4232 146.938 71.3156 146.899 71.2239ZM144.511 69.5672H146.291L145.393 67.1082L144.511 69.5672ZM152.449 66.5581L154.769 70.075V66.5251C154.769 66.2946 154.819 66.1223 154.917 66.007C155.015 65.8918 155.149 65.8331 155.316 65.8331C155.488 65.8331 155.626 65.8903 155.726 66.0055C155.826 66.1207 155.875 66.2946 155.875 66.5251V71.2159C155.875 71.7392 155.659 72.0003 155.226 72.0003C155.118 72.0003 155.021 71.9853 154.934 71.9532C154.848 71.9229 154.766 71.8728 154.691 71.8062C154.615 71.7378 154.546 71.6589 154.481 71.5669C154.415 71.4767 154.35 71.3841 154.284 71.2896L152.023 67.8171V71.3089C152.023 71.5366 151.97 71.709 151.865 71.8251C151.757 71.9422 151.621 72.0002 151.457 72.0002C151.286 72.0002 151.149 71.9421 151.046 71.8242C150.942 71.7065 150.891 71.5341 150.891 71.3089V66.7082C150.891 66.5123 150.913 66.3598 150.956 66.2488C151.007 66.1266 151.094 66.0263 151.213 65.9484C151.332 65.8719 151.461 65.8332 151.598 65.8332C151.708 65.8332 151.801 65.8512 151.877 65.8857C151.955 65.9224 152.023 65.9692 152.081 66.0288C152.139 66.0887 152.199 66.1657 152.26 66.2611C152.321 66.3554 152.384 66.4542 152.449 66.5581ZM162.296 66.5651V68.2752H164.9V66.5651C164.9 66.3224 164.956 66.1387 165.065 66.0165C165.175 65.8945 165.32 65.8331 165.498 65.8331C165.678 65.8331 165.826 65.8927 165.938 66.014C166.05 66.1345 166.107 66.3181 166.107 66.5651V71.2645C166.107 71.5115 166.05 71.6951 165.936 71.8171C165.823 71.9394 165.676 72.0002 165.498 72.0002C165.316 72.0002 165.171 71.9394 165.063 71.8156C164.954 71.6924 164.9 71.5087 164.9 71.2645V69.2588H162.296V71.2645C162.296 71.5115 162.239 71.6951 162.125 71.8171C162.011 71.9394 161.864 72.0002 161.687 72.0002C161.505 72.0002 161.36 71.9394 161.251 71.8156C161.143 71.6924 161.089 71.5087 161.089 71.2645V66.5651C161.089 66.3206 161.143 66.1387 161.25 66.0165C161.357 65.8945 161.503 65.8331 161.687 65.8331C161.867 65.8331 162.014 65.8927 162.126 66.014C162.239 66.1345 162.296 66.3191 162.296 66.5651ZM173.131 66.8665H170.413V68.3333H172.917C173.101 68.3333 173.238 68.3749 173.329 68.4574C173.42 68.5387 173.464 68.6487 173.464 68.7833C173.464 68.9183 173.42 69.0293 173.331 69.114C173.241 69.1989 173.104 69.2423 172.917 69.2423H170.413V70.942H173.225C173.414 70.942 173.557 70.9864 173.653 71.0738C173.75 71.1615 173.798 71.2792 173.798 71.4255C173.798 71.5658 173.75 71.6811 173.653 71.7688C173.557 71.8562 173.414 71.9005 173.225 71.9005H169.946C169.684 71.9005 169.495 71.8424 169.38 71.7254C169.265 71.6083 169.206 71.4195 169.206 71.1605V66.6732C169.206 66.4999 169.233 66.3578 169.284 66.2487C169.336 66.1387 169.416 66.0583 169.526 66.0079C169.635 65.9586 169.776 65.9333 169.946 65.9333H173.131C173.324 65.9333 173.467 65.9758 173.56 66.0607C173.653 66.1475 173.701 66.26 173.701 66.3969C173.701 66.539 173.653 66.6524 173.56 66.7392C173.467 66.8234 173.324 66.8665 173.131 66.8665ZM178.181 69.3505H177.758V71.2645C177.758 71.5175 177.702 71.7018 177.592 71.8216C177.481 71.9402 177.335 72.0001 177.157 72.0001C176.964 72.0001 176.815 71.9375 176.709 71.8128C176.605 71.688 176.552 71.5062 176.552 71.2644V66.6732C176.552 66.4134 176.61 66.2245 176.727 66.1083C176.843 65.9913 177.031 65.9332 177.291 65.9332H179.254C179.523 65.9332 179.755 65.9445 179.948 65.9681C180.141 65.9913 180.314 66.0374 180.468 66.1084C180.655 66.1872 180.82 66.2997 180.965 66.4456C181.107 66.5929 181.217 66.7634 181.291 66.9566C181.365 67.1516 181.403 67.357 181.403 67.5752C181.403 68.0196 181.278 68.3748 181.027 68.6416C180.776 68.9069 180.396 69.0958 179.887 69.2068C180.101 69.3211 180.306 69.4892 180.501 69.7108C180.696 69.9336 180.871 70.1711 181.023 70.4214C181.176 70.6727 181.294 70.8979 181.381 71.1006C181.466 71.3017 181.508 71.4401 181.508 71.5175C181.508 71.5946 181.484 71.6725 181.434 71.7505C181.384 71.8284 181.316 71.8892 181.228 71.9333C181.142 71.9785 181.041 72.0003 180.928 72.0003C180.793 72.0003 180.679 71.9691 180.586 71.9049C180.494 71.8407 180.415 71.7601 180.349 71.6632C180.282 71.566 180.192 71.4214 180.079 71.2325L179.595 70.4268C179.421 70.1321 179.266 69.9069 179.13 69.7535C178.992 69.5976 178.854 69.4918 178.712 69.4347C178.572 69.3783 178.395 69.3505 178.181 69.3505ZM178.872 66.8415H177.758V68.4834H178.838C179.128 68.4834 179.373 68.4583 179.571 68.4088C179.767 68.3587 179.919 68.2728 180.023 68.1515C180.127 68.031 180.18 67.8639 180.18 67.6532C180.18 67.4861 180.138 67.3405 180.054 67.214C179.97 67.0875 179.854 66.993 179.704 66.9307C179.564 66.8707 179.286 66.8415 178.872 66.8415ZM188.272 66.8665H185.554V68.3333H188.058C188.242 68.3333 188.379 68.3749 188.469 68.4574C188.561 68.5387 188.605 68.6487 188.605 68.7833C188.605 68.9183 188.561 69.0293 188.472 69.114C188.382 69.1989 188.245 69.2423 188.058 69.2423H185.554V70.942H188.366C188.555 70.942 188.698 70.9864 188.794 71.0738C188.891 71.1615 188.939 71.2792 188.939 71.4255C188.939 71.5658 188.891 71.6811 188.794 71.7688C188.698 71.8562 188.555 71.9005 188.366 71.9005H185.087C184.825 71.9005 184.636 71.8424 184.521 71.7254C184.406 71.6083 184.347 71.4195 184.347 71.1605V66.6732C184.347 66.4999 184.374 66.3578 184.425 66.2487C184.476 66.1387 184.557 66.0583 184.667 66.0079C184.776 65.9586 184.917 65.9333 185.087 65.9333H188.272C188.465 65.9333 188.608 65.9758 188.701 66.0607C188.794 66.1475 188.842 66.26 188.842 66.3969C188.842 66.539 188.794 66.6524 188.701 66.7392C188.608 66.8234 188.465 66.8665 188.272 66.8665Z" fill="#3B3B3B"/>
<path fill-rule="evenodd" clip-rule="evenodd" d="M105.238 68.4834C105.476 68.4834 105.67 68.6775 105.67 68.9165C105.67 69.1555 105.476 69.3496 105.238 69.3496H83.7338C83.4952 69.3496 83.3014 69.1555 83.3014 68.9165C83.3014 68.6775 83.4952 68.4834 83.7338 68.4834H105.238Z" fill="#3B3B3B"/>
</g>
<defs>
<clipPath id="clip0_113_4568">
<rect width="218" height="72" fill="white"/>
</clipPath>
</defs>
</svg>
