<svg width="284" height="72" viewBox="0 0 284 72" fill="none" xmlns="http://www.w3.org/2000/svg">
<path d="M19.4839 47.4371C17.9277 48.5217 16.205 49.2989 14.3624 49.7476L12.5211 50.1962C12.4032 50.225 12.2846 50.2388 12.1673 50.2388C11.6196 50.2388 11.1082 49.9342 10.8512 49.4265C10.5392 48.8098 10.6907 48.0683 11.22 47.6237L21.4431 39.035C19.8643 39.5639 18.35 40.0708 16.9146 40.5504C14.2918 41.4271 11.9288 42.2125 9.89692 42.8841C8.79735 44.1656 8.19341 46.024 9.09898 48.6884L9.75022 49.9836C9.75022 49.9836 18.5913 68.0508 18.9245 68.6243C20.0953 70.6425 22.2787 72.0001 24.7802 72.0001C27.5051 72.0001 29.853 70.3866 30.9251 68.0632C31.1164 67.6488 46.2122 37.2479 46.2122 37.2479L46.2286 37.2178L47.551 34.5869C48.2152 33.0441 48.7259 31.4231 49.066 29.7383C46.3369 30.6596 43.6209 31.5761 40.9474 32.4775L19.4839 47.4371Z" fill="#0B8CD3"/>
<path d="M16.4124 63.5657C17.7642 66.3125 18.8137 68.4336 18.9241 68.6243C20.0949 70.6425 22.2783 72.0001 24.7798 72.0001C27.5047 72.0001 29.8526 70.3866 30.9247 68.0632C31.116 67.6488 46.2118 37.2479 46.2118 37.2479L46.2282 37.2178L47.5506 34.5869C48.2148 33.0441 48.7255 31.4231 49.0656 29.7383C46.9857 30.4401 44.9141 31.1398 42.8623 31.8313C40.4699 37.7769 32.437 54.9036 16.4124 63.5657Z" fill="url(#paint0_linear_113_4604)"/>
<path d="M24.7801 0C11.0937 0 0 11.1016 0 24.7976C0 27.9004 0.571036 30.8701 1.61234 33.6072C2.04627 34.615 3.66066 37.3617 8.27761 37.0681L12.6066 35.1823C11.8814 33.5407 11.4783 31.7242 11.4783 29.813C11.4783 22.4611 17.4334 16.5018 24.7801 16.5018C30.2594 16.5018 34.9641 19.8179 37.0001 24.5547L48.9568 19.3452C46.4753 8.27249 36.5929 0 24.7801 0Z" fill="#0071BC"/>
<path d="M37 24.5546L48.9567 19.3452C48.6256 17.8689 48.1622 16.4434 47.5816 15.0796C43.513 16.9345 39.1271 18.9335 34.7014 20.949C35.6495 22.0116 36.4296 23.2272 37 24.5546Z" fill="url(#paint1_linear_113_4604)"/>
<path d="M24.7801 0C11.0937 0 0 11.1016 0 24.7976C0 26.289 0.13299 27.7495 0.385946 29.1688C0.182347 25.3244 6.2855 4.72724 25.7898 6.21655C34.5754 6.88745 41.3188 13.176 42.6679 21.7188L48.9562 19.3452C46.4753 8.27249 36.5929 0 24.7801 0Z" fill="url(#paint2_linear_113_4604)"/>
<path d="M8.27776 37.0682L12.6068 35.1824C12.0933 34.0196 11.7451 32.7684 11.5833 31.4595C8.19207 32.9968 5.21213 34.3441 2.87109 35.3985C3.87949 36.3582 5.55626 37.2411 8.27776 37.0682Z" fill="url(#paint3_linear_113_4604)"/>
<path d="M13.9553 48.0726C15.5902 47.6748 17.1189 46.9853 18.4996 46.0229L35.1117 34.4438C31.9165 35.5195 28.8269 36.5581 25.9011 37.5405L13.123 48.2757L13.9553 48.0726Z" fill="white"/>
<path d="M27.8335 35.9161L24.2222 38.9496C26.8923 38.0516 29.7687 37.083 32.7754 36.0711L37.8201 32.5547C34.3555 33.7216 30.9916 34.8535 27.8335 35.9161Z" fill="white"/>
<path d="M95.1286 10.9058C94.258 9.4515 92.1466 8.58714 89.4251 8.1138C89.0823 8.05206 88.7327 7.99717 88.3762 7.95601C84.5716 7.44837 79.8347 7.59929 75.6599 7.93543C73.4868 8.10693 71.3686 8.64202 69.3669 9.51324L6.28564 36.9945C7.88975 37.2346 10.008 37.0494 12.7775 36.0478L70.0524 11.0979C71.8827 10.2953 73.8159 9.81508 75.797 9.6573C79.0601 9.39662 81.9735 9.30744 84.4551 9.3829L73.3429 13.4234C72.8082 13.6155 72.534 14.2055 72.7259 14.7406C72.8767 15.159 73.2743 15.4197 73.6925 15.4197C73.809 15.4197 73.9255 15.3991 74.0421 15.358L89.1234 9.86996C89.1646 9.85624 89.2057 9.83566 89.2468 9.81508C91.5502 10.213 93.0652 10.8647 93.6273 11.7565C93.5999 11.8731 93.4079 12.4356 91.8929 13.6361C90.8989 14.4319 89.7747 15.0493 88.5545 15.4609C83.1663 17.2925 62.7653 24.1594 43.6463 30.5941L38.6009 34.1133C59.1458 27.1984 83.1595 19.1104 89.1029 17.0936C90.515 16.6202 91.8175 15.9068 92.9692 14.9875C93.6753 14.425 95.3616 13.0804 95.3616 11.729C95.3616 11.4478 95.2862 11.1734 95.1286 10.9058Z" fill="#0B8CD3"/>
<path d="M9.1499 44.0211C11.3415 43.2843 15.068 42.0303 19.7542 40.4539L23.3648 37.4204C18.8575 38.9372 14.9562 40.2495 12.0387 41.2311C10.9364 41.8122 9.78332 42.6992 9.1499 44.0211Z" fill="#0B8CD3"/>
<path d="M13.1228 48.2755L13.955 48.0732C15.59 47.6753 17.1187 46.9858 18.4993 46.0234L47.9751 25.4783C48.2171 25.3096 48.0135 24.935 47.7407 25.0461L34.406 30.48C34.2751 30.5335 34.1538 30.6069 34.0455 30.6974L13.1228 48.2755Z" fill="#0B8CD3"/>
<path d="M67.7522 65.5065C68.1024 65.5065 68.3577 65.4664 68.5182 65.3862C68.6787 65.2986 68.7589 65.1528 68.7589 64.9485C68.7589 64.7588 68.6714 64.602 68.4963 64.478C68.3285 64.354 68.0477 64.219 67.6538 64.0731C67.413 63.9856 67.1906 63.8944 66.9863 63.7996C66.7894 63.6975 66.6179 63.5808 66.472 63.4495C66.3261 63.3181 66.2094 63.1613 66.1219 62.9789C66.0417 62.7893 66.0015 62.5595 66.0015 62.2896C66.0015 61.7644 66.1948 61.3522 66.5815 61.0532C66.9681 60.7468 67.4933 60.5936 68.1571 60.5936C68.4927 60.5936 68.8136 60.6264 69.12 60.6921C69.4264 60.7504 69.6562 60.8088 69.8093 60.8671L69.5686 61.9395C69.4227 61.8738 69.2367 61.8155 69.0106 61.7644C68.7844 61.706 68.5218 61.6769 68.2228 61.6769C67.9529 61.6769 67.734 61.7243 67.5662 61.8191C67.3985 61.9066 67.3146 62.0452 67.3146 62.2349C67.3146 62.3297 67.3292 62.4136 67.3583 62.4866C67.3948 62.5595 67.4532 62.6288 67.5334 62.6945C67.6137 62.7528 67.7194 62.8148 67.8507 62.8805C67.982 62.9388 68.1425 63.0008 68.3322 63.0665C68.6458 63.1832 68.9121 63.2999 69.1309 63.4166C69.3498 63.526 69.5285 63.6537 69.6671 63.7996C69.813 63.9382 69.9188 64.0987 69.9844 64.281C70.0501 64.4634 70.0829 64.6822 70.0829 64.9376C70.0829 65.4847 69.8786 65.9005 69.4701 66.1849C69.0689 66.4621 68.4927 66.6007 67.7413 66.6007C67.238 66.6007 66.8331 66.557 66.5267 66.4694C66.2204 66.3892 66.0052 66.3235 65.8812 66.2725L66.111 65.1673C66.3079 65.2476 66.5413 65.3242 66.8112 65.3971C67.0884 65.4701 67.4021 65.5065 67.7522 65.5065ZM73.3111 66.5679C72.9172 66.5606 72.5889 66.5169 72.3263 66.4366C72.071 66.3564 71.8668 66.2433 71.7136 66.0974C71.5604 65.9442 71.451 65.7582 71.3853 65.5394C71.327 65.3132 71.2978 65.0579 71.2978 64.7734V58.1864L72.6218 57.9675V64.5218C72.6218 64.6822 72.6327 64.8172 72.6546 64.9266C72.6838 65.036 72.7312 65.1309 72.7968 65.2111C72.8625 65.2841 72.95 65.3424 73.0594 65.3862C73.1762 65.4227 73.3221 65.4518 73.4971 65.4737L73.3111 66.5679ZM79.7436 63.5917C79.7436 64.044 79.678 64.4561 79.5467 64.8281C79.4154 65.2002 79.2294 65.5175 78.9886 65.7801C78.7479 66.0427 78.4561 66.247 78.1133 66.3928C77.7777 66.5387 77.4057 66.6117 76.9972 66.6117C76.5887 66.6117 76.2167 66.5387 75.8811 66.3928C75.5456 66.247 75.2574 66.0427 75.0167 65.7801C74.776 65.5175 74.5863 65.2002 74.4477 64.8281C74.3164 64.4561 74.2508 64.044 74.2508 63.5917C74.2508 63.1394 74.3164 62.7309 74.4477 62.3662C74.5863 61.9942 74.776 61.6769 75.0167 61.4142C75.2647 61.1516 75.5565 60.951 75.8921 60.8124C76.2276 60.6665 76.596 60.5936 76.9972 60.5936C77.3984 60.5936 77.7668 60.6665 78.1023 60.8124C78.4452 60.951 78.737 61.1516 78.9777 61.4142C79.2184 61.6769 79.4044 61.9942 79.5357 62.3662C79.6743 62.7309 79.7436 63.1394 79.7436 63.5917ZM78.3868 63.5917C78.3868 63.0227 78.2628 62.5741 78.0148 62.2458C77.7741 61.9103 77.4349 61.7425 76.9972 61.7425C76.5595 61.7425 76.2167 61.9103 75.9686 62.2458C75.7279 62.5741 75.6076 63.0227 75.6076 63.5917C75.6076 64.168 75.7279 64.6239 75.9686 64.9594C76.2167 65.295 76.5595 65.4628 76.9972 65.4628C77.4349 65.4628 77.7741 65.295 78.0148 64.9594C78.2628 64.6239 78.3868 64.168 78.3868 63.5917ZM82.1471 63.4495C82.1471 64.0111 82.2675 64.4233 82.5082 64.6859C82.7562 64.9412 83.0735 65.0689 83.4601 65.0689C83.6717 65.0689 83.8686 65.0397 84.051 64.9813C84.2407 64.923 84.3939 64.8537 84.5106 64.7734V61.8082C84.4157 61.7863 84.299 61.768 84.1604 61.7534C84.0218 61.7316 83.8468 61.7206 83.6352 61.7206C83.1538 61.7206 82.7854 61.8811 82.5301 62.2021C82.2748 62.5157 82.1471 62.9315 82.1471 63.4495ZM85.8345 65.8786C85.8345 66.7904 85.6011 67.4579 85.1343 67.881C84.6747 68.304 83.9671 68.5156 83.0115 68.5156C82.6614 68.5156 82.3185 68.4864 81.983 68.4281C81.6547 68.3697 81.3556 68.2931 81.0857 68.1983L81.3265 67.0712C81.5526 67.1661 81.8079 67.2427 82.0924 67.301C82.3842 67.3594 82.6978 67.3886 83.0334 67.3886C83.5659 67.3886 83.9452 67.2791 84.1714 67.0603C84.3975 66.8415 84.5106 66.5169 84.5106 66.0865V65.8676C84.3793 65.9333 84.2042 65.9989 83.9854 66.0646C83.7738 66.1302 83.5294 66.1631 83.2522 66.1631C82.8875 66.1631 82.552 66.1047 82.2456 65.988C81.9465 65.8713 81.6875 65.6999 81.4687 65.4737C81.2572 65.2476 81.0894 64.9667 80.9654 64.6312C80.8487 64.2883 80.7903 63.8944 80.7903 63.4495C80.7903 63.0337 80.8523 62.6507 80.9763 62.3005C81.1076 61.9504 81.2936 61.6513 81.5344 61.4033C81.7824 61.1553 82.0815 60.962 82.4316 60.8234C82.7817 60.6848 83.1793 60.6155 83.6243 60.6155C84.0547 60.6155 84.4632 60.6483 84.8498 60.714C85.2364 60.7796 85.5646 60.8489 85.8345 60.9219V65.8786ZM89.5323 65.5284C89.9408 65.5284 90.2508 65.5065 90.4623 65.4628V63.9966C90.3894 63.9747 90.2836 63.9528 90.145 63.9309C90.0064 63.909 89.8532 63.8981 89.6854 63.8981C89.5395 63.8981 89.39 63.909 89.2368 63.9309C89.0909 63.9528 88.956 63.9929 88.832 64.0513C88.7153 64.1096 88.6204 64.1935 88.5475 64.3029C88.4745 64.4051 88.4381 64.5364 88.4381 64.6968C88.4381 65.0105 88.5365 65.2293 88.7335 65.3534C88.9304 65.4701 89.1967 65.5284 89.5323 65.5284ZM89.4228 60.5936C89.8605 60.5936 90.2289 60.6483 90.528 60.7577C90.8271 60.8671 91.0641 61.0203 91.2392 61.2173C91.4216 61.4142 91.5492 61.655 91.6222 61.9395C91.7024 62.2167 91.7425 62.523 91.7425 62.8586V66.3272C91.5383 66.371 91.2283 66.422 90.8125 66.4804C90.404 66.546 89.9408 66.5789 89.4228 66.5789C89.08 66.5789 88.7663 66.546 88.4818 66.4804C88.1973 66.4147 87.953 66.309 87.7487 66.1631C87.5518 66.0172 87.3949 65.8275 87.2782 65.5941C87.1688 65.3607 87.1141 65.0725 87.1141 64.7297C87.1141 64.4014 87.1761 64.1242 87.3001 63.8981C87.4314 63.6719 87.6065 63.4896 87.8253 63.351C88.0441 63.2051 88.2958 63.103 88.5803 63.0446C88.8721 62.9789 89.1748 62.9461 89.4885 62.9461C89.6344 62.9461 89.7876 62.9571 89.948 62.9789C90.1085 62.9935 90.28 63.0227 90.4623 63.0665V62.8476C90.4623 62.6945 90.4441 62.5486 90.4076 62.41C90.3711 62.2714 90.3055 62.151 90.2107 62.0489C90.1231 61.9395 90.0028 61.8556 89.8496 61.7972C89.7037 61.7389 89.5177 61.7097 89.2915 61.7097C88.9852 61.7097 88.7043 61.7316 88.449 61.7753C88.1937 61.8191 87.9858 61.8702 87.8253 61.9285L87.6612 60.8562C87.829 60.7978 88.0733 60.7395 88.3943 60.6811C88.7153 60.6228 89.0581 60.5936 89.4228 60.5936ZM93.3639 60.9219C93.6192 60.8489 93.9511 60.7796 94.3596 60.714C94.7681 60.6483 95.2204 60.6155 95.7164 60.6155C96.1833 60.6155 96.5736 60.6811 96.8872 60.8124C97.2009 60.9364 97.4489 61.1152 97.6313 61.3486C97.8209 61.5747 97.9522 61.8519 98.0252 62.1802C98.1054 62.5011 98.1456 62.8549 98.1456 63.2416V66.4585H96.8216V63.4495C96.8216 63.1431 96.7997 62.8841 96.7559 62.6726C96.7194 62.4537 96.6538 62.2787 96.559 62.1474C96.4714 62.0088 96.3474 61.9103 96.1869 61.8519C96.0338 61.7863 95.8441 61.7534 95.618 61.7534C95.4502 61.7534 95.2751 61.7644 95.0927 61.7863C94.9104 61.8082 94.7754 61.8264 94.6879 61.841V66.4585H93.3639V60.9219ZM102.318 66.4585V58.1864L103.642 57.9675V60.8015C103.788 60.7504 103.956 60.7067 104.146 60.6702C104.343 60.6337 104.536 60.6155 104.726 60.6155C105.185 60.6155 105.564 60.6811 105.864 60.8124C106.17 60.9364 106.414 61.1152 106.597 61.3486C106.779 61.5747 106.907 61.8483 106.98 62.1692C107.06 62.4902 107.1 62.8476 107.1 63.2416V66.4585H105.776V63.4495C105.776 63.1431 105.754 62.8841 105.71 62.6726C105.674 62.4537 105.608 62.2787 105.513 62.1474C105.426 62.0088 105.306 61.9103 105.152 61.8519C104.999 61.7863 104.81 61.7534 104.583 61.7534C104.408 61.7534 104.23 61.7717 104.047 61.8082C103.865 61.8446 103.73 61.8775 103.642 61.9066V66.4585H102.318ZM108.37 63.6245C108.37 63.1212 108.443 62.6799 108.588 62.3005C108.742 61.9212 108.942 61.6076 109.19 61.3595C109.438 61.1042 109.723 60.9146 110.044 60.7906C110.365 60.6592 110.693 60.5936 111.029 60.5936C111.816 60.5936 112.429 60.838 112.867 61.3267C113.312 61.8155 113.534 62.5449 113.534 63.5151C113.534 63.5881 113.531 63.6719 113.523 63.7668C113.523 63.8543 113.52 63.9345 113.512 64.0075H109.737C109.774 64.4671 109.934 64.8245 110.219 65.0798C110.511 65.3278 110.93 65.4518 111.477 65.4518C111.798 65.4518 112.09 65.4227 112.353 65.3643C112.622 65.3059 112.834 65.2439 112.987 65.1783L113.162 66.2615C113.089 66.298 112.987 66.3381 112.856 66.3819C112.732 66.4184 112.586 66.4512 112.418 66.4804C112.258 66.5169 112.083 66.546 111.893 66.5679C111.703 66.5898 111.51 66.6007 111.313 66.6007C110.81 66.6007 110.372 66.5278 110 66.3819C109.628 66.2287 109.322 66.0208 109.081 65.7582C108.84 65.4883 108.661 65.1746 108.545 64.8172C108.428 64.4525 108.37 64.0549 108.37 63.6245ZM112.21 63.0337C112.21 62.8513 112.185 62.6799 112.134 62.5194C112.083 62.3516 112.006 62.2094 111.904 62.0926C111.809 61.9686 111.689 61.8738 111.543 61.8082C111.404 61.7352 111.236 61.6987 111.039 61.6987C110.835 61.6987 110.657 61.7389 110.503 61.8191C110.35 61.892 110.219 61.9905 110.109 62.1145C110.007 62.2385 109.927 62.3808 109.869 62.5413C109.81 62.7018 109.77 62.8659 109.748 63.0337H112.21ZM118.199 61.9285C118.089 61.892 117.936 61.8556 117.739 61.8191C117.549 61.7753 117.327 61.7534 117.072 61.7534C116.926 61.7534 116.769 61.768 116.601 61.7972C116.441 61.8264 116.328 61.8519 116.262 61.8738V66.4585H114.938V61.0094C115.193 60.9146 115.511 60.827 115.89 60.7468C116.277 60.6592 116.703 60.6155 117.17 60.6155C117.258 60.6155 117.36 60.6228 117.477 60.6374C117.593 60.6447 117.71 60.6592 117.827 60.6811C117.943 60.6957 118.056 60.7176 118.166 60.7468C118.275 60.7687 118.363 60.7906 118.428 60.8124L118.199 61.9285ZM119.034 63.6245C119.034 63.1212 119.107 62.6799 119.253 62.3005C119.406 61.9212 119.606 61.6076 119.854 61.3595C120.102 61.1042 120.387 60.9146 120.708 60.7906C121.029 60.6592 121.357 60.5936 121.693 60.5936C122.481 60.5936 123.093 60.838 123.531 61.3267C123.976 61.8155 124.198 62.5449 124.198 63.5151C124.198 63.5881 124.195 63.6719 124.187 63.7668C124.187 63.8543 124.184 63.9345 124.177 64.0075H120.402C120.438 64.4671 120.598 64.8245 120.883 65.0798C121.175 65.3278 121.594 65.4518 122.141 65.4518C122.462 65.4518 122.754 65.4227 123.017 65.3643C123.287 65.3059 123.498 65.2439 123.651 65.1783L123.826 66.2615C123.753 66.298 123.651 66.3381 123.52 66.3819C123.396 66.4184 123.25 66.4512 123.082 66.4804C122.922 66.5169 122.747 66.546 122.557 66.5679C122.367 66.5898 122.174 66.6007 121.977 66.6007C121.474 66.6007 121.036 66.5278 120.664 66.3819C120.292 66.2287 119.986 66.0208 119.745 65.7582C119.504 65.4883 119.326 65.1746 119.209 64.8172C119.092 64.4525 119.034 64.0549 119.034 63.6245ZM122.874 63.0337C122.874 62.8513 122.849 62.6799 122.798 62.5194C122.747 62.3516 122.67 62.2094 122.568 62.0926C122.473 61.9686 122.353 61.8738 122.207 61.8082C122.068 61.7352 121.901 61.6987 121.704 61.6987C121.499 61.6987 121.321 61.7389 121.167 61.8191C121.014 61.892 120.883 61.9905 120.774 62.1145C120.671 62.2385 120.591 62.3808 120.533 62.5413C120.474 62.7018 120.434 62.8659 120.412 63.0337H122.874Z" fill="#5E5E5E"/>
<path d="M80.6209 31.625V35.0159H75.2924V49.2935H71.315V35.0159H65.9865V31.625H80.6209ZM89.2364 39.2482C88.8965 39.1632 88.4971 39.0782 88.0381 38.9933C87.5792 38.8913 87.0863 38.8403 86.5594 38.8403C86.3214 38.8403 86.0325 38.8658 85.6925 38.9168C85.3696 38.9508 85.1231 38.9933 84.9532 39.0442V49.2935H81.1543V36.5967C81.8342 36.3587 82.6331 36.1377 83.5509 35.9338C84.4858 35.7128 85.5226 35.6023 86.6614 35.6023C86.8653 35.6023 87.1118 35.6193 87.4008 35.6533C87.6897 35.6703 87.9787 35.7043 88.2676 35.7553C88.5565 35.7893 88.8455 35.8403 89.1344 35.9083C89.4234 35.9593 89.6699 36.0273 89.8738 36.1123L89.2364 39.2482ZM96.7859 46.6419C97.1598 46.6419 97.5168 46.6334 97.8567 46.6164C98.1967 46.5994 98.4686 46.5739 98.6726 46.5399V43.6589C98.5196 43.6249 98.2901 43.591 97.9842 43.557C97.6782 43.523 97.3978 43.506 97.1428 43.506C96.7859 43.506 96.446 43.5315 96.123 43.5825C95.8171 43.6164 95.5451 43.6929 95.3072 43.8119C95.0692 43.9309 94.8822 44.0924 94.7463 44.2963C94.6103 44.5003 94.5423 44.7552 94.5423 45.0612C94.5423 45.6561 94.7378 46.0725 95.1287 46.3105C95.5366 46.5314 96.089 46.6419 96.7859 46.6419ZM96.48 35.5259C97.6018 35.5259 98.5366 35.6533 99.2845 35.9083C100.032 36.1632 100.627 36.5287 101.069 37.0046C101.528 37.4805 101.851 38.0584 102.038 38.7383C102.225 39.4182 102.318 40.1745 102.318 41.0074V48.911C101.775 49.03 101.018 49.166 100.049 49.319C99.0805 49.4889 97.9077 49.5739 96.5309 49.5739C95.6641 49.5739 94.8737 49.4974 94.1599 49.3444C93.463 49.1915 92.8596 48.945 92.3497 48.6051C91.8398 48.2481 91.4488 47.7892 91.1769 47.2283C90.9049 46.6674 90.769 45.979 90.769 45.1632C90.769 44.3813 90.9219 43.7184 91.2279 43.1745C91.5508 42.6306 91.9757 42.1972 92.5027 41.8742C93.0296 41.5513 93.633 41.3218 94.3128 41.1859C94.9927 41.0329 95.6981 40.9564 96.429 40.9564C96.9219 40.9564 97.3553 40.9819 97.7292 41.0329C98.1202 41.0669 98.4346 41.1179 98.6726 41.1859V40.8289C98.6726 40.183 98.4771 39.6646 98.0862 39.2737C97.6952 38.8828 97.0154 38.6873 96.0465 38.6873C95.4006 38.6873 94.7633 38.7383 94.1344 38.8403C93.5055 38.9253 92.9616 39.0527 92.5027 39.2227L92.0182 36.1632C92.2392 36.0953 92.5111 36.0273 92.8341 35.9593C93.174 35.8743 93.5395 35.8063 93.9304 35.7553C94.3213 35.6873 94.7293 35.6363 95.1542 35.6023C95.5961 35.5514 96.038 35.5259 96.48 35.5259ZM109.076 49.2935C108.209 47.5938 107.325 45.6051 106.424 43.3275C105.54 41.0499 104.699 38.5683 103.9 35.8828H107.928C108.098 36.5457 108.294 37.2681 108.515 38.0499C108.753 38.8148 108.991 39.5966 109.229 40.3955C109.484 41.1774 109.73 41.9422 109.968 42.6901C110.223 43.438 110.47 44.1179 110.707 44.7298C110.928 44.1179 111.166 43.438 111.421 42.6901C111.676 41.9422 111.923 41.1774 112.161 40.3955C112.416 39.5966 112.654 38.8148 112.875 38.0499C113.113 37.2681 113.317 36.5457 113.486 35.8828H117.413C116.614 38.5683 115.764 41.0499 114.863 43.3275C113.979 45.6051 113.104 47.5938 112.237 49.2935H109.076ZM118.462 42.6901C118.462 41.5003 118.64 40.4635 118.997 39.5796C119.371 38.6788 119.855 37.9309 120.45 37.336C121.045 36.7411 121.725 36.2907 122.49 35.9848C123.272 35.6788 124.071 35.5259 124.886 35.5259C126.79 35.5259 128.294 36.1123 129.399 37.285C130.504 38.4408 131.056 40.149 131.056 42.4097C131.056 42.6306 131.048 42.8771 131.031 43.149C131.014 43.404 130.997 43.6334 130.98 43.8374H122.362C122.447 44.6193 122.813 45.2397 123.459 45.6986C124.105 46.1575 124.971 46.387 126.059 46.387C126.756 46.387 127.436 46.3275 128.099 46.2085C128.779 46.0725 129.331 45.911 129.756 45.7241L130.266 48.809C130.062 48.911 129.79 49.013 129.45 49.115C129.11 49.217 128.728 49.302 128.303 49.3699C127.895 49.4549 127.453 49.5229 126.977 49.5739C126.501 49.6249 126.025 49.6504 125.549 49.6504C124.342 49.6504 123.289 49.4719 122.388 49.115C121.504 48.7581 120.765 48.2736 120.17 47.6617C119.592 47.0329 119.158 46.2935 118.869 45.4436C118.597 44.5938 118.462 43.6759 118.462 42.6901ZM127.385 41.2369C127.368 40.9139 127.308 40.5995 127.206 40.2935C127.122 39.9876 126.977 39.7156 126.773 39.4777C126.586 39.2397 126.34 39.0442 126.034 38.8913C125.745 38.7383 125.379 38.6618 124.937 38.6618C124.512 38.6618 124.147 38.7383 123.841 38.8913C123.535 39.0272 123.28 39.2142 123.076 39.4522C122.872 39.6901 122.711 39.9706 122.592 40.2935C122.49 40.5995 122.413 40.9139 122.362 41.2369H127.385ZM139.342 49.5484C138.237 49.5314 137.336 49.4124 136.639 49.1915C135.96 48.9705 135.416 48.6646 135.008 48.2736C134.617 47.8657 134.345 47.3813 134.192 46.8204C134.056 46.2425 133.988 45.5966 133.988 44.8827V30.1208L137.787 29.5089V44.1179C137.787 44.4578 137.812 44.7637 137.863 45.0357C137.914 45.3077 138.008 45.5371 138.144 45.7241C138.297 45.911 138.509 46.064 138.781 46.183C139.053 46.302 139.418 46.3785 139.877 46.4125L139.342 49.5484Z" fill="#0071BC"/>
<path d="M146.287 46.0555C146.474 46.0725 146.687 46.0895 146.925 46.1065C147.179 46.1065 147.477 46.1065 147.817 46.1065C149.806 46.1065 151.276 45.6051 152.228 44.6023C153.196 43.5994 153.681 42.2142 153.681 40.4465C153.681 38.5938 153.222 37.1916 152.304 36.2397C151.386 35.2879 149.933 34.812 147.944 34.812C147.672 34.812 147.392 34.8205 147.103 34.8375C146.814 34.8375 146.542 34.8545 146.287 34.8885V46.0555ZM157.786 40.4465C157.786 41.9762 157.548 43.3105 157.072 44.4493C156.596 45.5881 155.916 46.5314 155.032 47.2793C154.165 48.0272 153.103 48.5881 151.845 48.962C150.587 49.3359 149.177 49.5229 147.613 49.5229C146.899 49.5229 146.066 49.4889 145.114 49.4209C144.162 49.3699 143.228 49.251 142.31 49.064V31.8545C143.228 31.6845 144.179 31.574 145.165 31.5231C146.168 31.4551 147.026 31.4211 147.74 31.4211C149.253 31.4211 150.621 31.591 151.845 31.931C153.086 32.2709 154.148 32.8063 155.032 33.5372C155.916 34.2681 156.596 35.2029 157.072 36.3417C157.548 37.4805 157.786 38.8488 157.786 40.4465ZM160.215 42.6901C160.215 41.5003 160.394 40.4635 160.751 39.5796C161.125 38.6788 161.609 37.9309 162.204 37.336C162.799 36.7411 163.479 36.2907 164.244 35.9848C165.026 35.6788 165.824 35.5259 166.64 35.5259C168.544 35.5259 170.048 36.1123 171.153 37.285C172.258 38.4408 172.81 40.149 172.81 42.4097C172.81 42.6306 172.802 42.8771 172.785 43.149C172.768 43.404 172.751 43.6334 172.734 43.8374H164.116C164.201 44.6193 164.567 45.2397 165.213 45.6986C165.858 46.1575 166.725 46.387 167.813 46.387C168.51 46.387 169.19 46.3275 169.853 46.2085C170.533 46.0725 171.085 45.911 171.51 45.7241L172.02 48.809C171.816 48.911 171.544 49.013 171.204 49.115C170.864 49.217 170.482 49.302 170.057 49.3699C169.649 49.4549 169.207 49.5229 168.731 49.5739C168.255 49.6249 167.779 49.6504 167.303 49.6504C166.096 49.6504 165.043 49.4719 164.142 49.115C163.258 48.7581 162.519 48.2736 161.924 47.6617C161.346 47.0329 160.912 46.2935 160.623 45.4436C160.351 44.5938 160.215 43.6759 160.215 42.6901ZM169.139 41.2369C169.122 40.9139 169.062 40.5995 168.96 40.2935C168.875 39.9876 168.731 39.7156 168.527 39.4777C168.34 39.2397 168.094 39.0442 167.788 38.8913C167.499 38.7383 167.133 38.6618 166.691 38.6618C166.266 38.6618 165.901 38.7383 165.595 38.8913C165.289 39.0272 165.034 39.2142 164.83 39.4522C164.626 39.6901 164.465 39.9706 164.346 40.2935C164.244 40.5995 164.167 40.9139 164.116 41.2369H169.139ZM179.592 46.5654C180.289 46.5654 180.781 46.4974 181.07 46.3615C181.359 46.2255 181.504 45.962 181.504 45.5711C181.504 45.2652 181.317 45.0017 180.943 44.7807C180.569 44.5428 180 44.2793 179.235 43.9904C178.64 43.7694 178.096 43.54 177.603 43.302C177.127 43.064 176.719 42.7836 176.379 42.4606C176.039 42.1207 175.776 41.7213 175.589 41.2624C175.402 40.8034 175.308 40.251 175.308 39.6051C175.308 38.3474 175.776 37.353 176.711 36.6222C177.646 35.8913 178.929 35.5259 180.561 35.5259C181.376 35.5259 182.158 35.6023 182.906 35.7553C183.654 35.8913 184.249 36.0443 184.691 36.2142L184.028 39.1717C183.586 39.0187 183.102 38.8828 182.575 38.7638C182.065 38.6448 181.487 38.5853 180.841 38.5853C179.651 38.5853 179.056 38.9168 179.056 39.5796C179.056 39.7326 179.082 39.8686 179.133 39.9876C179.184 40.1066 179.286 40.2255 179.439 40.3445C179.592 40.4465 179.796 40.5655 180.051 40.7015C180.323 40.8204 180.663 40.9564 181.07 41.1094C181.903 41.4153 182.592 41.7213 183.136 42.0272C183.679 42.3162 184.104 42.6391 184.41 42.9961C184.733 43.336 184.954 43.7184 185.073 44.1434C185.209 44.5683 185.277 45.0612 185.277 45.6221C185.277 46.9479 184.776 47.9507 183.773 48.6306C182.787 49.3105 181.385 49.6504 179.566 49.6504C178.376 49.6504 177.382 49.5484 176.583 49.3444C175.801 49.1405 175.257 48.9705 174.952 48.8345L175.589 45.7496C176.235 46.0045 176.898 46.2085 177.578 46.3615C178.257 46.4974 178.929 46.5654 179.592 46.5654ZM187.989 32.5429L191.788 31.931V35.8828H196.351V39.0442H191.788V43.7609C191.788 44.5598 191.924 45.1972 192.195 45.6731C192.484 46.149 193.054 46.387 193.904 46.387C194.312 46.387 194.728 46.353 195.153 46.285C195.595 46.2 195.994 46.0895 196.351 45.9535L196.887 48.911C196.428 49.098 195.918 49.2595 195.357 49.3954C194.796 49.5314 194.108 49.5994 193.292 49.5994C192.255 49.5994 191.397 49.4634 190.717 49.1915C190.037 48.9025 189.493 48.5116 189.085 48.0187C188.677 47.5088 188.388 46.8969 188.218 46.183C188.065 45.4691 187.989 44.6788 187.989 43.8119V32.5429ZM203.244 49.2935H199.445V35.8828H203.244V49.2935ZM203.601 32.0075C203.601 32.7043 203.371 33.2568 202.912 33.6647C202.47 34.0556 201.943 34.2511 201.331 34.2511C200.72 34.2511 200.184 34.0556 199.725 33.6647C199.283 33.2568 199.062 32.7043 199.062 32.0075C199.062 31.3106 199.283 30.7667 199.725 30.3758C200.184 29.9678 200.72 29.7639 201.331 29.7639C201.943 29.7639 202.47 29.9678 202.912 30.3758C203.371 30.7667 203.601 31.3106 203.601 32.0075ZM206.815 36.3417C207.46 36.1547 208.293 35.9848 209.313 35.8318C210.333 35.6618 211.404 35.5768 212.526 35.5768C213.664 35.5768 214.608 35.7298 215.356 36.0358C216.12 36.3247 216.724 36.7411 217.166 37.285C217.608 37.829 217.922 38.4748 218.109 39.2227C218.296 39.9706 218.39 40.8034 218.39 41.7213V49.2935H214.591V42.1802C214.591 40.9564 214.429 40.0896 214.106 39.5796C213.783 39.0697 213.18 38.8148 212.296 38.8148C212.024 38.8148 211.735 38.8318 211.429 38.8658C211.123 38.8828 210.851 38.9083 210.613 38.9423V49.2935H206.815V36.3417ZM226.953 46.6419C227.327 46.6419 227.684 46.6334 228.023 46.6164C228.363 46.5994 228.635 46.5739 228.839 46.5399V43.6589C228.686 43.6249 228.457 43.591 228.151 43.557C227.845 43.523 227.565 43.506 227.31 43.506C226.953 43.506 226.613 43.5315 226.29 43.5825C225.984 43.6164 225.712 43.6929 225.474 43.8119C225.236 43.9309 225.049 44.0924 224.913 44.2963C224.777 44.5003 224.709 44.7552 224.709 45.0612C224.709 45.6561 224.905 46.0725 225.295 46.3105C225.703 46.5314 226.256 46.6419 226.953 46.6419ZM226.647 35.5259C227.769 35.5259 228.703 35.6533 229.451 35.9083C230.199 36.1632 230.794 36.5287 231.236 37.0046C231.695 37.4805 232.018 38.0584 232.205 38.7383C232.392 39.4182 232.485 40.1745 232.485 41.0074V48.911C231.941 49.03 231.185 49.166 230.216 49.319C229.247 49.4889 228.074 49.5739 226.698 49.5739C225.831 49.5739 225.041 49.4974 224.327 49.3444C223.63 49.1915 223.026 48.945 222.516 48.6051C222.007 48.2481 221.616 47.7892 221.344 47.2283C221.072 46.6674 220.936 45.979 220.936 45.1632C220.936 44.3813 221.089 43.7184 221.395 43.1745C221.718 42.6306 222.143 42.1972 222.669 41.8742C223.196 41.5513 223.8 41.3218 224.48 41.1859C225.159 41.0329 225.865 40.9564 226.596 40.9564C227.089 40.9564 227.522 40.9819 227.896 41.0329C228.287 41.0669 228.601 41.1179 228.839 41.1859V40.8289C228.839 40.183 228.644 39.6646 228.253 39.2737C227.862 38.8828 227.182 38.6873 226.213 38.6873C225.567 38.6873 224.93 38.7383 224.301 38.8403C223.672 38.9253 223.128 39.0527 222.669 39.2227L222.185 36.1632C222.406 36.0953 222.678 36.0273 223.001 35.9593C223.341 35.8743 223.706 35.8063 224.097 35.7553C224.488 35.6873 224.896 35.6363 225.321 35.6023C225.763 35.5514 226.205 35.5259 226.647 35.5259ZM235.793 32.5429L239.592 31.931V35.8828H244.155V39.0442H239.592V43.7609C239.592 44.5598 239.728 45.1972 240 45.6731C240.289 46.149 240.858 46.387 241.708 46.387C242.116 46.387 242.532 46.353 242.957 46.285C243.399 46.2 243.798 46.0895 244.155 45.9535L244.691 48.911C244.232 49.098 243.722 49.2595 243.161 49.3954C242.6 49.5314 241.912 49.5994 241.096 49.5994C240.059 49.5994 239.201 49.4634 238.521 49.1915C237.841 48.9025 237.297 48.5116 236.889 48.0187C236.481 47.5088 236.192 46.8969 236.022 46.183C235.869 45.4691 235.793 44.6788 235.793 43.8119V32.5429ZM251.048 49.2935H247.249V35.8828H251.048V49.2935ZM251.405 32.0075C251.405 32.7043 251.175 33.2568 250.716 33.6647C250.274 34.0556 249.748 34.2511 249.136 34.2511C248.524 34.2511 247.988 34.0556 247.529 33.6647C247.087 33.2568 246.867 32.7043 246.867 32.0075C246.867 31.3106 247.087 30.7667 247.529 30.3758C247.988 29.9678 248.524 29.7639 249.136 29.7639C249.748 29.7639 250.274 29.9678 250.716 30.3758C251.175 30.7667 251.405 31.3106 251.405 32.0075ZM267.163 42.5626C267.163 43.6164 267.01 44.5853 266.704 45.4691C266.398 46.336 265.956 47.0838 265.378 47.7127C264.8 48.3246 264.103 48.8005 263.287 49.1405C262.488 49.4804 261.588 49.6504 260.585 49.6504C259.599 49.6504 258.698 49.4804 257.882 49.1405C257.083 48.8005 256.395 48.3246 255.817 47.7127C255.239 47.0838 254.789 46.336 254.466 45.4691C254.143 44.5853 253.981 43.6164 253.981 42.5626C253.981 41.5088 254.143 40.5485 254.466 39.6816C254.806 38.8148 255.265 38.0754 255.843 37.4635C256.437 36.8516 257.134 36.3757 257.933 36.0358C258.749 35.6958 259.633 35.5259 260.585 35.5259C261.554 35.5259 262.437 35.6958 263.236 36.0358C264.052 36.3757 264.749 36.8516 265.327 37.4635C265.905 38.0754 266.355 38.8148 266.678 39.6816C267.001 40.5485 267.163 41.5088 267.163 42.5626ZM263.287 42.5626C263.287 41.3898 263.049 40.472 262.573 39.8091C262.114 39.1292 261.452 38.7893 260.585 38.7893C259.718 38.7893 259.046 39.1292 258.571 39.8091C258.095 40.472 257.857 41.3898 257.857 42.5626C257.857 43.7354 258.095 44.6703 258.571 45.3671C259.046 46.047 259.718 46.387 260.585 46.387C261.452 46.387 262.114 46.047 262.573 45.3671C263.049 44.6703 263.287 43.7354 263.287 42.5626ZM270.105 36.3417C270.751 36.1547 271.584 35.9848 272.604 35.8318C273.624 35.6618 274.695 35.5768 275.816 35.5768C276.955 35.5768 277.898 35.7298 278.646 36.0358C279.411 36.3247 280.015 36.7411 280.457 37.285C280.898 37.829 281.213 38.4748 281.4 39.2227C281.587 39.9706 281.68 40.8034 281.68 41.7213V49.2935H277.881V42.1802C277.881 40.9564 277.72 40.0896 277.397 39.5796C277.074 39.0697 276.471 38.8148 275.587 38.8148C275.315 38.8148 275.026 38.8318 274.72 38.8658C274.414 38.8828 274.142 38.9083 273.904 38.9423V49.2935H270.105V36.3417Z" fill="#29ABE2"/>
<defs>
<linearGradient id="paint0_linear_113_4604" x1="28.5353" y1="59.5284" x2="56.3099" y2="22.9608" gradientUnits="userSpaceOnUse">
<stop stop-color="#0B8CD3"/>
<stop offset="1" stop-color="#0051BC"/>
</linearGradient>
<linearGradient id="paint1_linear_113_4604" x1="41.5168" y1="18.7501" x2="43.9163" y2="23.4445" gradientUnits="userSpaceOnUse">
<stop stop-color="#0071BC"/>
<stop offset="1" stop-color="#0051BC"/>
</linearGradient>
<linearGradient id="paint2_linear_113_4604" x1="26.5133" y1="15.2243" x2="35.8176" y2="-0.71457" gradientUnits="userSpaceOnUse">
<stop stop-color="#0071BC"/>
<stop offset="1" stop-color="#0051BC"/>
</linearGradient>
<linearGradient id="paint3_linear_113_4604" x1="9.02539" y1="36.0977" x2="12.0667" y2="40.6057" gradientUnits="userSpaceOnUse">
<stop stop-color="#0071BC"/>
<stop offset="1" stop-color="#0051BC"/>
</linearGradient>
</defs>
</svg>
