<svg width="80" height="80" viewBox="0 0 80 80" fill="none" xmlns="http://www.w3.org/2000/svg">
<g clip-path="url(#clip0_50_1621)">
<path d="M57.2504 67.5878C57.7465 67.1758 58.4816 67.2378 58.898 67.7341C59.3143 68.23 59.2479 68.9697 58.7518 69.3817L56.6521 71.1402L57.5469 76.0877C57.6133 76.4641 57.4938 76.8495 57.2237 77.1242L54.6901 79.658C54.234 80.1141 53.4898 80.1141 53.0335 79.658C52.9229 79.5472 52.8387 79.423 52.7812 79.2856L49.5876 73.3281L43.5369 70.0816C42.846 69.7138 42.7087 68.7705 43.2579 68.2258L45.7915 65.6877C46.1015 65.382 46.5401 65.2803 46.9299 65.3864L51.7755 66.2635L58.1804 58.6005L55.9879 57.4844C53.5784 59.5084 50.8232 61.1341 47.8334 62.2727C44.7018 63.4595 41.309 64.1108 37.7698 64.1108C29.9298 64.1108 22.834 60.9349 17.7004 55.8011C12.5623 50.6631 9.38632 43.5674 9.38632 35.7319C9.38632 28.1753 12.3584 20.9999 17.7004 15.6624C22.834 10.5244 29.9298 7.34861 37.7698 7.34861C45.6054 7.34861 52.7012 10.5244 57.8393 15.6624C63.1943 21.0175 66.1488 28.202 66.1488 35.7319C66.1488 38.6375 65.7104 41.45 64.8909 44.1033C64.2265 46.2516 63.314 48.3067 62.1624 50.2381L65.6749 50.9114L70.3302 46.2605C71.1983 45.388 72.3455 44.9538 73.4927 44.9538C74.6399 44.9538 75.7827 45.388 76.6552 46.2605C77.5279 47.1286 77.9619 48.2758 77.9619 49.4228C77.9619 50.5658 77.5279 51.713 76.6552 52.5855L72.0001 57.2409L74.6754 71.1978C74.7463 71.5788 74.6312 71.9731 74.3563 72.2477L71.3708 75.2284C70.9148 75.6847 70.1705 75.6847 69.7143 75.2284C69.6124 75.1267 69.5327 75.0114 69.4794 74.8875L64.3149 64.7308L62.8223 65.98C62.3262 66.3919 61.5908 66.3255 61.1744 65.8338C60.7626 65.3377 60.8246 64.5978 61.3207 64.1816L63.8985 62.0291C64.4655 61.5108 65.3824 61.6656 65.7368 62.3613L70.8571 72.4292L72.2612 71.0252L69.5991 57.1392C69.5018 56.7494 69.6035 56.3241 69.9048 56.0186L74.9987 50.9292C75.4105 50.5172 75.6188 49.968 75.6188 49.423C75.6188 48.8741 75.4107 48.3291 74.9987 47.9172C74.5868 47.5052 74.0374 47.2969 73.4927 47.2969C72.9433 47.2969 72.3987 47.5052 71.9868 47.9172L66.8929 53.0064C66.6316 53.2722 66.2418 53.4053 65.8477 53.3297L51.8863 50.6544L50.4823 52.0584L60.5104 57.1567C60.9135 57.3383 61.1969 57.7458 61.1969 58.2241C61.1969 58.5341 61.0729 58.8131 60.878 59.0256L53.1355 68.2831C52.8743 68.5931 52.4623 68.757 52.0326 68.6819L47.0187 67.7785L46.0265 68.7706L50.9918 71.4327C51.1912 71.5391 51.3638 71.703 51.4791 71.9153L54.1455 76.8897L55.1377 75.8928L54.2474 70.9631C54.1412 70.5422 54.2741 70.077 54.6327 69.7758L57.2504 67.5878ZM38.3149 2.33439C37.6726 2.33002 37.1544 1.79846 37.1632 1.15627C37.1721 0.509549 37.6991 -0.00873213 38.3459 0.000174123C38.9704 0.00908037 39.564 0.0311116 40.1219 0.0709554C40.7201 0.106424 41.3046 0.159549 41.8804 0.225955C42.5227 0.296893 42.9834 0.877205 42.908 1.51939C42.8371 2.16158 42.257 2.62236 41.6146 2.55142C41.061 2.48939 40.5162 2.44064 39.9713 2.40533C39.3912 2.36533 38.8419 2.3433 38.3149 2.33439ZM46.9388 3.61017C46.3143 3.43299 45.9555 2.78627 46.1326 2.16611C46.3098 1.54174 46.9565 1.18283 47.5766 1.36002C48.1348 1.51502 48.6973 1.69221 49.2687 1.88721C49.7959 2.06877 50.3494 2.27236 50.9296 2.50267C51.5276 2.74189 51.8244 3.41955 51.5852 4.01752C51.346 4.61549 50.6684 4.90783 50.0704 4.67299C49.5921 4.48252 49.0738 4.29205 48.5201 4.10189C48.0107 3.92892 47.4837 3.76502 46.9388 3.61017ZM54.9382 7.08283C54.3844 6.75064 54.2029 6.03283 54.5351 5.47924C54.8629 4.92564 55.5804 4.74408 56.134 5.07611C56.6433 5.38189 57.1394 5.69627 57.6312 6.02392C58.1227 6.35642 58.6057 6.69736 59.0752 7.04736C59.5933 7.4283 59.7041 8.16346 59.3187 8.68158C58.9334 9.19986 58.2026 9.30627 57.6843 8.9208C57.2415 8.59299 56.7894 8.27408 56.3288 7.96845C55.8729 7.66299 55.4077 7.36627 54.9382 7.08283ZM61.7638 12.5042C61.3165 12.0436 61.3254 11.3038 61.7904 10.8522C62.251 10.4003 62.9909 10.4136 63.4426 10.8742C63.8457 11.2906 64.2443 11.7247 64.643 12.1766C65.0462 12.6374 65.4226 13.0891 65.7769 13.5364C66.1801 14.0413 66.0958 14.7766 65.5909 15.1797C65.0815 15.5785 64.3463 15.4986 63.9476 14.9891C63.5888 14.5374 63.2344 14.1122 62.8846 13.718C62.5257 13.3105 62.1537 12.9074 61.7638 12.5042ZM66.964 19.4983C66.6494 18.9358 66.8534 18.227 67.4202 17.9125C67.9827 17.5981 68.6915 17.8017 69.006 18.3645C69.2983 18.8916 69.5729 19.4097 69.8298 19.9281C70.0733 20.4286 70.3215 20.9689 70.5694 21.5403C70.8265 22.1339 70.5562 22.8203 69.9626 23.0774C69.3691 23.3297 68.6826 23.0597 68.4301 22.4661C68.2218 21.9877 67.9871 21.4872 67.7302 20.9647C67.4821 20.455 67.2252 19.9677 66.964 19.4983ZM70.1665 27.6041C70.0115 26.9795 70.3968 26.346 71.0213 26.191C71.6504 26.0361 72.2837 26.4213 72.4387 27.0461C72.5849 27.6352 72.7132 28.2064 72.824 28.7645C72.9348 29.3405 73.0366 29.9252 73.1207 30.5142C73.2182 31.1563 72.7752 31.7499 72.133 31.843C71.4951 31.936 70.9016 31.493 70.8041 30.8552C70.7244 30.306 70.6313 29.7613 70.5251 29.2163C70.4144 28.6538 70.2948 28.1178 70.1665 27.6041ZM71.163 36.2767C71.1719 35.6345 71.699 35.1161 72.3457 35.125C72.988 35.1339 73.5062 35.6611 73.4974 36.3077C73.4885 36.9322 73.4665 37.5258 73.431 38.0794C73.3912 38.6819 73.338 39.2666 73.2716 39.8424C73.2007 40.4844 72.6205 40.9453 71.9783 40.8699C71.336 40.7991 70.8754 40.2188 70.9463 39.5766C71.0127 39.023 71.0615 38.4736 71.0969 37.9331C71.1319 37.3528 71.1541 36.7992 71.163 36.2767ZM37.2209 69.1249C37.863 69.1338 38.3813 69.6608 38.3724 70.3074C38.3635 70.9497 37.8365 71.468 37.1898 71.4591C36.5652 71.4502 35.9716 71.4281 35.418 71.3927C34.8155 71.3527 34.2309 71.2995 33.6551 71.233C33.0127 71.1622 32.5521 70.5819 32.6274 69.9395C32.6984 69.2975 33.2785 68.8367 33.9209 68.9078C34.4744 68.9742 35.0238 69.0228 35.5641 69.0583C36.1443 69.0938 36.698 69.116 37.2209 69.1249ZM28.5968 67.8492C29.2213 68.0264 29.5801 68.673 29.403 69.2977C29.2259 69.9178 28.5791 70.2764 27.9591 70.1036C27.401 69.9442 26.8385 69.767 26.2671 69.5724C25.7399 69.3908 25.1863 69.1869 24.6062 68.9566C24.0082 68.7219 23.7115 68.0398 23.9505 67.442C24.1898 66.8439 24.8674 66.5516 25.4654 66.7864C25.9482 66.9769 26.4619 67.1674 27.0201 67.3577C27.5248 67.5302 28.0519 67.6942 28.5968 67.8492ZM20.6018 64.3766C21.1554 64.7088 21.3326 65.4264 21.0004 65.9802C20.6726 66.5338 19.9551 66.7153 19.4015 66.3831C18.8966 66.0777 18.396 65.763 17.9043 65.4353C17.4127 65.1033 16.9298 64.7666 16.4602 64.4164C15.9421 64.0311 15.8313 63.3003 16.2166 62.7822C16.6019 62.2641 17.3329 62.1533 17.851 62.5384C18.2984 62.8706 18.7457 63.1852 19.2065 63.495C19.6627 63.8008 20.1279 64.0931 20.6018 64.3766ZM13.7716 58.9549C14.219 59.4156 14.2101 60.1553 13.7494 60.6072C13.2843 61.0589 12.5446 61.0456 12.0929 60.585C11.6898 60.1688 11.2912 59.7347 10.8969 59.2828C10.4894 58.8222 10.113 58.3703 9.75867 57.923C9.35554 57.418 9.43976 56.6828 9.94914 56.2797C10.4541 55.8809 11.1893 55.965 11.5926 56.4702C11.9513 56.922 12.3055 57.3472 12.651 57.7458C13.0099 58.1489 13.3819 58.5519 13.7716 58.9549ZM8.57164 51.9611C8.88617 52.5238 8.68226 53.2325 8.11976 53.5467C7.55289 53.8614 6.84398 53.6575 6.5296 53.0949C6.23726 52.572 5.96273 52.0497 5.71023 51.5314C5.46226 51.0309 5.21414 50.4905 4.96617 49.9191C4.70929 49.3255 4.98382 48.6391 5.57289 48.3822C6.16648 48.1297 6.85289 48.3999 7.10554 48.9933C7.31382 49.4717 7.54851 49.9766 7.80539 50.495C8.05335 51.0044 8.31023 51.4916 8.57164 51.9611ZM5.36914 43.8553C5.52414 44.48 5.13882 45.1134 4.51429 45.2684C3.88523 45.4234 3.25195 45.038 3.09695 44.4136C2.95086 43.8288 2.82242 43.2528 2.71164 42.6949C2.60086 42.1191 2.49898 41.5344 2.41492 40.9453C2.32195 40.303 2.76492 39.7095 3.40273 39.6166C4.04039 39.5235 4.63851 39.9663 4.73148 40.6041C4.81117 41.1535 4.90414 41.7027 5.01054 42.2477C5.12117 42.8055 5.2407 43.3416 5.36914 43.8553ZM4.37257 35.1827C4.3682 35.8249 3.83664 36.3431 3.19429 36.3342C2.54757 36.3253 2.02929 35.7983 2.0382 35.1516C2.04711 34.5272 2.06929 33.9336 2.10914 33.38C2.14461 32.7777 2.19773 32.1927 2.26414 31.617C2.33507 30.9749 2.91523 30.5142 3.55742 30.5895C4.19976 30.6603 4.66039 31.2406 4.58945 31.8827C4.52742 32.4364 4.47882 32.9856 4.4432 33.5261C4.40367 34.1063 4.38148 34.6599 4.37257 35.1827ZM5.64835 26.5585C5.47117 27.1831 4.82445 27.5419 4.20429 27.3649C3.57976 27.1875 3.22101 26.5408 3.3982 25.9206C3.5532 25.3627 3.73039 24.8002 3.92523 24.2288C4.10679 23.7016 4.3107 23.148 4.54086 22.5678C4.78007 21.9699 5.45773 21.673 6.0557 21.9124C6.65367 22.1514 6.94601 22.8291 6.71117 23.4269C6.5207 23.9099 6.33023 24.4238 6.13976 24.9817C5.96726 25.4867 5.80335 26.0138 5.64835 26.5585ZM9.12085 18.5636C8.78867 19.1174 8.07101 19.2944 7.51742 18.9624C6.96382 18.6345 6.7821 17.9169 7.11445 17.3633C7.42007 16.8585 7.73445 16.358 8.06226 15.8663C8.39445 15.3747 8.73554 14.8917 9.08539 14.4222C9.46632 13.9041 10.2016 13.7935 10.7198 14.1785C11.2379 14.5639 11.3443 15.295 10.959 15.8131C10.6312 16.2603 10.3123 16.7078 10.0066 17.1685C9.70117 17.6247 9.40429 18.0899 9.12085 18.5636ZM14.5424 11.7336C14.0818 12.1811 13.3421 12.1724 12.8902 11.7114C12.4385 11.2463 12.4518 10.5067 12.9124 10.0547C13.3288 9.65189 13.7629 9.25314 14.2146 8.85424C14.6754 8.45127 15.1271 8.07486 15.5744 7.72049C16.0794 7.31736 16.8148 7.40158 17.2177 7.91095C17.6163 8.4158 17.5366 9.15095 17.0273 9.55424C16.5755 9.90877 16.1548 10.263 15.756 10.6128C15.3485 10.9717 14.9455 11.3438 14.5424 11.7336ZM21.5409 6.53345C20.9738 6.84814 20.2652 6.64424 19.9507 6.08158C19.6362 5.51455 19.8399 4.80595 20.4026 4.49142C20.9296 4.19924 21.4479 3.92455 21.9662 3.6722C22.471 3.42408 23.0071 3.1758 23.5784 2.92767C24.1719 2.6708 24.8585 2.94549 25.1154 3.53486C25.3679 4.1283 25.0977 4.8147 24.5041 5.0672C24.0257 5.27549 23.5252 5.51017 23.0026 5.76705C22.4976 6.01517 22.006 6.27205 21.5409 6.53345ZM29.6421 3.33096C29.0176 3.48611 28.3841 3.10049 28.2291 2.47611C28.0741 1.84721 28.4594 1.21392 29.084 1.05892C29.673 0.912674 30.2444 0.784236 30.8026 0.673455C31.3784 0.562674 31.963 0.460955 32.5521 0.37658C33.1943 0.283612 33.7879 0.72658 33.8809 1.36439C33.9738 2.00221 33.531 2.60002 32.893 2.69314C32.3438 2.77283 31.799 2.8658 31.2498 2.9722C30.6918 3.08283 30.1559 3.20252 29.6421 3.33096ZM45.6055 60.5717C45.3443 58.9861 44.4316 57.5242 43.0587 56.3286C41.3401 54.827 38.9084 53.7506 36.1134 53.3386C35.4755 53.2456 35.0326 52.6519 35.1257 52.0142C35.2187 51.3719 35.8123 50.9291 36.4544 51.022C39.6923 51.4958 42.5448 52.7803 44.6001 54.5699C46.2566 56.0138 47.3994 57.7899 47.8291 59.7566C49.9419 58.8706 51.9174 57.7102 53.7069 56.3238L47.9843 53.4138C47.2755 53.0547 47.1249 52.1025 47.6874 51.5402L50.6684 48.5591C50.9696 48.2578 51.3993 48.1561 51.7846 48.2536L59.7043 49.7683C60.5593 48.4394 61.2944 47.0264 61.8969 45.547H47.0054C45.5437 45.547 44.2149 44.9492 43.2537 43.9878C42.2926 43.0267 41.6946 41.698 41.6946 40.2361C41.6946 38.7791 42.2926 37.4502 43.2537 36.4889C44.2149 35.5278 45.5437 34.9297 47.0054 34.9297H49.313C48.9498 34.2078 48.7416 33.3972 48.7416 32.5466C48.7416 31.085 49.3396 29.7564 50.3007 28.795C51.2618 27.8339 52.5907 27.2361 54.0524 27.2361H54.9116C55.5583 27.2361 56.0855 27.7631 56.0855 28.4099C56.0855 29.0566 55.5585 29.5836 54.9116 29.5836H54.0524C53.2374 29.5836 52.4934 29.916 51.9573 30.4519C51.4213 30.9922 51.0846 31.732 51.0846 32.5467C51.0846 33.0785 51.2263 33.5791 51.4699 34.0088C51.7268 34.456 52.0944 34.8324 52.5418 35.0983C53.0954 35.4305 53.2726 36.1483 52.9449 36.7019C52.7323 37.0517 52.3513 37.2731 51.9393 37.2731H47.0051C46.1901 37.2731 45.4504 37.6053 44.9099 38.1456C44.374 38.6819 44.0374 39.4258 44.0374 40.2364C44.0374 41.0514 44.374 41.7955 44.9099 42.3316C45.4504 42.8675 46.1901 43.2041 47.0051 43.2041H62.7204C63.4291 40.8433 63.8055 38.3361 63.8055 35.7319C63.8055 33.6102 63.553 31.5549 63.0748 29.5838H60.2223C59.5755 29.5838 59.0484 29.0567 59.0484 28.41C59.0484 27.7633 59.5755 27.2363 60.2223 27.2363H62.3882C61.0904 23.4624 58.9421 20.0828 56.1782 17.3186C51.4699 12.606 44.9587 9.69142 37.7698 9.69142C31.5421 9.69142 25.8238 11.8795 21.3413 15.525H29.2566C31.1348 15.525 32.8399 16.2911 34.0757 17.5269C35.3115 18.7628 36.0777 20.4678 36.0777 22.3461C36.0777 24.2244 35.3115 25.9294 34.0757 27.1653C32.8399 28.4053 31.1346 29.1717 29.2566 29.1717H25.3632C25.4341 29.2781 25.4962 29.3844 25.5624 29.495C26.1294 30.4917 26.4527 31.6389 26.4527 32.8527C26.4527 34.7306 25.6865 36.4403 24.4507 37.6761C23.2149 38.9119 21.5096 39.6781 19.6316 39.6781H12.0265C12.8813 45.2858 15.5212 50.3086 19.3571 54.14C19.986 54.7734 20.6504 55.3714 21.3459 55.9338C22.2538 54.8266 23.4277 53.8564 24.8052 53.0634C26.5371 52.0625 28.5879 51.3495 30.8204 51.0219C31.4582 50.9288 32.0562 51.3716 32.1491 52.0141C32.2421 52.6517 31.7991 53.2455 31.1569 53.3384C29.2126 53.6264 27.4407 54.2333 25.9657 55.0836C24.8762 55.7124 23.9415 56.4745 23.224 57.3294C27.3787 60.1331 32.3794 61.7674 37.7699 61.7674C40.5029 61.7675 43.134 61.3469 45.6055 60.5717ZM11.7785 37.3352H19.6318C20.8632 37.3352 21.9793 36.8305 22.7943 36.0153C23.6049 35.2047 24.1098 34.0842 24.1098 32.853C24.1098 32.0513 23.8971 31.2981 23.5296 30.647C23.1398 29.9694 22.5816 29.4024 21.9129 29.0036C21.3593 28.6714 21.1776 27.9539 21.5098 27.4003C21.7224 27.046 22.0988 26.8289 22.5109 26.8289H29.2568C30.488 26.8289 31.6043 26.3239 32.4193 25.5089C33.2299 24.6983 33.7348 23.5778 33.7348 22.3464C33.7348 21.115 33.2298 19.9989 32.4193 19.1839C31.6043 18.3733 30.488 17.8683 29.2568 17.8683H18.8212C14.4229 22.5324 11.7298 28.8131 11.7298 35.7319C11.7298 36.2678 11.7476 36.8039 11.7785 37.3352Z" fill="white"/>
<path d="M38.2768 2.33433C37.6345 2.32996 37.1164 1.79839 37.1251 1.15621C37.134 0.509488 37.661 -0.00879316 38.3078 0.000113087C38.9323 0.00901934 39.5259 0.0310506 40.0839 0.0708943C40.682 0.106363 41.2665 0.159488 41.8423 0.225894C42.4846 0.296832 42.9453 0.877144 42.87 1.51933C42.799 2.16152 42.2189 2.6223 41.5765 2.55136C41.0229 2.48933 40.4781 2.44058 39.9332 2.40527C39.3531 2.36527 38.8039 2.34324 38.2768 2.33433ZM46.9007 3.61011C46.2762 3.43292 45.9174 2.78621 46.0945 2.16605C46.2717 1.54168 46.9184 1.18277 47.5385 1.35996C48.0967 1.51496 48.6592 1.69214 49.2306 1.88714C49.7578 2.06871 50.3114 2.2723 50.8915 2.50261C51.4895 2.74183 51.7864 3.41949 51.5471 4.01746C51.3079 4.61542 50.6303 4.90777 50.0323 4.67292C49.554 4.48246 49.0357 4.29199 48.482 4.10183C47.9726 3.92886 47.4456 3.76496 46.9007 3.61011ZM54.9001 7.08277C54.3464 6.75058 54.1648 6.03277 54.497 5.47918C54.8248 4.92558 55.5423 4.74402 56.0959 5.07605C56.6053 5.38183 57.1014 5.69621 57.5931 6.02386C58.0846 6.35636 58.5676 6.6973 59.0371 7.0473C59.5553 7.42824 59.666 8.16339 59.2806 8.68152C58.8953 9.1998 58.1645 9.30621 57.6462 8.92074C57.2034 8.59293 56.7514 8.27402 56.2907 7.96839C55.8348 7.66293 55.3696 7.36621 54.9001 7.08277ZM61.7257 12.5042C61.2784 12.0435 61.2873 11.3037 61.7523 10.8521C62.2129 10.4003 62.9528 10.4135 63.4045 10.8742C63.8076 11.2906 64.2062 11.7246 64.6049 12.1765C65.0081 12.6373 65.3845 13.089 65.7389 13.5364C66.142 14.0412 66.0578 14.7765 65.5528 15.1796C65.0434 15.5784 64.3082 15.4985 63.9095 14.989C63.5507 14.5373 63.1964 14.1121 62.8465 13.7179C62.4876 13.3104 62.1156 12.9073 61.7257 12.5042ZM66.9259 19.4982C66.6114 18.9357 66.8153 18.227 67.3821 17.9125C67.9446 17.5981 68.6534 17.8017 68.9679 18.3645C69.2603 18.8915 69.5348 19.4096 69.7917 19.9281C70.0353 20.4285 70.2834 20.9689 70.5314 21.5403C70.7884 22.1339 70.5181 22.8203 69.9245 23.0773C69.331 23.3296 68.6445 23.0596 68.392 22.466C68.1837 21.9876 67.949 21.4871 67.6921 20.9646C67.444 20.455 67.1871 19.9676 66.9259 19.4982ZM70.1284 27.604C69.9734 26.9795 70.3587 26.3459 70.9832 26.1909C71.6123 26.036 72.2456 26.4212 72.4006 27.046C72.5468 27.6351 72.6751 28.2064 72.7859 28.7645C72.8967 29.3404 72.9985 29.9251 73.0826 30.5142C73.1801 31.1562 72.7371 31.7498 72.0949 31.8429C71.457 31.9359 70.8635 31.4929 70.766 30.8551C70.6864 30.3059 70.5932 29.7612 70.487 29.2162C70.3764 28.6537 70.2567 28.1178 70.1284 27.604ZM71.1249 36.2767C71.1339 35.6345 71.6609 35.116 72.3076 35.125C72.9499 35.1339 73.4681 35.661 73.4593 36.3076C73.4504 36.9321 73.4284 37.5257 73.3929 38.0793C73.3531 38.6818 73.2999 39.2665 73.2335 39.8423C73.1626 40.4843 72.5825 40.9453 71.9403 40.8698C71.2979 40.799 70.8373 40.2187 70.9082 39.5765C70.9746 39.0229 71.0234 38.4735 71.0589 37.9331C71.0939 37.3528 71.116 36.7992 71.1249 36.2767ZM37.1828 69.1248C37.825 69.1337 38.3432 69.6607 38.3343 70.3073C38.3254 70.9496 37.7984 71.4679 37.1517 71.459C36.5271 71.4501 35.9335 71.4281 35.38 71.3926C34.7775 71.3526 34.1928 71.2995 33.617 71.2329C32.9746 71.1621 32.514 70.5818 32.5893 69.9395C32.6603 69.2975 33.2404 68.8367 33.8828 68.9078C34.4364 68.9742 34.9857 69.0228 35.526 69.0582C36.1062 69.0937 36.66 69.1159 37.1828 69.1248ZM28.5587 67.8492C29.1832 68.0264 29.542 68.6729 29.365 69.2976C29.1878 69.9178 28.541 70.2764 27.921 70.1035C27.3629 69.9442 26.8004 69.767 26.229 69.5723C25.7018 69.3907 25.1482 69.1868 24.5681 68.9565C23.9701 68.7218 23.6734 68.0398 23.9125 67.442C24.1517 66.8439 24.8293 66.5515 25.4273 66.7864C25.9101 66.9768 26.4239 67.1673 26.982 67.3576C27.4867 67.5301 28.0139 67.6942 28.5587 67.8492ZM20.5637 64.3765C21.1173 64.7087 21.2945 65.4264 20.9623 65.9801C20.6345 66.5337 19.917 66.7153 19.3634 66.3831C18.8586 66.0776 18.3579 65.7629 17.8662 65.4353C17.3746 65.1032 16.8917 64.7665 16.4221 64.4164C15.904 64.031 15.7932 63.3003 16.1785 62.7821C16.5639 62.264 17.2948 62.1532 17.8129 62.5384C18.2603 62.8706 18.7076 63.1851 19.1684 63.4949C19.6246 63.8007 20.0898 64.0931 20.5637 64.3765ZM13.7336 58.9548C14.1809 59.4156 14.172 60.1553 13.7114 60.6071C13.2462 61.0589 12.5065 61.0456 12.0548 60.5849C11.6517 60.1687 11.2531 59.7346 10.8589 59.2828C10.4514 58.8221 10.075 58.3703 9.72058 57.9229C9.31746 57.4179 9.40167 56.6828 9.91105 56.2796C10.416 55.8809 11.1512 55.965 11.5545 56.4701C11.9132 56.922 12.2675 57.3471 12.6129 57.7457C12.9718 58.1489 13.3439 58.5518 13.7336 58.9548ZM8.53355 51.961C8.84808 52.5237 8.64417 53.2325 8.08167 53.5467C7.5148 53.8614 6.80589 53.6575 6.49152 53.0948C6.19918 52.572 5.92464 52.0496 5.67214 51.5314C5.42418 51.0309 5.17605 50.4904 4.92808 49.919C4.67121 49.3254 4.94574 48.639 5.5348 48.3821C6.12839 48.1296 6.8148 48.3998 7.06746 48.9932C7.27574 49.4717 7.51042 49.9765 7.7673 50.4949C8.01527 51.0043 8.27214 51.4915 8.53355 51.961ZM5.33105 43.8553C5.48605 44.48 5.10074 45.1134 4.47621 45.2684C3.84714 45.4234 3.21386 45.0379 3.05886 44.4135C2.91277 43.8287 2.78433 43.2528 2.67355 42.6948C2.56277 42.119 2.46089 41.5343 2.37683 40.9453C2.28386 40.3029 2.72683 39.7095 3.36464 39.6165C4.0023 39.5234 4.60043 39.9662 4.69339 40.604C4.77308 41.1534 4.86605 41.7026 4.97246 42.2476C5.08308 42.8054 5.20261 43.3415 5.33105 43.8553ZM4.33449 35.1826C4.33011 35.8248 3.79855 36.3431 3.15621 36.3342C2.50949 36.3253 1.99121 35.7982 2.00011 35.1515C2.00902 34.5271 2.03121 33.9335 2.07105 33.38C2.10652 32.7776 2.15964 32.1926 2.22605 31.617C2.29699 30.9748 2.87714 30.5142 3.51933 30.5895C4.16168 30.6603 4.6223 31.2406 4.55136 31.8826C4.48933 32.4364 4.44074 32.9856 4.40511 33.526C4.36558 34.1062 4.34339 34.6598 4.33449 35.1826ZM5.61027 26.5584C5.43308 27.1831 4.78636 27.5418 4.16621 27.3648C3.54168 27.1875 3.18293 26.5407 3.36011 25.9206C3.51511 25.3626 3.6923 24.8001 3.88714 24.2287C4.06871 23.7015 4.27261 23.1479 4.50277 22.5678C4.74199 21.9698 5.41964 21.6729 6.01761 21.9123C6.61558 22.1514 6.90793 22.829 6.67308 23.4268C6.48261 23.9098 6.29214 24.4237 6.10168 24.9817C5.92918 25.4867 5.76527 26.0137 5.61027 26.5584ZM9.08277 18.5635C8.75058 19.1173 8.03292 19.2943 7.47933 18.9623C6.92574 18.6345 6.74402 17.9168 7.07636 17.3632C7.38199 16.8584 7.69636 16.3579 8.02417 15.8662C8.35636 15.3746 8.69746 14.8917 9.0473 14.4221C9.42824 13.904 10.1636 13.7934 10.6817 14.1784C11.1998 14.5639 11.3062 15.295 10.9209 15.8131C10.5931 16.2603 10.2742 16.7078 9.96855 17.1684C9.66308 17.6246 9.36621 18.0898 9.08277 18.5635ZM14.5043 11.7336C14.0437 12.181 13.304 12.1723 12.8521 11.7114C12.4004 11.2462 12.4137 10.5067 12.8743 10.0546C13.2907 9.65183 13.7248 9.25308 14.1765 8.85417C14.6373 8.45121 15.089 8.0748 15.5364 7.72042C16.0414 7.3173 16.7767 7.40152 17.1796 7.91089C17.5782 8.41574 17.4985 9.15089 16.9892 9.55417C16.5375 9.90871 16.1167 10.2629 15.7179 10.6128C15.3104 10.9717 14.9075 11.3437 14.5043 11.7336ZM21.5028 6.53339C20.9357 6.84808 20.2271 6.64418 19.9126 6.08152C19.5981 5.51449 19.8018 4.80589 20.3645 4.49136C20.8915 4.19917 21.4098 3.92449 21.9281 3.67214C22.4329 3.42402 22.969 3.17574 23.5403 2.92761C24.1339 2.67074 24.8204 2.94543 25.0773 3.5348C25.3298 4.12824 25.0596 4.81464 24.466 5.06714C23.9876 5.27542 23.4871 5.51011 22.9645 5.76699C22.4595 6.01511 21.9679 6.27199 21.5028 6.53339ZM29.604 3.33089C28.9795 3.48605 28.346 3.10043 28.191 2.47605C28.036 1.84714 28.4214 1.21386 29.0459 1.05886C29.635 0.912613 30.2064 0.784175 30.7645 0.673394C31.3403 0.562613 31.925 0.460894 32.514 0.376519C33.1562 0.283551 33.7498 0.726519 33.8428 1.36433C33.9357 2.00214 33.4929 2.59996 32.855 2.69308C32.3057 2.77277 31.7609 2.86574 31.2117 2.97214C30.6537 3.08277 30.1178 3.20246 29.604 3.33089Z" fill="#B79946"/>
</g>
<defs>
<clipPath id="clip0_50_1621">
<rect width="80" height="80" fill="white"/>
</clipPath>
</defs>
</svg>
