<svg width="80" height="80" viewBox="0 0 80 80" fill="none" xmlns="http://www.w3.org/2000/svg">
<g clip-path="url(#clip0_50_1570)">
<path d="M59.0588 4.22987C59.258 4.84533 58.9214 5.50549 58.3059 5.70471C57.6903 5.90393 57.0303 5.56737 56.8311 4.9519L55.7503 1.62549C55.5023 0.876897 56.0692 0.0928345 56.862 0.0928345H60.8794C61.3223 0.0928345 61.7077 0.34096 61.9069 0.699866L69.4366 11.795H75.6819C76.8733 11.795 77.9539 12.2778 78.7334 13.0617C79.5172 13.8455 80 14.9219 80 16.1133C80 17.3005 79.5172 18.3811 78.7333 19.165C77.9494 19.9444 76.8731 20.4319 75.6817 20.4319H69.4364L65.0117 26.9517C65.995 28.8341 66.7745 30.8538 67.3194 32.9706C67.8997 35.2297 68.2052 37.586 68.2052 39.9999C68.2052 47.6758 65.1359 54.6383 60.1531 59.7275C55.8434 64.1302 50.0988 67.1285 43.6764 67.9613L44.8812 68.9046C45.3906 69.3035 45.4791 70.0341 45.0805 70.5433C44.6863 71.0527 43.9509 71.1414 43.4417 70.7472L39.863 67.9478C39.3448 67.5361 39.2694 66.823 39.6592 66.3091L42.4584 62.726C42.857 62.2213 43.588 62.1281 44.0972 62.5267C44.6066 62.921 44.695 63.6561 44.2964 64.1655L43.1139 65.6803C49.1111 64.9625 54.4748 62.19 58.4877 58.0886C63.0497 53.4292 65.8622 47.0422 65.8622 39.9997C65.8622 37.7585 65.5833 35.5972 65.0561 33.5508C64.6708 32.0403 64.1483 30.5742 63.5016 29.1792L61.8495 31.6152C61.6281 31.9341 61.2692 32.1333 60.8795 32.1333H56.8622C56.0252 32.1333 55.467 31.2874 55.7725 30.5256L59.1078 20.2897L49.7269 19.4525L47.0119 23.3638C46.7902 23.6827 46.4359 23.8731 46.0505 23.8731H42.6312C41.9845 23.8731 41.462 23.3461 41.462 22.6994C41.462 22.5575 41.4842 22.4247 41.5328 22.2963L43.3977 16.113L41.5103 9.8594C41.2889 9.11111 41.8514 8.35362 42.6309 8.35362H46.0502C46.4798 8.35362 46.8608 8.5883 47.0647 8.93377L49.7266 12.7738L59.1075 11.9324L58.4786 10.0013C58.2794 9.38549 58.6114 8.72565 59.227 8.52643C59.8428 8.32721 60.5028 8.66377 60.702 9.27924L61.7605 12.5303C61.8137 12.6631 61.8447 12.8138 61.8447 12.9642C61.8447 13.611 61.322 14.138 60.6755 14.138L49.3102 15.1524C48.8895 15.21 48.4509 15.0327 48.1895 14.6608L45.4391 10.6964H44.2078L45.7358 15.7589C45.8066 15.976 45.8109 16.2152 45.7447 16.4456L44.2078 21.5303H45.4391L48.1895 17.5663C48.42 17.2339 48.8184 17.0303 49.2527 17.07C53.0617 17.4066 56.8884 17.7213 60.6977 18.0888C61.4728 18.1064 62.0308 18.8685 61.7873 19.6214L58.4742 29.7864H60.268L67.7931 18.6958C67.9923 18.3324 68.3777 18.0888 68.8206 18.0888H75.6816C76.2262 18.0888 76.718 17.8675 77.0767 17.5086C77.4355 17.1497 77.657 16.6538 77.657 16.1133C77.657 15.5686 77.4355 15.0769 77.0767 14.7183C76.718 14.3594 76.2264 14.1378 75.6816 14.1378H68.8206C68.4442 14.1378 68.0811 13.9521 67.8552 13.6197L60.2678 2.43612H58.4741L59.0588 4.22987ZM35.2652 11.0906C34.7603 10.6921 34.6673 9.96112 35.0659 9.4519C35.4602 8.94252 36.1955 8.85408 36.7047 9.25268L40.2834 12.0475C40.8061 12.4683 40.8769 13.1771 40.4872 13.6863L37.688 17.2694C37.2939 17.7788 36.5584 17.8675 36.0492 17.4686C35.5398 17.0747 35.4514 16.3391 35.85 15.8299L37.0458 14.3019C31.0133 14.9885 25.6052 17.7522 21.5658 21.8581C16.9727 26.5264 14.138 32.9311 14.138 40C14.138 42.2413 14.417 44.4025 14.9441 46.4533C15.3337 47.9638 15.8564 49.4252 16.5031 50.8205L18.0933 48.4777C18.2925 48.1142 18.6778 47.8664 19.1208 47.8664H23.1425C23.9309 47.8664 24.5022 48.6416 24.2542 49.3988L20.897 59.7055L30.2778 60.5474L32.9397 56.7114C33.1434 56.3614 33.5202 56.1267 33.9541 56.1267H37.3689C38.1441 56.1267 38.7153 56.8753 38.4895 57.6328L36.6027 63.8869L38.4719 70.0697C38.5161 70.1982 38.5427 70.3313 38.5427 70.4728C38.5427 71.1241 38.0156 71.6466 37.3689 71.6466H33.9541C33.582 71.6466 33.2188 71.465 32.993 71.1372L30.2778 67.2264L20.897 68.0636L21.5259 69.9991C21.7252 70.6103 21.3886 71.2702 20.773 71.4739C20.1617 71.6731 19.5016 71.3366 19.298 70.7211L18.2172 67.3947C18.018 66.7792 18.3545 66.1191 18.9658 65.9199C19.0808 65.8844 19.1916 65.8667 19.3069 65.8625L30.7475 64.8438C31.1683 64.8038 31.5713 64.9942 31.8106 65.3397L34.5612 69.3039H35.7925L34.2598 64.2188C34.1891 63.9883 34.198 63.7494 34.2642 63.5324L35.7922 58.4697H34.5609L31.8103 62.4338C31.5533 62.8058 31.1148 62.9831 30.6897 62.9253L19.3288 61.9113C18.682 61.9113 18.155 61.3842 18.155 60.7375C18.155 60.5867 18.1859 60.4407 18.2392 60.3033L21.5302 50.2091H19.7362L12.1492 61.393C11.9322 61.7161 11.5689 61.9111 11.1836 61.9111H4.31844C3.77813 61.9111 3.28203 62.1324 2.92328 62.4913C2.56891 62.8502 2.34297 63.3461 2.34297 63.8866C2.34297 64.4267 2.56891 64.923 2.92328 65.2816C3.28203 65.6405 3.77813 65.8621 4.31844 65.8621H11.1839C11.6267 65.8621 12.0122 66.1056 12.2114 66.4688L19.7364 77.5594H21.5303L20.9458 75.7702C20.7466 75.1547 21.0831 74.4946 21.6942 74.2953C22.3098 74.0961 22.9698 74.4327 23.1691 75.0439L24.2322 78.2992C24.2853 78.4324 24.3119 78.5785 24.3119 78.7335C24.3119 79.3799 23.7892 79.9072 23.1427 79.9072H19.1209C18.7489 79.9072 18.3812 79.7211 18.1553 79.3888L10.5681 68.2052H4.31844C3.13141 68.2052 2.05078 67.7181 1.26688 66.9385C0.487188 66.1542 0 65.0736 0 63.8867C0 62.6953 0.487188 61.6189 1.26672 60.835C2.05078 60.051 3.13141 59.5681 4.31828 59.5681H10.568L14.9927 53.0483C14.005 51.166 13.2298 49.1463 12.685 47.0294C12.1048 44.7703 11.7948 42.4141 11.7948 40.0002C11.7948 32.2977 14.8862 25.3131 19.9 20.2194C24.232 15.8167 30.003 12.8269 36.4564 12.021L35.2652 11.0906Z" fill="white"/>
<path d="M41.1737 33.3251V29.2903C42.1259 30.2201 42.9542 31.3897 43.6098 32.7271C43.7028 32.9221 43.7959 33.1214 43.8844 33.3251H41.1737Z" fill="#B79946"/>
<path d="M41.1737 44.3315V35.6682L44.6816 35.6681C45.0314 37.0234 45.2219 38.4806 45.2219 39.9998C45.2219 41.519 45.0314 42.9717 44.6816 44.3315H41.1737Z" fill="#B79946"/>
<path d="M41.1737 50.7096V46.6748H43.8844C43.7958 46.874 43.7028 47.0736 43.6098 47.2728C42.9544 48.6103 42.1261 49.7753 41.1737 50.7096Z" fill="#B79946"/>
<path d="M38.8308 46.6748V50.7096C37.8741 49.7751 37.0458 48.6103 36.3947 47.2728C36.2973 47.0736 36.2042 46.874 36.12 46.6748H38.8308Z" fill="#B79946"/>
<path d="M38.8308 35.6684V44.3317L35.3184 44.3318C34.9684 42.972 34.7823 41.5193 34.7823 40.0001C34.7823 38.4809 34.9686 37.0237 35.3184 35.6684H38.8308Z" fill="#B79946"/>
<path d="M38.8308 29.2903V33.3251H36.12C36.2042 33.1214 36.2973 32.9221 36.3947 32.7271C37.0458 31.3897 37.8741 30.2201 38.8308 29.2903Z" fill="#B79946"/>
<path d="M45.7136 31.7039C45.1777 30.6014 44.5356 29.5957 43.8047 28.7056C45.563 29.2992 47.1398 30.2912 48.4244 31.5754C48.9603 32.1115 49.4475 32.6961 49.8728 33.3251H46.4047C46.2009 32.7625 45.9706 32.222 45.7136 31.7039Z" fill="#B79946"/>
<path d="M47.5652 40C47.5652 38.4984 47.4013 37.0412 47.0913 35.6682H51.1041C51.6267 37.0101 51.9147 38.4718 51.9147 40C51.9147 41.5281 51.6267 42.9895 51.1041 44.3317H47.0913C47.4013 42.954 47.5652 41.5015 47.5652 40Z" fill="#B79946"/>
<path d="M45.7134 48.2961C45.9705 47.7776 46.2008 47.2328 46.4045 46.6748L49.8727 46.675C49.4473 47.304 48.9602 47.8884 48.4242 48.4243C47.1398 49.7089 45.563 50.7009 43.8045 51.2945C44.5355 50.4042 45.1775 49.3987 45.7134 48.2961Z" fill="#B79946"/>
<path d="M34.2866 48.2959C34.8269 49.3986 35.4691 50.4042 36.1998 51.2943C34.4369 50.7007 32.8602 49.7087 31.5758 48.424C31.0398 47.8882 30.557 47.3037 30.1273 46.6746H33.5955C33.8038 47.2326 34.0341 47.7775 34.2866 48.2959Z" fill="#B79946"/>
<path d="M32.4392 40C32.4392 41.5015 32.6031 42.9542 32.9087 44.3317H28.8959C28.3733 42.9895 28.0853 41.5281 28.0853 40C28.0853 38.4718 28.3733 37.0101 28.8959 35.6682H32.9087C32.6031 37.0412 32.4392 38.4984 32.4392 40Z" fill="#B79946"/>
<path d="M34.2866 31.7039C34.0341 32.222 33.8038 32.7625 33.5955 33.3251H30.1272C30.5569 32.6961 31.0397 32.1117 31.5756 31.5754C32.8602 30.2912 34.437 29.2992 36.1998 28.7056C35.4691 29.5957 34.8269 30.6012 34.2866 31.7039Z" fill="#B79946"/>
</g>
<defs>
<clipPath id="clip0_50_1570">
<rect width="80" height="80" fill="white"/>
</clipPath>
</defs>
</svg>
