<svg width="80" height="80" viewBox="0 0 80 80" fill="none" xmlns="http://www.w3.org/2000/svg">
<g clip-path="url(#clip0_50_1578)">
<mask id="mask0_50_1578" style="mask-type:luminance" maskUnits="userSpaceOnUse" x="0" y="0" width="80" height="80">
<path d="M0 7.62939e-06H80V80H0V7.62939e-06Z" fill="white"/>
</mask>
<g mask="url(#mask0_50_1578)">
<path d="M34.3311 35.4993L26.6525 26.8715C26.2658 26.437 26.4669 25.7475 27.0266 25.5889L34.2005 23.5576C34.4035 23.5003 34.6211 23.5265 34.8047 23.6307L47.7733 30.9985" stroke="white" stroke-width="2" stroke-miterlimit="10" stroke-linecap="round" stroke-linejoin="round"/>
<path d="M39.3996 50.6437L37.0838 63.7112C36.9823 64.284 37.5149 64.7657 38.0748 64.6073L45.2487 62.5759C45.4515 62.5185 45.623 62.382 45.7246 62.197L54.4044 46.3951L39.3996 50.6437Z" stroke="white" stroke-width="2" stroke-miterlimit="10" stroke-linecap="round" stroke-linejoin="round"/>
<path d="M14.9289 41.8865L10.0767 34.0592C8.9687 32.272 6.81089 31.4351 4.78761 32.0079L3.28448 32.4336C2.56448 32.6375 2.14605 33.3865 2.34995 34.1064L5.4787 45.1567" stroke="white" stroke-width="2" stroke-miterlimit="10" stroke-linecap="round" stroke-linejoin="round"/>
<path d="M19.1439 20.9922C20.8168 20.9922 22.1727 19.6363 22.1727 17.9636C22.1727 16.2908 20.8168 14.9348 19.1439 14.9348C18.8408 14.9348 18.5482 14.9798 18.2721 15.063C17.6735 13.2828 15.9924 12 14.0105 12C12.0288 12 10.3477 13.2828 9.74926 15.063C9.47301 14.9798 9.18035 14.9348 8.87723 14.9348C7.20457 14.9348 5.84863 16.2908 5.84863 17.9636C5.84863 19.6363 7.20457 20.9922 8.87723 20.9922H19.1439Z" stroke="#B79946" stroke-width="2" stroke-miterlimit="10" stroke-linecap="round" stroke-linejoin="round"/>
<path d="M72.7017 31.4521L64.7354 33.7079C63.809 33.9701 62.8529 33.3708 62.7006 32.4202C62.167 29.0901 62.8453 26.4546 62.9675 26.0213C66.6112 25.4118 70.3156 27.0927 72.2082 30.3421C72.3389 30.5671 72.5082 30.9555 72.7017 31.4521Z" stroke="white" stroke-width="2" stroke-miterlimit="10" stroke-linecap="round" stroke-linejoin="round"/>
<path d="M8.8336 51.1115C7.30376 49.4754 6.1311 47.4601 5.47876 45.1566L61.9917 26.2401C62.3155 26.1484 62.6419 26.0757 62.9677 26.0213C66.6114 25.4116 70.3156 27.0926 72.2083 30.342C72.3389 30.5671 72.5083 30.9556 72.7017 31.4521L73.043 31.3556C75.4034 30.6871 77.8591 32.0588 78.5275 34.4196L78.6658 34.9085C79.3344 37.269 77.9625 39.7246 75.6019 40.3929L23.4063 55.172C19.9122 56.1613 16.3545 55.7832 13.3045 54.357" stroke="white" stroke-width="2" stroke-miterlimit="10" stroke-linecap="round" stroke-linejoin="round"/>
<path d="M27.617 45.1035C27.8501 45.9271 27.3716 46.7835 26.5482 47.0166C25.7248 47.2497 24.8684 46.7713 24.6352 45.9479C24.402 45.1244 24.8805 44.2679 25.7038 44.0347C26.5273 43.8016 27.3838 44.2801 27.617 45.1035Z" fill="white"/>
<path d="M33.7251 43.3741C33.9582 44.1975 33.4798 45.0539 32.6564 45.2871C31.8329 45.5202 30.9765 45.0418 30.7434 44.2183C30.5101 43.395 30.9887 42.5385 31.812 42.3053C32.6354 42.0722 33.492 42.5507 33.7251 43.3741Z" fill="white"/>
<path d="M39.833 41.6447C40.0661 42.4681 39.5876 43.3245 38.7642 43.5576C37.9409 43.7908 37.0844 43.3123 36.8512 42.4889C36.6181 41.6656 37.0966 40.809 37.92 40.5759C38.7433 40.3428 39.5998 40.8212 39.833 41.6447Z" fill="white"/>
<path d="M45.9411 39.9151C46.1742 40.7387 45.6958 41.5951 44.8724 41.8282C44.0491 42.0612 43.1925 41.5829 42.9594 40.7593C42.7263 39.936 43.2047 39.0794 44.0281 38.8463C44.8514 38.6132 45.708 39.0916 45.9411 39.9151Z" fill="white"/>
<path d="M52.0493 38.1856C52.2824 39.0091 51.804 39.8655 50.9805 40.0986C50.1572 40.3317 49.3007 39.8533 49.0676 39.0298C48.8344 38.2066 49.3129 37.35 50.1363 37.1169C50.9596 36.8837 51.8161 37.3622 52.0493 38.1856Z" fill="white"/>
<path d="M58.1573 36.4562C58.3904 37.2796 57.912 38.136 57.0885 38.3692C56.2652 38.6023 55.4085 38.1238 55.1754 37.3004C54.9424 36.4771 55.4207 35.6204 56.2443 35.3874C57.0676 35.1543 57.9242 35.6326 58.1573 36.4562Z" fill="white"/>
<path d="M4.73291 56.5114H9.01338" stroke="#B79946" stroke-width="2" stroke-miterlimit="10" stroke-linecap="round" stroke-linejoin="round"/>
<path d="M62.0945 49.0035H66.375" stroke="#B79946" stroke-width="2" stroke-miterlimit="10" stroke-linecap="round" stroke-linejoin="round"/>
<path d="M56.3682 53.3372H64.6005" stroke="#B79946" stroke-width="2" stroke-miterlimit="10" stroke-linecap="round" stroke-linejoin="round"/>
<path d="M1.16406 60.9672H11.6364" stroke="#B79946" stroke-width="2" stroke-miterlimit="10" stroke-linecap="round" stroke-linejoin="round"/>
</g>
</g>
<defs>
<clipPath id="clip0_50_1578">
<rect width="80" height="80" fill="white"/>
</clipPath>
</defs>
</svg>
