<svg width="44" height="44" viewBox="0 0 44 44" fill="none" xmlns="http://www.w3.org/2000/svg">
<circle cx="22" cy="22" r="22" fill="#B79946"/>
<path d="M20.99 19.4492C21.168 22.5392 18.992 26.8932 14.11 29.0002L13 27.0802C14.997 25.9572 16.507 24.1302 17.306 21.9302C14.42 21.6962 13.577 19.9172 13.577 18.4662C13.577 16.4992 15.087 14.9542 16.951 15.0012C18.726 14.9542 20.768 16.3122 20.99 19.4492ZM30.99 19.4492C31.168 22.5392 28.993 26.8932 24.11 29.0002L23 27.0802C24.998 25.9572 26.507 24.1302 27.306 21.9302C24.42 21.6962 23.577 19.9172 23.577 18.4662C23.577 16.4992 25.087 14.9542 26.951 15.0012C28.726 14.9542 30.768 16.3122 30.99 19.4492Z" stroke="white" stroke-width="1.4" stroke-miterlimit="10" stroke-linecap="round" stroke-linejoin="round"/>
</svg>
