<svg width="40" height="40" viewBox="0 0 40 40" fill="none" xmlns="http://www.w3.org/2000/svg">
<path d="M7.93738 20.4999C7.84238 20.4999 7.74738 20.4787 7.65863 20.4349L5.62488 19.4237L3.59113 20.4349C3.38363 20.5387 3.13613 20.5187 2.94488 20.3812C2.75738 20.2449 2.65988 20.0149 2.69363 19.7849L3.02488 17.5287L1.42863 15.8999C1.26613 15.7337 1.20863 15.4899 1.28113 15.2687C1.35363 15.0474 1.54363 14.8837 1.77363 14.8462L4.01613 14.4724L5.07238 12.4487C5.23113 12.1424 5.60863 12.0249 5.91363 12.1837C6.21988 12.3437 6.33863 12.7212 6.17863 13.0274L4.97863 15.3274C4.88863 15.5012 4.72113 15.6224 4.52738 15.6549L3.15988 15.8837L4.13488 16.8749C4.27113 17.0149 4.33488 17.2099 4.30738 17.4024L4.10488 18.7824L5.34738 18.1637C5.52363 18.0774 5.72863 18.0774 5.90363 18.1637L7.14613 18.7824L6.94363 17.4024C6.91613 17.2099 6.97863 17.0137 7.11613 16.8749L8.08988 15.8824L6.72238 15.6537C6.38238 15.5974 6.15113 15.2749 6.20863 14.9349C6.26613 14.5937 6.59738 14.3587 6.92738 14.4212L9.47738 14.8462C9.70738 14.8849 9.89738 15.0474 9.96988 15.2687C10.0424 15.4899 9.98488 15.7337 9.82238 15.8999L8.22488 17.5287L8.55613 19.7849C8.58863 20.0149 8.49238 20.2449 8.30488 20.3812C8.19488 20.4599 8.06613 20.4999 7.93738 20.4999Z" fill="#0F5850"/>
<path d="M13.0624 13.1875C12.9674 13.1875 12.8724 13.1663 12.7837 13.1225L10.6249 12.0488L8.46492 13.1225C8.25867 13.2263 8.00867 13.2063 7.81867 13.0688C7.63117 12.9325 7.53242 12.7025 7.56867 12.4713L7.92242 10.09L6.23867 8.36127C6.07617 8.19502 6.01992 7.95127 6.09242 7.73127C6.16492 7.51127 6.35367 7.34752 6.58367 7.30877L8.95367 6.91127L10.0724 4.77377C10.2899 4.36252 10.9637 4.36252 11.1812 4.77377L12.2999 6.91127L14.6699 7.30877C14.8999 7.34752 15.0887 7.51002 15.1612 7.73127C15.2337 7.95252 15.1774 8.19502 15.0149 8.36127L13.3299 10.0888L13.6837 12.47C13.7187 12.7013 13.6212 12.9313 13.4337 13.0675C13.3212 13.1475 13.1924 13.1875 13.0624 13.1875ZM10.6249 10.725C10.7199 10.725 10.8149 10.7475 10.9037 10.79L12.2687 11.4688L12.0449 9.96752C12.0149 9.77377 12.0787 9.57877 12.2137 9.43877L13.2812 8.34377L11.7837 8.09127C11.5899 8.05877 11.4249 7.93877 11.3324 7.76502L10.6249 6.41002L9.91742 7.76502C9.82492 7.93877 9.65992 8.05877 9.46617 8.09127L7.96742 8.34377L9.03492 9.43877C9.16992 9.57877 9.23367 9.77502 9.20492 9.96752L8.98242 11.4688L10.3474 10.79C10.4349 10.7475 10.5299 10.725 10.6249 10.725Z" fill="#0F5850"/>
<path d="M36.6874 20.5C36.5924 20.5 36.4974 20.4787 36.4086 20.435L34.3749 19.4237L32.3411 20.435C32.1336 20.5387 31.8861 20.5187 31.6949 20.3812C31.5074 20.245 31.4099 20.015 31.4436 19.785L31.7749 17.5287L30.1786 15.9C30.0161 15.7337 29.9586 15.49 30.0311 15.2687C30.1036 15.0475 30.2936 14.8837 30.5236 14.8462L33.0736 14.4212C33.4061 14.3587 33.7349 14.5937 33.7924 14.935C33.8499 15.275 33.6186 15.5975 33.2786 15.6537L31.9111 15.8825L32.8849 16.875C33.0211 17.015 33.0849 17.21 33.0574 17.4025L32.8549 18.7825L34.0974 18.1637C34.2736 18.0775 34.4786 18.0775 34.6536 18.1637L35.8961 18.7825L35.6936 17.4025C35.6661 17.21 35.7286 17.0137 35.8661 16.875L36.8399 15.8825L35.4724 15.6537C35.2786 15.6212 35.1111 15.5 35.0211 15.3262L33.8211 13.0262C33.6611 12.72 33.7799 12.3425 34.0861 12.1825C34.3924 12.0237 34.7699 12.14 34.9299 12.4475L35.9861 14.4712L38.2286 14.845C38.4586 14.8837 38.6486 15.0462 38.7211 15.2675C38.7936 15.4887 38.7361 15.7325 38.5736 15.8987L36.9774 17.5275L37.3086 19.7837C37.3411 20.0137 37.2449 20.2437 37.0574 20.38C36.9449 20.46 36.8161 20.5 36.6874 20.5Z" fill="#0F5850"/>
<path d="M31.8125 13.1875C31.7175 13.1875 31.6224 13.1662 31.5337 13.1225L29.3749 12.0487L27.2149 13.1225C27.0074 13.2262 26.7574 13.2062 26.5687 13.0687C26.3812 12.9325 26.2825 12.7025 26.3187 12.4712L26.6724 10.09L24.9874 8.36249C24.8249 8.19624 24.7687 7.95249 24.8412 7.73249C24.9137 7.51249 25.1025 7.34874 25.3325 7.30999L27.7025 6.91249L28.8212 4.77499C29.0387 4.36374 29.7125 4.36374 29.93 4.77499L31.0487 6.91249L33.4187 7.30999C33.6487 7.34874 33.8375 7.51124 33.91 7.73249C33.9825 7.95374 33.9262 8.19624 33.7637 8.36249L32.0787 10.09L32.4324 12.4712C32.4674 12.7025 32.37 12.9325 32.1825 13.0687C32.0712 13.1475 31.9425 13.1875 31.8125 13.1875ZM29.3749 10.725C29.47 10.725 29.5649 10.7475 29.6537 10.79L31.0187 11.4687L30.7949 9.96624C30.7662 9.77374 30.8287 9.57749 30.9649 9.43749L32.0324 8.34249L30.5337 8.08999C30.3412 8.05749 30.1749 7.93624 30.0837 7.76374L29.3749 6.40999L28.6674 7.76374C28.5762 7.93749 28.4099 8.05749 28.2174 8.08999L26.7187 8.34249L27.7862 9.43749C27.9212 9.57749 27.9849 9.77374 27.9562 9.96624L27.7325 11.4687L29.0974 10.79C29.1849 10.7475 29.28 10.725 29.3749 10.725Z" fill="#0F5850"/>
<path d="M22.6999 10.825C22.6049 10.825 22.5111 10.8038 22.4224 10.76L19.9999 9.56002L17.5774 10.76C17.3711 10.8638 17.1224 10.8425 16.9324 10.7063C16.7449 10.57 16.6474 10.34 16.6811 10.1088L17.0749 7.42752L15.1786 5.48752C15.0161 5.32127 14.9586 5.07752 15.0311 4.85752C15.1036 4.63627 15.2924 4.47252 15.5224 4.43502L18.1911 3.98627L19.4474 1.58627C19.6649 1.17502 20.3386 1.17502 20.5561 1.58627L21.8124 3.98627L24.4811 4.43502C24.7111 4.47377 24.8999 4.63627 24.9724 4.85752C25.0449 5.07877 24.9874 5.32127 24.8249 5.48752L22.9249 7.42752L23.3186 10.1088C23.3511 10.3388 23.2549 10.5688 23.0674 10.7063C22.9586 10.785 22.8299 10.825 22.6999 10.825ZM19.9999 8.23752C20.0949 8.23752 20.1899 8.25877 20.2774 8.30252L21.9099 9.11127L21.6436 7.30377C21.6161 7.11002 21.6786 6.91502 21.8161 6.77627L23.0924 5.46877L21.2961 5.16752C21.1036 5.13502 20.9374 5.01377 20.8461 4.84127L19.9999 3.22252L19.1536 4.84002C19.0624 5.01377 18.8961 5.13377 18.7036 5.16627L16.9074 5.46752L18.1836 6.77502C18.3199 6.91502 18.3836 7.11002 18.3561 7.30252L18.0899 9.11002L19.7224 8.30127C19.8099 8.25877 19.9049 8.23752 19.9999 8.23752Z" fill="#0F5850"/>
<path d="M36.7812 9.21874C36.5012 9.21874 36.2475 9.03124 36.1762 8.74874C36.0912 8.41374 36.2925 8.07374 36.6262 7.98874L37.97 7.64499C38.3075 7.55624 38.645 7.76124 38.73 8.09499C38.815 8.42999 38.6137 8.76999 38.28 8.85499L36.9362 9.19874C36.8837 9.21249 36.8325 9.21874 36.7812 9.21874Z" fill="#0F5850"/>
<path d="M35.375 5.55235C35.2087 5.55235 35.0425 5.4861 34.92 5.35485C34.6837 5.1036 34.695 4.70735 34.9462 4.4711L36.3312 3.1686C36.5825 2.93235 36.9775 2.9436 37.215 3.1961C37.4512 3.44735 37.44 3.8436 37.1887 4.07985L35.8037 5.38235C35.6825 5.4961 35.5287 5.55235 35.375 5.55235Z" fill="#0F5850"/>
<path d="M32.2499 3.80247C32.1737 3.80247 32.0974 3.78872 32.0212 3.75872C31.6999 3.63247 31.5412 3.26997 31.6674 2.94872L32.1774 1.64622C32.3037 1.32622 32.6624 1.16747 32.9874 1.29247C33.3087 1.41872 33.4674 1.78122 33.3412 2.10247L32.8312 3.40497C32.7349 3.65122 32.4987 3.80247 32.2499 3.80247Z" fill="#0F5850"/>
<path d="M3.21871 9.21881C3.16746 9.21881 3.11621 9.21256 3.06371 9.19881L1.71996 8.85506C1.38496 8.77006 1.18371 8.4288 1.26996 8.09505C1.35496 7.7613 1.69121 7.55756 2.02996 7.64506L3.37371 7.9888C3.70871 8.0738 3.90996 8.41506 3.82371 8.74881C3.75246 9.03131 3.49871 9.21881 3.21871 9.21881Z" fill="#0F5850"/>
<path d="M4.62495 5.55256C4.4712 5.55256 4.31745 5.49631 4.1962 5.38256L2.8112 4.08006C2.55995 3.84381 2.54745 3.44881 2.78495 3.19756C3.0212 2.94506 3.41745 2.93381 3.6687 3.17006L5.0537 4.47256C5.30495 4.70881 5.31745 5.10381 5.07995 5.35631C4.95745 5.48631 4.7912 5.55256 4.62495 5.55256Z" fill="#0F5850"/>
<path d="M7.74996 3.80255C7.50121 3.80255 7.26371 3.65255 7.16746 3.4063L6.65746 2.1038C6.53246 1.7813 6.69121 1.4188 7.01121 1.2938C7.33496 1.16755 7.69621 1.32505 7.82246 1.6463L8.33246 2.9488C8.45871 3.27005 8.29996 3.63255 7.97871 3.7588C7.90246 3.78755 7.82621 3.80255 7.74996 3.80255Z" fill="#0F5850"/>
<path d="M22.065 25.1336C21.9937 25.1336 21.9225 25.1223 21.8525 25.0961L12.7525 21.8061L11.7562 22.1336L13.8512 23.8511C14.1187 24.0698 14.1575 24.4636 13.9387 24.7311C13.72 24.9973 13.3275 25.0373 13.06 24.8186L10.7787 22.9498C10.4575 22.6873 10.3087 22.2711 10.3887 21.8648C10.4675 21.4623 10.7612 21.1373 11.1537 21.0173L12.47 20.6148C12.7 20.5448 12.95 20.5511 13.1737 20.6311L22.2775 23.9223C22.6025 24.0398 22.7712 24.3973 22.6525 24.7223C22.5612 24.9761 22.3212 25.1336 22.065 25.1336Z" fill="#0F5850"/>
<path d="M10.5213 32.5526C8.80127 32.5526 7.12752 31.7476 6.05752 30.3201L4.18377 27.7926C3.96627 27.5051 3.90127 27.1238 4.01377 26.7788C4.12627 26.4338 4.40252 26.1638 4.75127 26.0563L5.71252 25.7626C6.08377 25.6501 6.47002 25.7276 6.75752 25.9701L8.47877 27.3801C8.82252 27.6651 9.28002 27.7551 9.71752 27.6263L28.2725 21.9601C29.14 21.6951 30.055 21.6926 30.915 21.9513L32.5113 22.4301C33.1338 22.6301 33.6063 23.1051 33.7888 23.7063C34.0938 24.7101 33.5263 25.7751 32.5238 26.0813L22.6913 29.0838C22.355 29.1888 22.0113 28.9988 21.91 28.6688C21.81 28.3388 21.995 27.9901 22.325 27.8888L32.1575 24.8863C32.5025 24.7813 32.6975 24.4151 32.5925 24.0688C32.5275 23.8563 32.3625 23.6938 32.1413 23.6226L30.555 23.1476C29.9275 22.9588 29.265 22.9613 28.6375 23.1538L10.0813 28.8226C9.25002 29.0776 8.35127 28.9001 7.68252 28.3463L6.01377 26.9788L5.29752 27.1976L7.05752 29.5726C8.14502 31.0213 10.0363 31.6426 11.7588 31.1176L13.8113 30.4913C14.145 30.3888 14.4913 30.5763 14.5925 30.9063C14.6925 31.2363 14.5075 31.5851 14.1775 31.6863L12.125 32.3126C11.5963 32.4738 11.0563 32.5526 10.5213 32.5526Z" fill="#0F5850"/>
<path d="M14.6837 38.6812C14.39 38.6812 14.1025 38.5637 13.8887 38.3462C13.5975 38.0499 13.4962 37.6199 13.6237 37.2249L16.215 29.0112C16.32 28.6824 16.67 28.5012 16.9987 28.6024C17.3287 28.7062 17.51 29.0574 17.4062 29.3862L14.8912 37.3599L15.935 37.0424L21.9913 28.1349C22.1862 27.8499 22.5787 27.7787 22.86 27.9724C23.145 28.1674 23.2175 28.5562 23.0238 28.8412L16.9025 37.7987C16.75 38.0149 16.545 38.1637 16.3037 38.2387L15.0112 38.6324C14.9037 38.6649 14.7937 38.6812 14.6837 38.6812Z" fill="#0F5850"/>
<path d="M29.6636 24.2038C29.4061 24.2038 29.1649 24.0438 29.0736 23.7875C28.9586 23.4613 29.1299 23.105 29.4561 22.99L31.5236 22.2613C31.8499 22.1475 32.2061 22.3188 32.3211 22.6425C32.4361 22.9688 32.2649 23.325 31.9386 23.44L29.8711 24.1688C29.8036 24.1925 29.7336 24.2038 29.6636 24.2038Z" fill="#0F5850"/>
<path d="M1.87491 35.205C1.61616 35.205 1.37491 35.0437 1.28366 34.785C1.17116 34.4587 1.34366 34.1037 1.66991 33.99L5.71741 32.5875C6.04366 32.4762 6.39866 32.6462 6.51366 32.9737C6.62616 33.3 6.45366 33.655 6.12741 33.7687L2.07991 35.1712C2.01116 35.1937 1.94366 35.205 1.87491 35.205Z" fill="#0F5850"/>
<path d="M4.2399 38.0461C3.98115 38.0461 3.7399 37.8849 3.64865 37.6261C3.53615 37.2999 3.70865 36.9449 4.0349 36.8311L9.6274 34.8936C9.95365 34.7836 10.3086 34.9524 10.4236 35.2799C10.5361 35.6061 10.3636 35.9611 10.0374 36.0749L4.4449 38.0124C4.37615 38.0349 4.3074 38.0461 4.2399 38.0461Z" fill="#0F5850"/>
</svg>
