<svg width="40" height="40" viewBox="0 0 40 40" fill="none" xmlns="http://www.w3.org/2000/svg">
<g clip-path="url(#clip0_59_186)">
<path d="M23.1596 24.4836L21.3071 23.5179V21.8758L25.448 22.8328C25.6804 22.8866 25.9244 22.8312 26.1108 22.6826C26.2972 22.534 26.4057 22.3084 26.4052 22.07L26.4007 19.8801C26.3967 18.965 25.8706 18.6688 25.4864 18.4526L21.3071 16.0602V14.6862C21.3071 13.2293 20.1431 11.0681 18.535 11.0681C16.9268 11.0681 15.7628 13.2293 15.7628 14.6862V16.0602L11.6643 18.4068L11.5878 18.4499C11.2019 18.6663 10.6734 18.9626 10.6693 19.882L10.6648 22.07C10.6643 22.3084 10.7727 22.534 10.9592 22.6826C11.1456 22.8311 11.3895 22.8865 11.622 22.8328L15.7629 21.8758V23.5179L13.9103 24.4836C13.6521 24.6182 13.4903 24.8852 13.4903 25.1764V28.135C13.4903 28.3837 13.6087 28.6175 13.8091 28.7647C14.0095 28.9119 14.2681 28.9548 14.5053 28.8804L18.5351 27.6162C18.5351 27.6162 22.7203 28.9162 22.7986 28.9162C22.963 28.9162 23.1253 28.8644 23.261 28.7647C23.4614 28.6175 23.5799 28.3837 23.5799 28.135V25.1764C23.5798 24.8852 23.4178 24.6182 23.1596 24.4836ZM22.0173 27.0711L18.7688 26.0519C18.6927 26.028 18.6138 26.0162 18.535 26.0162C18.4561 26.0162 18.3772 26.0281 18.3011 26.0519L15.0526 27.0711V25.6501L16.9052 24.6844C17.1634 24.5498 17.3253 24.2828 17.3253 23.9916V20.8935C17.3253 20.6554 17.2167 20.4302 17.0303 20.282C16.8439 20.1338 16.6002 20.0786 16.3681 20.1323L12.2291 21.0887L12.2315 19.8871C12.2315 19.8851 12.2315 19.8831 12.2315 19.8812C12.2682 19.8595 16.9321 17.1911 16.9321 17.1911C17.1751 17.0519 17.3251 16.7932 17.3251 16.5131V14.6861C17.3251 13.86 18.0486 12.6305 18.5347 12.6305C19.0208 12.6305 19.7443 13.86 19.7443 14.6861V16.5131C19.7443 16.7932 19.8943 17.0519 20.1374 17.1911C20.1374 17.1911 24.8017 19.8602 24.8379 19.8816V19.8851L24.8403 21.0887L20.7014 20.1322C20.4694 20.0785 20.2256 20.1337 20.0392 20.2819C19.8528 20.4301 19.7442 20.6553 19.7442 20.8934V23.9916C19.7442 24.2827 19.9061 24.5498 20.1643 24.6843L22.0168 25.6501V27.0711H22.0173Z" fill="#0F5850"/>
<path d="M33.5778 27.3814C34.0183 26.134 34.2422 24.9052 34.2422 23.7193V7.98508C34.2422 7.75719 34.1427 7.5407 33.9698 7.39234C33.7969 7.24391 33.5678 7.17844 33.3426 7.21289C30.1593 7.70055 22.4144 8.02039 19.2557 0.479453C19.1341 0.189063 18.85 0 18.5351 0H18.5351C18.2203 0 17.9362 0.188906 17.8145 0.479219C14.6534 8.02008 6.90999 7.70031 3.72749 7.21289C3.50218 7.17852 3.27319 7.24391 3.1003 7.39234C2.92741 7.5407 2.82796 7.75727 2.82796 7.98508V13.393C2.82796 13.8245 3.17772 14.1742 3.60921 14.1742C4.04069 14.1742 4.39046 13.8245 4.39046 13.393V8.87633C7.35577 9.20562 10.1308 8.88836 12.4647 7.94703C15.0969 6.88523 17.133 5.07945 18.5348 2.56836C19.936 5.07953 21.9719 6.88508 24.6046 7.94703C26.9387 8.88844 29.7143 9.20578 32.6796 8.87633V23.7193C32.6796 24.7145 32.4908 25.7551 32.119 26.8206C31.5896 26.6861 31.0354 26.6141 30.4646 26.6141C30.44 26.6141 30.4158 26.6157 30.3912 26.616C30.7847 25.6152 30.984 24.645 30.984 23.7193V11.4708C30.984 11.0429 30.6398 10.6946 30.2119 10.6895C25.6543 10.6359 21.8134 9.08461 19.1042 6.20312C18.9566 6.04609 18.7506 5.95703 18.535 5.95703C18.3194 5.95703 18.1134 6.04609 17.9658 6.20312C15.2567 9.08453 11.4157 10.6359 6.85804 10.6895C6.43015 10.6945 6.08601 11.0428 6.08601 11.4708V23.7193C6.08601 26.9842 8.55796 29.9651 9.62085 31.0954C11.882 33.4983 14.9594 35.4374 18.2861 36.5556C18.4467 36.6096 18.6237 36.6096 18.7843 36.5555C20.5509 35.9606 22.2636 35.1288 23.8111 34.1212C23.8845 34.7217 24.0372 35.298 24.2595 35.8389C22.4765 36.9422 20.5549 37.8043 18.5348 38.4049C14.6275 37.2449 11.0295 35.0644 8.38288 32.2486C5.84554 29.5491 4.39038 26.4404 4.39038 23.7194V20.4109C4.39038 19.9794 4.04062 19.6296 3.60913 19.6296C3.17765 19.6296 2.82788 19.9794 2.82788 20.4109V23.7194C2.82788 26.8796 4.39632 30.2888 7.24436 33.3188C10.1295 36.3884 14.0629 38.7504 18.3198 39.9698C18.3901 39.99 18.4626 40.0001 18.535 40.0001C18.6076 40.0001 18.6801 39.99 18.7506 39.9698C20.9642 39.3341 23.0692 38.4051 25.02 37.2057C26.2383 38.8961 28.2242 40 30.4647 40C34.163 40 37.1719 36.997 37.1719 33.3059C37.1719 30.7368 35.7123 28.5024 33.5778 27.3814ZM18.5349 34.9889C15.5439 33.9398 12.7906 32.1835 10.7591 30.0247C9.82382 29.0302 7.64866 26.4252 7.64866 23.7193V12.2294C12.0029 12.0246 15.7377 10.5206 18.5351 7.84742C21.3326 10.5207 25.0674 12.0247 29.4216 12.2294V23.7193C29.4216 24.6974 29.1293 25.7638 28.5535 26.8927C26.1317 27.6129 24.2803 29.6642 23.8542 32.1932C22.2662 33.3591 20.4385 34.3202 18.5349 34.9889ZM30.4647 38.4375C27.6291 38.4375 25.3222 36.1355 25.3222 33.3059C25.3222 30.4776 27.6291 28.1766 30.4647 28.1766C33.3015 28.1766 35.6094 30.4777 35.6094 33.3059C35.6094 36.1355 33.3015 38.4375 30.4647 38.4375Z" fill="#0F5850"/>
<path d="M32.9557 31.1619C32.6252 30.8844 32.1324 30.9276 31.855 31.258L29.7623 33.7512L28.9805 33.0904C28.6509 32.8118 28.158 32.8531 27.8795 33.1826C27.6009 33.5122 27.6422 34.0051 27.9717 34.2836L29.3522 35.4507C29.4938 35.5704 29.6727 35.6353 29.8566 35.6353C29.8787 35.6353 29.9009 35.6343 29.9232 35.6324C30.1301 35.6147 30.3215 35.5154 30.455 35.3563L33.0517 32.2626C33.3291 31.932 33.2861 31.4393 32.9557 31.1619Z" fill="#0F5850"/>
<path d="M3.60913 17.6842C4.04062 17.6842 4.39038 17.3344 4.39038 16.9029V16.8984C4.39038 16.467 4.04062 16.1194 3.60913 16.1194C3.17765 16.1194 2.82788 16.4713 2.82788 16.9028C2.82788 17.3343 3.17765 17.6842 3.60913 17.6842Z" fill="#0F5850"/>
</g>
<defs>
<clipPath id="clip0_59_186">
<rect width="40" height="40" fill="white"/>
</clipPath>
</defs>
</svg>
