<svg width="20" height="20" viewBox="0 0 20 20" fill="none" xmlns="http://www.w3.org/2000/svg">
<path fill-rule="evenodd" clip-rule="evenodd" d="M7.85758 7.474H10.9526V9.01567C11.3984 8.129 12.5417 7.33234 14.2592 7.33234C17.5517 7.33234 18.3334 9.09734 18.3334 12.3357V18.3332H15.0001V13.0732C15.0001 11.229 14.5542 10.189 13.4192 10.189C11.8451 10.189 11.1909 11.3098 11.1909 13.0723V18.3332H7.85758V7.474ZM2.14175 18.1915H5.47508V7.33234H2.14175V18.1915ZM5.95258 3.79151C5.9527 4.0709 5.89729 4.34753 5.78957 4.60533C5.68185 4.86312 5.52396 5.09693 5.32508 5.29317C5.12561 5.4916 4.889 5.64879 4.62877 5.75574C4.36853 5.86269 4.08977 5.91732 3.80841 5.9165C3.24142 5.91523 2.69751 5.69174 2.29341 5.294C2.09533 5.09704 1.93802 4.86296 1.83049 4.60514C1.72296 4.34733 1.66732 4.07084 1.66675 3.79151C1.66675 3.22734 1.89175 2.68734 2.29425 2.289C2.69733 1.88974 3.24189 1.66598 3.80925 1.6665C4.37758 1.6665 4.92258 1.89067 5.32508 2.289C5.72758 2.68734 5.95258 3.22734 5.95258 3.79151Z" fill="white"/>
</svg>
