<svg width="20" height="20" viewBox="0 0 20 20" fill="none" xmlns="http://www.w3.org/2000/svg">
<path d="M12.0833 2.2915C9.69909 2.2915 7.70825 4.28234 7.70825 6.6665V8.12484H5.41659C5.36133 8.12484 5.30834 8.14679 5.26927 8.18586C5.2302 8.22493 5.20825 8.27792 5.20825 8.33317V11.6665C5.20825 11.7815 5.30159 11.8748 5.41659 11.8748H7.70825V17.4998C7.70825 17.6148 7.80159 17.7082 7.91659 17.7082H11.2499C11.3052 17.7082 11.3582 17.6862 11.3972 17.6472C11.4363 17.6081 11.4583 17.5551 11.4583 17.4998V11.8748H13.7499C13.7964 11.8747 13.8415 11.8591 13.878 11.8304C13.9145 11.8017 13.9404 11.7616 13.9516 11.7165L14.7849 8.38317C14.7925 8.35253 14.793 8.32056 14.7864 8.28969C14.7798 8.25882 14.7663 8.22985 14.7469 8.20497C14.7275 8.18009 14.7026 8.15995 14.6743 8.14607C14.6459 8.13218 14.6148 8.12493 14.5833 8.12484H11.4583V6.6665C11.4604 6.50141 11.527 6.34369 11.6437 6.22695C11.7604 6.1102 11.9182 6.04366 12.0833 6.0415H14.5833C14.6385 6.0415 14.6915 6.01955 14.7306 5.98048C14.7696 5.94141 14.7916 5.88842 14.7916 5.83317V2.49984C14.7916 2.44458 14.7696 2.39159 14.7306 2.35252C14.6915 2.31345 14.6385 2.2915 14.5833 2.2915H12.0833Z" fill="white"/>
</svg>
