<svg width="381" height="52" viewBox="0 0 381 52" fill="none" xmlns="http://www.w3.org/2000/svg">
<g clip-path="url(#clip0_2001_651)">
<path d="M96.9019 0.250977H103.79V18.1323C103.79 26.0832 98.6344 30.0923 91.183 30.0923C83.7316 30.0923 78.5342 26.0749 78.5342 18.1323V0.250977H85.5062V17.8723C85.5062 22.2336 87.8022 24.3052 91.183 24.3052C94.7321 24.3052 96.9019 22.2336 96.9019 17.8723V0.250977Z" fill="white"/>
<path d="M157.026 0.250977H163.914V18.1323C163.914 26.0832 158.758 30.0923 151.307 30.0923C143.856 30.0923 138.658 26.0749 138.658 18.1323V0.250977H145.63V17.8723C145.63 22.2336 147.926 24.3052 151.307 24.3052C154.856 24.3052 157.026 22.2336 157.026 17.8723V0.250977Z" fill="white"/>
<path d="M204.804 29.5387V18.56L194.367 0.250977H201.684L208.311 13.3349L215.064 0.250977H222.255L211.776 18.5181V29.5387H204.804Z" fill="white"/>
<path d="M259.117 29.5387L254.18 8.45356L249.369 29.5387H240.455L232.137 0.250977H239.588L245.257 22.1497L250.025 0.250977H258.948L263.624 22.0658L269.335 0.250977H276.526L268.216 29.5387H259.117Z" fill="white"/>
<path d="M287.013 0.250977H280.041V29.5387H287.013V0.250977Z" fill="white"/>
<path d="M311.747 29.5387L299.964 11.0955V29.5387H292.992V0.250977H300.141L312.134 19.1723V0.250977H319.106V29.5387H311.747Z" fill="white"/>
<path d="M347.179 29.5387L346.658 25.0013C344.749 28.5826 341.284 30.1006 337.819 30.1006C329.678 30.1006 324.001 24.4393 324.001 14.9368C324.001 5.43419 329.636 -0.269043 338.466 -0.269043C345.354 -0.269043 350.114 3.57224 351.376 10.0555H344.227C343.445 7.11999 341.452 5.39225 338.466 5.39225C333.614 5.39225 331.057 8.97354 331.057 14.9368C331.057 20.9 333.614 24.6994 338.332 24.6994C341.62 24.6994 344.261 22.5439 344.261 18.4342V18.1322H338.677V13.5948H351.67V29.5303H347.162L347.179 29.5387Z" fill="white"/>
<path d="M373.082 9.49355C372.78 5.73613 370.004 4.87225 367.708 4.87225C365.412 4.87225 363.251 5.65225 363.251 7.72386C363.251 13.6871 380.273 9.92966 380.273 20.8497C380.273 25.991 376.371 30.0923 367.717 30.0923C364.252 30.0923 355.673 29.0103 355.287 19.7258H362.175C362.351 23.6593 365.513 24.8252 368.457 24.8252C370.971 24.8252 373.133 23.8774 373.133 21.8897C373.133 15.7168 356.111 20.0361 356.111 8.32773C356.111 2.19676 362.04 -0.269043 368.541 -0.269043C372.393 -0.269043 379.668 1.32452 380.063 9.49355H373.091H373.082Z" fill="white"/>
<path d="M66.3562 51.437L64.8003 47.5873H58.8796L57.3405 51.437H56.4154L61.4447 39.2002H62.2941L67.3233 51.437H66.3562ZM61.8484 40.2234L59.1739 46.8492H64.4976L61.8484 40.2234Z" fill="white"/>
<path d="M82.1081 51.437L77.2471 39.2002H78.2142L82.6127 50.4725L86.9355 39.2002H87.8438L83.0164 51.437H82.1081Z" fill="white"/>
<path d="M101.217 39.2002H100.384V51.437H101.217V39.2002Z" fill="white"/>
<path d="M123.73 51.437L122.174 47.5873H116.254L114.715 51.437H113.79L118.819 39.2002H119.668L124.697 51.437H123.73ZM119.223 40.2234L116.548 46.8492H121.872L119.223 40.2234Z" fill="white"/>
<path d="M138.482 51.437V39.9215H134.176V39.2002H143.62V39.9215H139.314V51.437H138.482Z" fill="white"/>
<path d="M156.74 39.2002H155.907V51.437H156.74V39.2002Z" fill="white"/>
<path d="M169.86 45.3315C169.86 41.4231 171.996 39.0244 175.394 39.0244C178.791 39.0244 180.902 41.4147 180.902 45.3315C180.902 49.2483 178.766 51.6638 175.394 51.6638C172.021 51.6638 169.86 49.2734 169.86 45.3315ZM180.028 45.3315C180.028 41.8676 178.413 39.7792 175.385 39.7792C172.358 39.7792 170.743 41.8676 170.743 45.3315C170.743 48.7954 172.341 50.8838 175.385 50.8838C178.43 50.8838 180.028 48.8121 180.028 45.3315Z" fill="white"/>
<path d="M202.222 51.437L194.855 40.3912V51.437H194.022V39.2002H195.082L202.541 50.4557V39.2002H203.374V51.437H202.222Z" fill="white"/>
<path d="M238.798 42.3291C238.647 40.0897 236.796 39.7543 235.384 39.7543C233.786 39.7543 232.23 40.4001 232.23 42.1027C232.23 46.011 239.69 43.6207 239.69 48.3259C239.69 50.3052 238.092 51.6555 235.35 51.6555C234.164 51.6555 231.12 51.3033 230.951 48.0826H231.801C231.893 50.2297 233.567 50.8756 235.325 50.8756C237.309 50.8756 238.849 50.2297 238.849 48.3175C238.849 44.3755 231.389 46.7826 231.389 42.1194C231.389 39.9555 233.466 39.0078 235.375 39.0078C236.746 39.0078 239.462 39.3601 239.589 42.3207H238.79L238.798 42.3291Z" fill="white"/>
<path d="M252.565 51.437V39.2002H259.579V39.9634H253.398V44.7524H259.243V45.5157H253.398V50.657H259.579V51.437H252.565Z" fill="white"/>
<path d="M279.603 51.437L276.819 46.0189H273.329V51.437H272.497V39.2002H276.374C278.88 39.2002 280.419 40.3325 280.419 42.4963C280.419 44.2157 279.326 45.4989 277.669 45.8847L280.511 51.437H279.603ZM276.525 45.2725C278.342 45.2725 279.553 44.308 279.553 42.4963C279.553 40.8273 278.518 39.9802 276.458 39.9802H273.338V45.2725H276.525Z" fill="white"/>
<path d="M297.063 51.437L292.202 39.2002H293.17L297.568 50.4725L301.891 39.2002H302.799L297.972 51.437H297.063Z" fill="white"/>
<path d="M316.171 39.2002H315.338V51.437H316.171V39.2002Z" fill="white"/>
<path d="M339.357 48.1076C338.802 50.3805 337.171 51.6638 334.664 51.6638C331.309 51.6638 329.299 49.2902 329.299 45.3315C329.299 41.3728 331.452 39.0244 334.681 39.0244C337.171 39.0244 338.76 40.2489 339.324 42.3373H338.432C337.986 40.7102 336.691 39.7876 334.681 39.7876C331.746 39.7876 330.19 41.8593 330.19 45.3399C330.19 48.8205 331.771 50.8922 334.664 50.8922C336.817 50.8922 338.138 49.9276 338.508 48.116H339.366L339.357 48.1076Z" fill="white"/>
<path d="M352.453 51.437V39.2002H359.467V39.9634H353.285V44.7524H359.139V45.5157H353.285V50.657H359.467V51.437H352.453Z" fill="white"/>
<path d="M379.382 42.3291C379.23 40.0897 377.38 39.7543 375.967 39.7543C374.369 39.7543 372.813 40.4001 372.813 42.1027C372.813 46.011 380.273 43.6207 380.273 48.3259C380.273 50.3052 378.675 51.6555 375.933 51.6555C374.748 51.6555 371.703 51.3033 371.535 48.0826H372.384C372.477 50.2297 374.15 50.8756 375.908 50.8756C377.893 50.8756 379.432 50.2297 379.432 48.3175C379.432 44.3755 371.972 46.7826 371.972 42.1194C371.972 39.9555 374.05 39.0078 375.959 39.0078C377.33 39.0078 380.038 39.3601 380.172 42.3207H379.373L379.382 42.3291Z" fill="white"/>
<path d="M126.085 14.7523H117.406L108.5 0.250977H117.179L126.085 14.7523Z" fill="#E6E6E6"/>
<path d="M117.465 14.7523H126.144L135.051 0.250977H126.371L117.465 14.7523Z" fill="white"/>
<path d="M117.465 15.5991H126.144L135.051 30.092H126.371L117.465 15.5991Z" fill="#E6E6E6"/>
<path d="M126.085 15.5991H117.406L108.5 30.092H117.179L126.085 15.5991Z" fill="white"/>
<path d="M187.302 17.6538C190.507 16.228 192.458 13.3764 192.458 9.44283C192.458 3.39574 187.824 0.242188 180.717 0.242188H169.372V5.6854H180.28C183.484 5.6854 185.393 6.98541 185.393 9.44283C185.393 12.2106 183.4 13.5441 180.28 13.5441H174.393V19.0293H180.717L186.091 29.5215H193.366L187.302 17.6454V17.6538Z" fill="white"/>
<path d="M-0.226685 0.250977V8.91486L23.0273 26.0581L46.2729 8.91486V0.250977L23.0273 17.3942L-0.226685 0.250977Z" fill="white"/>
<path d="M-0.226685 12.9492V34.5208L23.0273 51.6641L46.2813 34.5208V12.9492L23.0273 30.0924L-0.226685 12.9492ZM39.2337 26.8047V31.0402L23.0189 42.9918L6.8126 31.0402V26.8047L23.0189 38.7563L39.2337 26.8047Z" fill="white"/>
<path d="M56.4065 29.5392V0.251465H63.3785V23.9199H75.119V29.5392H56.4065Z" fill="white"/>
</g>
<defs>
<clipPath id="clip0_2001_651">
<rect width="380.138" height="52" fill="white"/>
</clipPath>
</defs>
</svg>
