<svg width="14" height="18" viewBox="0 0 14 18" fill="none" xmlns="http://www.w3.org/2000/svg">
<path fill-rule="evenodd" clip-rule="evenodd" d="M6.52186 0.202464C6.64872 0.0728199 6.8207 0 7 0C7.1793 0 7.35127 0.0728199 7.47814 0.202464L13.7932 6.65189C13.8579 6.71572 13.9094 6.79209 13.9449 6.87653C13.9804 6.96098 13.9991 7.05181 14 7.14373C14.0008 7.23566 13.9837 7.32682 13.9497 7.41192C13.9158 7.49702 13.8655 7.57434 13.802 7.63937C13.7386 7.7044 13.663 7.75584 13.5799 7.79069C13.4968 7.82554 13.4077 7.8431 13.3178 7.84235C13.228 7.84159 13.1392 7.82254 13.0566 7.78629C12.9741 7.75005 12.8994 7.69735 12.8369 7.63126L7.67752 2.36243L7.68744 17.3068C7.68768 17.4904 7.61662 17.6666 7.4899 17.7966C7.36318 17.9266 7.19118 17.9998 7.01173 18C6.83228 18.0002 6.66008 17.9275 6.53302 17.7979C6.40597 17.6682 6.33445 17.4922 6.33421 17.3086L6.32519 2.36058L1.16307 7.63218C1.10063 7.69827 1.02594 7.75098 0.943374 7.78722C0.860807 7.82346 0.772013 7.84251 0.682173 7.84327C0.592333 7.84402 0.503245 7.82646 0.420108 7.79162C0.336971 7.75677 0.261449 7.70532 0.19795 7.64029C0.134451 7.57526 0.0842464 7.49794 0.0502648 7.41284C0.0162832 7.32775 -0.000794381 7.23658 2.83744e-05 7.14466C0.00085113 7.05274 0.0195579 6.9619 0.055057 6.87746C0.0905561 6.79301 0.142136 6.71664 0.206789 6.65281L6.52186 0.202464Z" fill="#111111"/>
</svg>
