<svg width="20" height="20" viewBox="0 0 20 20" fill="none" xmlns="http://www.w3.org/2000/svg">
<path d="M16.2498 2.5H14.9998C14.9998 1.81083 14.439 1.25 13.7498 1.25C13.0607 1.25 12.4998 1.81083 12.4998 2.5H7.49984C7.49984 1.81083 6.939 1.25 6.24984 1.25C5.56067 1.25 4.99984 1.81083 4.99984 2.5H3.74984C2.60109 2.5 1.6665 3.43458 1.6665 4.58333V16.6667C1.6665 17.8154 2.60109 18.75 3.74984 18.75H16.2498C17.3986 18.75 18.3332 17.8154 18.3332 16.6667V4.58333C18.3332 3.43458 17.3986 2.5 16.2498 2.5ZM13.3332 2.5C13.3332 2.27042 13.5198 2.08333 13.7498 2.08333C13.9798 2.08333 14.1665 2.27042 14.1665 2.5V3.33333C14.1665 3.56292 13.9798 3.75 13.7498 3.75C13.5198 3.75 13.3332 3.56292 13.3332 3.33333V2.5ZM5.83317 2.5C5.83317 2.27042 6.01984 2.08333 6.24984 2.08333C6.47984 2.08333 6.6665 2.27042 6.6665 2.5V3.33333C6.6665 3.56292 6.47984 3.75 6.24984 3.75C6.01984 3.75 5.83317 3.56292 5.83317 3.33333V2.5ZM2.49984 4.58333C2.49984 3.89417 3.06067 3.33333 3.74984 3.33333H4.99984C4.99984 4.0225 5.56067 4.58333 6.24984 4.58333C6.939 4.58333 7.49984 4.0225 7.49984 3.33333H12.4998C12.4998 4.0225 13.0607 4.58333 13.7498 4.58333C14.439 4.58333 14.9998 4.0225 14.9998 3.33333H16.2498C16.939 3.33333 17.4998 3.89417 17.4998 4.58333V6.25H2.49984V4.58333ZM17.4998 16.6667C17.4998 17.3558 16.939 17.9167 16.2498 17.9167H3.74984C3.06067 17.9167 2.49984 17.3558 2.49984 16.6667V7.08333H17.4998V16.6667Z" fill="#031A1A"/>
<path d="M4.99984 11.6667H6.24984C6.70942 11.6667 7.08317 11.2929 7.08317 10.8333V9.58333C7.08317 9.12375 6.70942 8.75 6.24984 8.75H4.99984C4.54025 8.75 4.1665 9.12375 4.1665 9.58333V10.8333C4.1665 11.2929 4.54025 11.6667 4.99984 11.6667ZM4.99984 9.58333H6.24984L6.25067 10.8333H4.99984V9.58333Z" fill="#031A1A"/>
<path d="M9.37484 11.6667H10.6248C11.0844 11.6667 11.4582 11.2929 11.4582 10.8333V9.58333C11.4582 9.12375 11.0844 8.75 10.6248 8.75H9.37484C8.91525 8.75 8.5415 9.12375 8.5415 9.58333V10.8333C8.5415 11.2929 8.91525 11.6667 9.37484 11.6667ZM9.37484 9.58333H10.6248L10.6257 10.8333H9.37484V9.58333Z" fill="#031A1A"/>
<path d="M13.7498 11.6667H14.9998C15.4594 11.6667 15.8332 11.2929 15.8332 10.8333V9.58333C15.8332 9.12375 15.4594 8.75 14.9998 8.75H13.7498C13.2903 8.75 12.9165 9.12375 12.9165 9.58333V10.8333C12.9165 11.2929 13.2903 11.6667 13.7498 11.6667ZM13.7498 9.58333H14.9998L15.0007 10.8333H13.7498V9.58333Z" fill="#031A1A"/>
<path d="M4.99984 16.25H6.24984C6.70942 16.25 7.08317 15.8763 7.08317 15.4167V14.1667C7.08317 13.7071 6.70942 13.3334 6.24984 13.3334H4.99984C4.54025 13.3334 4.1665 13.7071 4.1665 14.1667V15.4167C4.1665 15.8763 4.54025 16.25 4.99984 16.25ZM4.99984 14.1667H6.24984L6.25067 15.4167H4.99984V14.1667Z" fill="#031A1A"/>
<path d="M9.37484 16.25H10.6248C11.0844 16.25 11.4582 15.8763 11.4582 15.4167V14.1667C11.4582 13.7071 11.0844 13.3334 10.6248 13.3334H9.37484C8.91525 13.3334 8.5415 13.7071 8.5415 14.1667V15.4167C8.5415 15.8763 8.91525 16.25 9.37484 16.25ZM9.37484 14.1667H10.6248L10.6257 15.4167H9.37484V14.1667Z" fill="#031A1A"/>
<path d="M13.7498 16.25H14.9998C15.4594 16.25 15.8332 15.8763 15.8332 15.4167V14.1667C15.8332 13.7071 15.4594 13.3334 14.9998 13.3334H13.7498C13.2903 13.3334 12.9165 13.7071 12.9165 14.1667V15.4167C12.9165 15.8763 13.2903 16.25 13.7498 16.25ZM13.7498 14.1667H14.9998L15.0007 15.4167H13.7498V14.1667Z" fill="#031A1A"/>
</svg>
