<svg width="24" height="24" viewBox="0 0 24 24" fill="none" xmlns="http://www.w3.org/2000/svg">
<g clip-path="url(#clip0_226_2588)">
<path d="M11.9998 3.91299C12.2867 3.91299 12.5215 3.67821 12.5215 3.39125V3.13038C12.5215 2.84343 12.2867 2.60864 11.9998 2.60864C11.7128 2.60864 11.478 2.84343 11.478 3.13038V3.39125C11.478 3.67821 11.7128 3.91299 11.9998 3.91299Z" fill="#B79946"/>
<path d="M11.9998 20.0869C11.7128 20.0869 11.478 20.3217 11.478 20.6087V20.8695C11.478 21.1565 11.7128 21.3913 11.9998 21.3913C12.2867 21.3913 12.5215 21.1565 12.5215 20.8695V20.6087C12.5215 20.3217 12.2867 20.0869 11.9998 20.0869Z" fill="#B79946"/>
<path d="M3.3915 11.4783H3.13063C2.84367 11.4783 2.60889 11.7131 2.60889 12C2.60889 12.287 2.84367 12.5217 3.13063 12.5217H3.3915C3.67845 12.5217 3.91323 12.287 3.91323 12C3.91323 11.7131 3.67845 11.4783 3.3915 11.4783Z" fill="#B79946"/>
<path d="M20.8695 11.4783H20.6087C20.3217 11.4783 20.0869 11.7131 20.0869 12C20.0869 12.287 20.3217 12.5217 20.6087 12.5217H20.8695C21.1565 12.5217 21.3913 12.287 21.3913 12C21.3913 11.7131 21.1565 11.4783 20.8695 11.4783Z" fill="#B79946"/>
<path d="M6.10424 5.37393C5.89555 5.16523 5.5825 5.16523 5.37381 5.37393C5.16511 5.58262 5.16511 5.89567 5.37381 6.10436L5.55642 6.28697C5.66076 6.39132 5.7912 6.44349 5.92163 6.44349C6.05207 6.44349 6.1825 6.39132 6.28685 6.28697C6.49555 6.07828 6.49555 5.76523 6.28685 5.55654L6.10424 5.37393Z" fill="#B79946"/>
<path d="M5.55642 17.713L5.37381 17.8956C5.16511 18.1043 5.16511 18.4174 5.37381 18.6261C5.47815 18.7304 5.60859 18.7826 5.73902 18.7826C5.86946 18.7826 5.99989 18.7304 6.10424 18.6261L6.28685 18.4435C6.49555 18.2348 6.49555 17.9217 6.28685 17.713C6.07815 17.5043 5.76511 17.5043 5.55642 17.713Z" fill="#B79946"/>
<path d="M17.8958 5.37393L17.7132 5.55654C17.5045 5.76523 17.5045 6.07828 17.7132 6.28697C17.8175 6.39132 17.9479 6.44349 18.0784 6.44349C18.2088 6.44349 18.3392 6.39132 18.4436 6.28697L18.6262 6.10436C18.8349 5.89567 18.8349 5.58262 18.6262 5.37393C18.4175 5.16523 18.1045 5.16523 17.8958 5.37393Z" fill="#B79946"/>
<path d="M12.5215 11.7913V7.04347C12.5215 6.75651 12.2867 6.52173 11.9998 6.52173C11.7128 6.52173 11.478 6.75651 11.478 7.04347V12C11.478 12.1304 11.5302 12.2609 11.6345 12.3652L17.3476 18.0783C17.4519 18.1826 17.5824 18.2348 17.7128 18.2348C17.8432 18.2348 17.9737 18.1826 18.078 18.0783C18.2867 17.8696 18.2867 17.5565 18.078 17.3478L12.5215 11.7913Z" fill="#B79946"/>
<path d="M12 0C5.37391 0 0 5.37391 0 12C0 18.6261 5.37391 24 12 24C18.6261 24 24 18.6261 24 12C24 5.37391 18.6261 0 12 0ZM12 22.9565C5.94783 22.9565 1.04348 18.0522 1.04348 12C1.04348 5.94783 5.94783 1.04348 12 1.04348C18.0522 1.04348 22.9565 5.94783 22.9565 12C22.9565 18.0522 18.0522 22.9565 12 22.9565Z" fill="#B79946"/>
</g>
<defs>
<clipPath id="clip0_226_2588">
<rect width="24" height="24" fill="white"/>
</clipPath>
</defs>
</svg>
