<svg width="24" height="24" viewBox="0 0 24 24" fill="none" xmlns="http://www.w3.org/2000/svg">
<path d="M17.7667 14.1875C17.6294 14.1102 17.4737 14.0226 17.2862 13.9098C17.1815 13.8466 17.0499 13.7601 16.9104 13.6686C16.1947 13.1988 15.6523 12.8663 15.1906 12.8663C15.0825 12.8663 14.9802 12.8846 14.887 12.9206C14.4825 13.0763 14.1503 13.4925 13.8291 13.8948C13.7114 14.0422 13.5429 14.2533 13.4407 14.3476C13.0351 14.2739 12.1797 13.744 11.2567 12.821C10.3325 11.8968 9.80254 11.0405 9.72978 10.6359C9.82399 10.5333 10.0367 10.3635 10.185 10.245C10.5859 9.92502 11.0004 9.59411 11.157 9.19088C11.3568 8.6728 10.9906 8.05318 10.409 7.16719C10.3175 7.02774 10.2311 6.89603 10.1683 6.79218C10.0551 6.60392 9.9675 6.44816 9.89025 6.31088C9.57316 5.74734 9.36366 5.37488 8.57642 5.37488C8.06549 5.37488 7.3431 5.8577 6.85379 6.3365C6.14267 7.0325 5.75098 7.83605 5.75098 8.60069C5.75233 10.6775 6.91138 13.0578 8.93095 15.1336C8.93442 15.137 8.93789 15.138 8.94146 15.1414C11.0173 17.1611 13.3989 18.3161 15.4756 18.3161H15.4764C16.24 18.3161 17.0438 17.9289 17.7398 17.2182C18.219 16.7289 18.7024 16.0118 18.7024 15.5012C18.7025 14.7141 18.3302 14.5046 17.7667 14.1875ZM15.4758 17.2432C13.7068 17.2419 11.549 16.1698 9.70242 14.3754C7.90773 12.5286 6.83569 10.3706 6.83455 8.60177C6.83455 7.53185 8.22298 6.51458 8.58607 6.45883C8.66023 6.45916 8.69913 6.46355 8.71766 6.46669C8.76566 6.52195 8.86107 6.69152 8.94601 6.84251C9.02289 6.97914 9.11862 7.14925 9.24052 7.35182C9.31419 7.47388 9.40608 7.61381 9.50332 7.76193C9.68736 8.04235 10.0573 8.606 10.1197 8.84659C10.0154 8.99422 9.6918 9.25253 9.50912 9.39838C9.04153 9.7717 8.6377 10.0941 8.6377 10.5496C8.63884 11.65 10.0562 13.1529 10.4906 13.5873C10.925 14.0217 12.4279 15.4391 13.5306 15.4402C13.9833 15.4387 14.3042 15.0365 14.676 14.5709C14.8226 14.3873 15.0825 14.0617 15.2307 13.958C15.471 14.0199 16.0354 14.3903 16.316 14.5746C16.4641 14.6718 16.604 14.7636 16.7268 14.8378C16.9287 14.9592 17.0988 15.055 17.2354 15.1318C17.3864 15.2168 17.556 15.3122 17.6113 15.3602C17.6144 15.3787 17.6187 15.4176 17.6191 15.4917C17.5629 15.8545 16.5454 17.2419 15.4758 17.2432Z" fill="#B79946"/>
<path d="M22.999 12.1048C22.961 9.17707 21.7858 6.41051 19.6901 4.31471C17.5556 2.18027 14.7382 1.00476 11.7567 1.00476C8.87859 1.00476 6.18614 2.11223 4.17523 4.12308C2.39078 5.90754 1.29599 8.28749 1.09234 10.8246C0.899201 13.2318 1.51199 15.6677 2.8205 17.7159L1.03367 22.5458C0.958686 22.7486 1.01135 22.9765 1.16775 23.1257C1.27052 23.2239 1.40515 23.2756 1.54189 23.2756C1.61319 23.2756 1.68513 23.2549 1.75334 23.226L6.40702 21.2456C8.18356 22.3513 10.2149 22.9212 12.3008 22.9212H12.3011C15.1787 22.9212 17.8711 21.827 19.8817 19.8163C21.93 17.768 23.0371 15.0378 22.999 12.1048ZM19.1154 19.0633C17.3093 20.8695 14.8892 21.8641 12.3008 21.864C10.3302 21.864 8.41305 21.2872 6.75645 20.196C6.66663 20.1368 6.56283 20.1067 6.45843 20.1067C6.38675 20.1067 6.31481 20.1209 6.24693 20.1497L2.48515 21.7452L3.93166 17.8353C3.99217 17.6716 3.97017 17.4888 3.8726 17.3442C1.21386 13.4053 1.66336 8.16728 4.94139 4.8893C6.74762 3.08307 9.16799 2.08828 11.7567 2.08828C14.4488 2.08828 16.9941 3.15106 18.9239 5.08086C20.8188 6.97573 21.8812 9.4752 21.9156 12.1189C21.9499 14.7572 20.9554 17.2234 19.1154 19.0633Z" fill="#B79946"/>
</svg>
