<svg width="20" height="20" viewBox="0 0 20 20" fill="none" xmlns="http://www.w3.org/2000/svg">
<g clip-path="url(#clip0_113_4543)">
<path d="M9.46484 1.94727C9.68672 1.50812 10.3133 1.50812 10.5352 1.94727L12.3916 5.62012C12.5953 6.02306 12.9806 6.30296 13.4268 6.37207L17.4932 7.00195C17.9794 7.07726 18.1732 7.67378 17.8242 8.02051L14.9043 10.9209C14.5841 11.239 14.4367 11.6921 14.5088 12.1377L15.167 16.2002C15.2456 16.6859 14.7374 17.0549 14.2998 16.8301L10.6396 14.9492C10.2381 14.7429 9.76195 14.7429 9.36035 14.9492L5.7002 16.8301C5.26257 17.0549 4.75439 16.6859 4.83301 16.2002L5.49121 12.1377C5.56328 11.6921 5.41592 11.239 5.0957 10.9209L2.17578 8.02051C1.82677 7.67378 2.02065 7.07726 2.50684 7.00195L6.57324 6.37207C7.01941 6.30296 7.40475 6.02306 7.6084 5.62012L9.46484 1.94727Z" fill="#B79946" stroke="#B79946" stroke-width="0.800255"/>
</g>
<defs>
<clipPath id="clip0_113_4543">
<rect width="20" height="20" fill="white"/>
</clipPath>
</defs>
</svg>
