<svg width="20" height="20" viewBox="0 0 20 20" fill="none" xmlns="http://www.w3.org/2000/svg">
<path d="M12.0835 2.29167C9.69933 2.29167 7.7085 4.2825 7.7085 6.66667V8.125H5.41683C5.36158 8.125 5.30859 8.14695 5.26952 8.18602C5.23045 8.22509 5.2085 8.27808 5.2085 8.33333V11.6667C5.2085 11.7817 5.30183 11.875 5.41683 11.875H7.7085V17.5C7.7085 17.615 7.80183 17.7083 7.91683 17.7083H11.2502C11.3054 17.7083 11.3584 17.6864 11.3975 17.6473C11.4365 17.6082 11.4585 17.5553 11.4585 17.5V11.875H13.7502C13.7966 11.8749 13.8417 11.8592 13.8782 11.8305C13.9148 11.8018 13.9407 11.7618 13.9518 11.7167L14.7852 8.38333C14.7927 8.35269 14.7933 8.32073 14.7867 8.28986C14.7801 8.25899 14.7666 8.23002 14.7471 8.20514C14.7277 8.18025 14.7029 8.16011 14.6745 8.14623C14.6462 8.13235 14.6151 8.12509 14.5835 8.125H11.4585V6.66667C11.4607 6.50158 11.5272 6.34386 11.6439 6.22711C11.7607 6.11037 11.9184 6.04383 12.0835 6.04167H14.5835C14.6387 6.04167 14.6917 6.01972 14.7308 5.98065C14.7699 5.94158 14.7918 5.88859 14.7918 5.83333V2.5C14.7918 2.44475 14.7699 2.39176 14.7308 2.35269C14.6917 2.31362 14.6387 2.29167 14.5835 2.29167H12.0835Z" fill="white"/>
</svg>
