<svg width="20" height="20" viewBox="0 0 20 20" fill="none" xmlns="http://www.w3.org/2000/svg">
<path d="M12.0833 2.29167C9.69909 2.29167 7.70825 4.2825 7.70825 6.66667V8.125H5.41659C5.36133 8.125 5.30834 8.14695 5.26927 8.18602C5.2302 8.22509 5.20825 8.27808 5.20825 8.33333V11.6667C5.20825 11.7817 5.30159 11.875 5.41659 11.875H7.70825V17.5C7.70825 17.615 7.80159 17.7083 7.91659 17.7083H11.2499C11.3052 17.7083 11.3582 17.6864 11.3972 17.6473C11.4363 17.6082 11.4583 17.5553 11.4583 17.5V11.875H13.7499C13.7964 11.8749 13.8415 11.8592 13.878 11.8305C13.9145 11.8018 13.9404 11.7618 13.9516 11.7167L14.7849 8.38333C14.7925 8.35269 14.793 8.32073 14.7864 8.28986C14.7798 8.25899 14.7663 8.23002 14.7469 8.20514C14.7275 8.18025 14.7026 8.16011 14.6743 8.14623C14.6459 8.13235 14.6148 8.12509 14.5833 8.125H11.4583V6.66667C11.4604 6.50158 11.527 6.34386 11.6437 6.22711C11.7604 6.11037 11.9182 6.04383 12.0833 6.04167H14.5833C14.6385 6.04167 14.6915 6.01972 14.7306 5.98065C14.7696 5.94158 14.7916 5.88859 14.7916 5.83333V2.5C14.7916 2.44475 14.7696 2.39176 14.7306 2.35269C14.6915 2.31362 14.6385 2.29167 14.5833 2.29167H12.0833Z" fill="#0F5850"/>
</svg>
