<svg width="20" height="20" viewBox="0 0 20 20" fill="none" xmlns="http://www.w3.org/2000/svg">
<path fill-rule="evenodd" clip-rule="evenodd" d="M7.9432 6.5752H10.9144V8.0552C11.3424 7.204 12.44 6.4392 14.0888 6.4392C17.2496 6.4392 18 8.1336 18 11.2424V17H14.8V11.9504C14.8 10.18 14.372 9.1816 13.2824 9.1816C11.7712 9.1816 11.1432 10.2576 11.1432 11.9496V17H7.9432V6.5752ZM2.456 16.864H5.656V6.4392H2.456V16.864ZM6.1144 3.04C6.11452 3.30822 6.06132 3.57379 5.95791 3.82127C5.85449 4.06875 5.70292 4.29321 5.512 4.4816C5.32051 4.67209 5.09336 4.82299 4.84354 4.92567C4.59371 5.02834 4.3261 5.08079 4.056 5.08C3.51168 5.07878 2.98953 4.86423 2.6016 4.4824C2.41144 4.29332 2.26043 4.0686 2.1572 3.8211C2.05397 3.57359 2.00055 3.30817 2 3.04C2 2.4984 2.216 1.98 2.6024 1.5976C2.98936 1.21431 3.51214 0.999501 4.0568 1C4.6024 1 5.1256 1.2152 5.512 1.5976C5.8984 1.98 6.1144 2.4984 6.1144 3.04Z" fill="white"/>
</svg>
