<svg width="212" height="29" viewBox="0 0 212 29" fill="none" xmlns="http://www.w3.org/2000/svg">
<g clip-path="url(#clip0_2027_586)">
<path d="M54.0411 0.140289H57.8825V10.1125C57.8825 14.5467 55.0073 16.7826 50.8518 16.7826C46.6962 16.7826 43.7976 14.5421 43.7976 10.1125V0.140289H47.6858V9.96755C47.6858 12.3998 48.9663 13.5551 50.8518 13.5551C52.8311 13.5551 54.0411 12.3998 54.0411 9.96755V0.140289Z" fill="white"/>
<path d="M87.5719 0.140289H91.4132V10.1125C91.4132 14.5467 88.5381 16.7826 84.3825 16.7826C80.227 16.7826 77.3284 14.5421 77.3284 10.1125V0.140289H81.2166V9.96755C81.2166 12.3998 82.497 13.5551 84.3825 13.5551C86.3618 13.5551 87.5719 12.3998 87.5719 9.96755V0.140289Z" fill="white"/>
<path d="M114.217 16.4738V10.3511L108.397 0.140289H112.477L116.173 7.43707L119.939 0.140289H123.95L118.106 10.3277V16.4738H114.217Z" fill="white"/>
<path d="M144.507 16.4738L141.754 4.7148L139.071 16.4738H134.099L129.461 0.140289H133.616L136.778 12.353L139.437 0.140289H144.413L147.021 12.3063L150.206 0.140289H154.216L149.582 16.4738H144.507Z" fill="white"/>
<path d="M160.065 0.140289H156.176V16.4738H160.065V0.140289Z" fill="white"/>
<path d="M173.859 16.4738L167.288 6.1882V16.4738H163.399V0.140289H167.386L174.074 10.6925V0.140289H177.963V16.4738H173.859Z" fill="white"/>
<path d="M193.619 16.4738L193.328 13.9434C192.263 15.9406 190.331 16.7872 188.398 16.7872C183.858 16.7872 180.692 13.63 180.692 8.33045C180.692 3.03094 183.835 -0.149708 188.76 -0.149708C192.601 -0.149708 195.256 1.99255 195.959 5.60819H191.972C191.536 3.9711 190.425 3.00755 188.76 3.00755C186.053 3.00755 184.628 5.00481 184.628 8.33045C184.628 11.6561 186.053 13.775 188.685 13.775C190.518 13.775 191.991 12.5729 191.991 10.2809V10.1126H188.877V7.58207H196.123V16.4692H193.609L193.619 16.4738Z" fill="white"/>
<path d="M208.065 5.29482C207.896 3.19933 206.348 2.71755 205.068 2.71755C203.787 2.71755 202.582 3.15255 202.582 4.30787C202.582 7.63352 212.075 5.53803 212.075 11.628C212.075 14.4953 209.899 16.7826 205.072 16.7826C203.14 16.7826 198.356 16.1792 198.14 11.0013H201.981C202.08 13.195 203.843 13.8451 205.485 13.8451C206.887 13.8451 208.093 13.3166 208.093 12.208C208.093 8.76546 198.6 11.1743 198.6 4.64465C198.6 1.22545 201.906 -0.149708 205.532 -0.149708C207.68 -0.149708 211.737 0.739009 211.958 5.29482H208.069H208.065Z" fill="white"/>
<path d="M37.0061 28.6866L36.1384 26.5396H32.8364L31.9781 28.6866H31.4622L34.2669 21.8622H34.7407L37.5454 28.6866H37.0061ZM34.4921 22.4329L33.0006 26.128H35.9695L34.4921 22.4329Z" fill="white"/>
<path d="M45.7911 28.6866L43.0801 21.8622H43.6195L46.0725 28.1487L48.4833 21.8622H48.9898L46.2976 28.6866H45.7911Z" fill="white"/>
<path d="M56.4473 21.8622H55.9829V28.6866H56.4473V21.8622Z" fill="white"/>
<path d="M69.0031 28.6866L68.1354 26.5396H64.8335L63.9752 28.6866H63.4592L66.264 21.8622H66.7377L69.5425 28.6866H69.0031ZM66.4892 22.4329L64.9976 26.128H67.9666L66.4892 22.4329Z" fill="white"/>
<path d="M77.2298 28.6866V22.2645H74.8284V21.8622H80.0955V22.2645H77.6941V28.6866H77.2298Z" fill="white"/>
<path d="M87.4123 21.8622H86.948V28.6866H87.4123V21.8622Z" fill="white"/>
<path d="M94.7292 25.2814C94.7292 23.1017 95.9206 21.764 97.8154 21.764C99.7103 21.764 100.888 23.0971 100.888 25.2814C100.888 27.4658 99.6962 28.8129 97.8154 28.8129C95.9346 28.8129 94.7292 27.4798 94.7292 25.2814ZM100.4 25.2814C100.4 23.3496 99.4993 22.185 97.8108 22.185C96.1223 22.185 95.2217 23.3496 95.2217 25.2814C95.2217 27.2132 96.1129 28.3779 97.8108 28.3779C99.5086 28.3779 100.4 27.2226 100.4 25.2814Z" fill="white"/>
<path d="M112.777 28.6866L108.669 22.5264V28.6866H108.204V21.8622H108.795L112.956 28.1393V21.8622H113.42V28.6866H112.777Z" fill="white"/>
<path d="M133.175 23.6069C133.091 22.358 132.059 22.1709 131.271 22.1709C130.38 22.1709 129.512 22.5311 129.512 23.4806C129.512 25.6603 133.673 24.3272 133.673 26.9513C133.673 28.0551 132.781 28.8082 131.252 28.8082C130.591 28.8082 128.893 28.6117 128.799 26.8156H129.273C129.325 28.013 130.258 28.3732 131.238 28.3732C132.345 28.3732 133.203 28.013 133.203 26.9466C133.203 24.7482 129.043 26.0906 129.043 23.49C129.043 22.2832 130.202 21.7547 131.266 21.7547C132.031 21.7547 133.546 21.9511 133.616 23.6022H133.171L133.175 23.6069Z" fill="white"/>
<path d="M140.853 28.6866V21.8622H144.765V22.2879H141.318V24.9587H144.577V25.3843H141.318V28.2516H144.765V28.6866H140.853Z" fill="white"/>
<path d="M155.933 28.6866L154.38 25.665H152.434V28.6866H151.969V21.8622H154.131C155.529 21.8622 156.387 22.4937 156.387 23.7005C156.387 24.6593 155.778 25.375 154.854 25.5901L156.439 28.6866H155.933ZM154.216 25.2487C155.229 25.2487 155.904 24.7108 155.904 23.7005C155.904 22.7697 155.327 22.2972 154.178 22.2972H152.438V25.2487H154.216Z" fill="white"/>
<path d="M165.669 28.6866L162.958 21.8622H163.498L165.951 28.1487L168.362 21.8622H168.868L166.176 28.6866H165.669Z" fill="white"/>
<path d="M176.326 21.8622H175.861V28.6866H176.326V21.8622Z" fill="white"/>
<path d="M189.257 26.8296C188.947 28.0972 188.037 28.8129 186.64 28.8129C184.768 28.8129 183.647 27.4892 183.647 25.2814C183.647 23.0737 184.848 21.764 186.649 21.764C188.037 21.764 188.924 22.4469 189.238 23.6116H188.741C188.492 22.7042 187.77 22.1897 186.649 22.1897C185.012 22.1897 184.144 23.345 184.144 25.2861C184.144 27.2272 185.026 28.3826 186.64 28.3826C187.84 28.3826 188.577 27.8447 188.783 26.8343H189.261L189.257 26.8296Z" fill="white"/>
<path d="M196.56 28.6866V21.8622H200.471V22.2879H197.024V24.9587H200.288V25.3843H197.024V28.2516H200.471V28.6866H196.56Z" fill="white"/>
<path d="M211.578 23.6069C211.493 22.358 210.462 22.1709 209.674 22.1709C208.783 22.1709 207.915 22.5311 207.915 23.4806C207.915 25.6603 212.075 24.3272 212.075 26.9513C212.075 28.0551 211.184 28.8082 209.655 28.8082C208.994 28.8082 207.296 28.6117 207.202 26.8156H207.676C207.727 28.013 208.661 28.3732 209.641 28.3732C210.748 28.3732 211.606 28.013 211.606 26.9466C211.606 24.7482 207.446 26.0906 207.446 23.49C207.446 22.2832 208.604 21.7547 209.669 21.7547C210.434 21.7547 211.944 21.9511 212.019 23.6022H211.573L211.578 23.6069Z" fill="white"/>
<path d="M70.3164 8.22755H65.476L60.509 0.140289H65.3494L70.3164 8.22755Z" fill="#E6E6E6"/>
<path d="M65.5088 8.22755H70.3491L75.3161 0.140289H70.4758L65.5088 8.22755Z" fill="white"/>
<path d="M65.5088 8.69997H70.3491L75.3161 16.7826H70.4758L65.5088 8.69997Z" fill="#E6E6E6"/>
<path d="M70.3164 8.69997H65.476L60.509 16.7826H65.3494L70.3164 8.69997Z" fill="white"/>
<path d="M104.457 9.84594C106.244 9.05078 107.332 7.46046 107.332 5.26675C107.332 1.89433 104.748 0.135624 100.784 0.135624H94.4573V3.17126H100.541C102.328 3.17126 103.392 3.89627 103.392 5.26675C103.392 6.8103 102.281 7.554 100.541 7.554H97.2573V10.613H100.784L103.782 16.4645H107.839L104.457 9.84127V9.84594Z" fill="white"/>
<path d="M-0.126709 0.140289V4.97207L12.8419 14.5327L25.8058 4.97207V0.140289L12.8419 9.70094L-0.126709 0.140289Z" fill="white"/>
<path d="M-0.126709 7.22191V19.2522L12.8419 28.8129L25.8105 19.2522V7.22191L12.8419 16.7826L-0.126709 7.22191ZM21.88 14.949V17.3111L12.8372 23.9764L3.79905 17.3111V14.949L12.8372 21.6143L21.88 14.949Z" fill="white"/>
<path d="M31.4575 16.4739V0.140347H35.3457V13.34H41.8934V16.4739H31.4575Z" fill="white"/>
</g>
<defs>
<clipPath id="clip0_2027_586">
<rect width="212" height="29" fill="white"/>
</clipPath>
</defs>
</svg>
