<svg width="212" height="29" viewBox="0 0 212 29" fill="none" xmlns="http://www.w3.org/2000/svg">
<g clip-path="url(#clip0_2001_20)">
<path d="M54.0413 0.140289H57.8826V10.1125C57.8826 14.5467 55.0075 16.7826 50.8519 16.7826C46.6963 16.7826 43.7977 14.5421 43.7977 10.1125V0.140289H47.686V9.96755C47.686 12.3998 48.9664 13.5551 50.8519 13.5551C52.8312 13.5551 54.0413 12.3998 54.0413 9.96755V0.140289Z" fill="#0F5850"/>
<path d="M87.572 0.140289H91.4134V10.1125C91.4134 14.5467 88.5382 16.7826 84.3827 16.7826C80.2271 16.7826 77.3285 14.5421 77.3285 10.1125V0.140289H81.2167V9.96755C81.2167 12.3998 82.4972 13.5551 84.3827 13.5551C86.3619 13.5551 87.572 12.3998 87.572 9.96755V0.140289Z" fill="#0F5850"/>
<path d="M114.217 16.4738V10.3511L108.397 0.140289H112.477L116.173 7.43707L119.939 0.140289H123.95L118.106 10.3277V16.4738H114.217Z" fill="#0F5850"/>
<path d="M144.507 16.4738L141.754 4.7148L139.071 16.4738H134.099L129.461 0.140289H133.616L136.778 12.353L139.437 0.140289H144.413L147.021 12.3063L150.206 0.140289H154.216L149.582 16.4738H144.507Z" fill="#0F5850"/>
<path d="M160.065 0.140289H156.177V16.4738H160.065V0.140289Z" fill="#0F5850"/>
<path d="M173.859 16.4738L167.288 6.1882V16.4738H163.399V0.140289H167.386L174.074 10.6925V0.140289H177.963V16.4738H173.859Z" fill="#0F5850"/>
<path d="M193.619 16.4738L193.328 13.9434C192.264 15.9406 190.331 16.7872 188.399 16.7872C183.859 16.7872 180.693 13.63 180.693 8.33045C180.693 3.03094 183.835 -0.149708 188.76 -0.149708C192.601 -0.149708 195.256 1.99255 195.959 5.60819H191.973C191.537 3.9711 190.425 3.00755 188.76 3.00755C186.054 3.00755 184.628 5.00481 184.628 8.33045C184.628 11.6561 186.054 13.775 188.685 13.775C190.519 13.775 191.991 12.5729 191.991 10.2809V10.1126H188.877V7.58207H196.124V16.4692H193.61L193.619 16.4738Z" fill="#0F5850"/>
<path d="M208.065 5.29482C207.896 3.19933 206.348 2.71755 205.068 2.71755C203.787 2.71755 202.582 3.15255 202.582 4.30787C202.582 7.63352 212.075 5.53803 212.075 11.628C212.075 14.4953 209.899 16.7826 205.073 16.7826C203.14 16.7826 198.356 16.1792 198.14 11.0013H201.982C202.08 13.195 203.844 13.8451 205.485 13.8451C206.888 13.8451 208.093 13.3166 208.093 12.208C208.093 8.76546 198.6 11.1743 198.6 4.64465C198.6 1.22545 201.907 -0.149708 205.532 -0.149708C207.68 -0.149708 211.737 0.739009 211.958 5.29482H208.07H208.065Z" fill="#0F5850"/>
<path d="M37.0063 28.6866L36.1386 26.5396H32.8367L31.9783 28.6866H31.4624L34.2672 21.8622H34.7409L37.5457 28.6866H37.0063ZM34.4923 22.4329L33.0008 26.128H35.9698L34.4923 22.4329Z" fill="#0F5850"/>
<path d="M45.7912 28.6866L43.0802 21.8622H43.6196L46.0726 28.1487L48.4834 21.8622H48.9899L46.2977 28.6866H45.7912Z" fill="#0F5850"/>
<path d="M56.4474 21.8622H55.983V28.6866H56.4474V21.8622Z" fill="#0F5850"/>
<path d="M69.0032 28.6866L68.1355 26.5396H64.8336L63.9753 28.6866H63.4594L66.2641 21.8622H66.7379L69.5426 28.6866H69.0032ZM66.4893 22.4329L64.9978 26.128H67.9667L66.4893 22.4329Z" fill="#0F5850"/>
<path d="M77.23 28.6866V22.2645H74.8286V21.8622H80.0958V22.2645H77.6944V28.6866H77.23Z" fill="#0F5850"/>
<path d="M87.4126 21.8622H86.9482V28.6866H87.4126V21.8622Z" fill="#0F5850"/>
<path d="M94.7292 25.2814C94.7292 23.1017 95.9206 21.764 97.8154 21.764C99.7103 21.764 100.888 23.0971 100.888 25.2814C100.888 27.4658 99.6962 28.8129 97.8154 28.8129C95.9346 28.8129 94.7292 27.4798 94.7292 25.2814ZM100.4 25.2814C100.4 23.3496 99.4993 22.185 97.8108 22.185C96.1223 22.185 95.2217 23.3496 95.2217 25.2814C95.2217 27.2132 96.1129 28.3779 97.8108 28.3779C99.5086 28.3779 100.4 27.2226 100.4 25.2814Z" fill="#0F5850"/>
<path d="M112.778 28.6866L108.669 22.5264V28.6866H108.205V21.8622H108.796L112.956 28.1393V21.8622H113.42V28.6866H112.778Z" fill="#0F5850"/>
<path d="M133.175 23.6069C133.091 22.358 132.059 22.1709 131.271 22.1709C130.38 22.1709 129.512 22.5311 129.512 23.4806C129.512 25.6603 133.673 24.3272 133.673 26.9513C133.673 28.0551 132.781 28.8082 131.252 28.8082C130.591 28.8082 128.893 28.6117 128.799 26.8156H129.273C129.325 28.013 130.258 28.3732 131.238 28.3732C132.345 28.3732 133.203 28.013 133.203 26.9466C133.203 24.7482 129.043 26.0906 129.043 23.49C129.043 22.2832 130.202 21.7547 131.266 21.7547C132.031 21.7547 133.546 21.9511 133.616 23.6022H133.171L133.175 23.6069Z" fill="#0F5850"/>
<path d="M140.854 28.6866V21.8622H144.765V22.2879H141.318V24.9587H144.578V25.3843H141.318V28.2516H144.765V28.6866H140.854Z" fill="#0F5850"/>
<path d="M155.933 28.6866L154.38 25.665H152.434V28.6866H151.969V21.8622H154.131C155.529 21.8622 156.387 22.4937 156.387 23.7005C156.387 24.6593 155.778 25.375 154.854 25.5901L156.439 28.6866H155.933ZM154.216 25.2487C155.229 25.2487 155.904 24.7108 155.904 23.7005C155.904 22.7697 155.327 22.2972 154.178 22.2972H152.438V25.2487H154.216Z" fill="#0F5850"/>
<path d="M165.67 28.6866L162.959 21.8622H163.498L165.951 28.1487L168.362 21.8622H168.868L166.176 28.6866H165.67Z" fill="#0F5850"/>
<path d="M176.326 21.8622H175.862V28.6866H176.326V21.8622Z" fill="#0F5850"/>
<path d="M189.257 26.8296C188.947 28.0972 188.038 28.8129 186.64 28.8129C184.768 28.8129 183.647 27.4892 183.647 25.2814C183.647 23.0737 184.848 21.764 186.649 21.764C188.038 21.764 188.924 22.4469 189.238 23.6116H188.741C188.492 22.7042 187.77 22.1897 186.649 22.1897C185.012 22.1897 184.145 23.345 184.145 25.2861C184.145 27.2272 185.026 28.3826 186.64 28.3826C187.841 28.3826 188.577 27.8447 188.783 26.8343H189.262L189.257 26.8296Z" fill="#0F5850"/>
<path d="M196.56 28.6866V21.8622H200.471V22.2879H197.024V24.9587H200.289V25.3843H197.024V28.2516H200.471V28.6866H196.56Z" fill="#0F5850"/>
<path d="M211.578 23.6069C211.493 22.358 210.462 22.1709 209.674 22.1709C208.783 22.1709 207.915 22.5311 207.915 23.4806C207.915 25.6603 212.075 24.3272 212.075 26.9513C212.075 28.0551 211.184 28.8082 209.655 28.8082C208.994 28.8082 207.296 28.6117 207.202 26.8156H207.676C207.727 28.013 208.661 28.3732 209.641 28.3732C210.748 28.3732 211.606 28.013 211.606 26.9466C211.606 24.7482 207.446 26.0906 207.446 23.49C207.446 22.2832 208.604 21.7547 209.669 21.7547C210.434 21.7547 211.944 21.9511 212.019 23.6022H211.573L211.578 23.6069Z" fill="#0F5850"/>
<path d="M70.3165 8.22755H65.4761L60.5092 0.140289H65.3495L70.3165 8.22755Z" fill="#043631"/>
<path d="M65.509 8.22755H70.3494L75.3164 0.140289H70.476L65.509 8.22755Z" fill="#0F5850"/>
<path d="M65.509 8.69997H70.3494L75.3164 16.7826H70.476L65.509 8.69997Z" fill="#043631"/>
<path d="M70.3165 8.69997H65.4761L60.5092 16.7826H65.3495L70.3165 8.69997Z" fill="#0F5850"/>
<path d="M104.457 9.84594C106.244 9.05078 107.332 7.46046 107.332 5.26675C107.332 1.89433 104.748 0.135624 100.784 0.135624H94.4573V3.17126H100.541C102.328 3.17126 103.392 3.89627 103.392 5.26675C103.392 6.8103 102.281 7.554 100.541 7.554H97.2573V10.613H100.784L103.782 16.4645H107.839L104.457 9.84127V9.84594Z" fill="#0F5850"/>
<path d="M-0.126587 0.140289V4.97207L12.842 14.5327L25.8059 4.97207V0.140289L12.842 9.70094L-0.126587 0.140289Z" fill="#0F5850"/>
<path d="M-0.126587 7.22191V19.2522L12.842 28.8129L25.8106 19.2522V7.22191L12.842 16.7826L-0.126587 7.22191ZM21.8801 14.949V17.3111L12.8373 23.9764L3.79917 17.3111V14.949L12.8373 21.6143L21.8801 14.949Z" fill="#0F5850"/>
<path d="M31.4575 16.4739V0.140347H35.3457V13.34H41.8934V16.4739H31.4575Z" fill="#0F5850"/>
</g>
<defs>
<clipPath id="clip0_2001_20">
<rect width="212" height="29" fill="white"/>
</clipPath>
</defs>
</svg>
