<svg width="20" height="20" viewBox="0 0 20 20" fill="none" xmlns="http://www.w3.org/2000/svg">
<path fill-rule="evenodd" clip-rule="evenodd" d="M3.73582 3.16108C4.74998 2.15275 6.41998 2.33191 7.26915 3.46691L8.32082 4.87025C9.01248 5.79358 8.95082 7.08358 8.12998 7.89941L7.93165 8.09775C7.90916 8.181 7.90687 8.26843 7.92498 8.35275C7.97748 8.69275 8.26165 9.41275 9.45165 10.5961C10.6416 11.7794 11.3666 12.0627 11.7116 12.1161C11.7986 12.1336 11.8884 12.131 11.9741 12.1086L12.3141 11.7702C13.0441 11.0452 14.1641 10.9094 15.0675 11.4002L16.6591 12.2669C18.0233 13.0069 18.3675 14.8602 17.2508 15.9711L16.0666 17.1477C15.6933 17.5186 15.1916 17.8277 14.58 17.8852C13.0716 18.0261 9.55748 17.8461 5.86332 14.1736C2.41582 10.7452 1.75415 7.75525 1.66998 6.28191C1.62832 5.53691 1.97998 4.90691 2.42832 4.46191L3.73582 3.16108ZM6.26915 4.21608C5.84665 3.65191 5.05998 3.60691 4.61665 4.04775L3.30832 5.34775C3.03332 5.62108 2.90165 5.92275 2.91832 6.21108C2.98498 7.38191 3.51832 10.0794 6.74498 13.2877C10.13 16.6527 13.2558 16.7536 14.4641 16.6402C14.7108 16.6177 14.9558 16.4894 15.185 16.2619L16.3683 15.0844C16.85 14.6061 16.7441 13.7344 16.0625 13.3644L14.4708 12.4986C14.0308 12.2602 13.5158 12.3386 13.1958 12.6569L12.8166 13.0344L12.375 12.5911C12.8166 13.0344 12.8158 13.0352 12.815 13.0352L12.8141 13.0369L12.8116 13.0394L12.8058 13.0444L12.7933 13.0561C12.7582 13.0887 12.7202 13.1183 12.68 13.1444C12.6133 13.1886 12.525 13.2377 12.4141 13.2786C12.1891 13.3627 11.8908 13.4077 11.5225 13.3511C10.8 13.2402 9.84248 12.7477 8.56998 11.4827C7.29832 10.2177 6.80165 9.26608 6.68998 8.54441C6.63248 8.17608 6.67832 7.87775 6.76332 7.65275C6.8101 7.52614 6.87707 7.40794 6.96165 7.30275L6.98832 7.27358L6.99998 7.26108L7.00498 7.25608L7.00748 7.25358L7.00915 7.25191L7.24915 7.01358C7.60582 6.65775 7.65582 6.06858 7.31998 5.61941L6.26915 4.21608Z" fill="#0F5850"/>
</svg>
