<svg width="20" height="20" viewBox="0 0 20 20" fill="none" xmlns="http://www.w3.org/2000/svg">
<path fill-rule="evenodd" clip-rule="evenodd" d="M3.73594 3.16108C4.7501 2.15275 6.4201 2.33191 7.26927 3.46691L8.32094 4.87025C9.0126 5.79358 8.95094 7.08358 8.1301 7.89941L7.93177 8.09775C7.90928 8.181 7.907 8.26843 7.9251 8.35275C7.9776 8.69275 8.26177 9.41275 9.45177 10.5961C10.6418 11.7794 11.3668 12.0627 11.7118 12.1161C11.7987 12.1336 11.8885 12.131 11.9743 12.1086L12.3143 11.7702C13.0443 11.0452 14.1643 10.9094 15.0676 11.4002L16.6593 12.2669C18.0234 13.0069 18.3676 14.8602 17.2509 15.9711L16.0668 17.1477C15.6934 17.5186 15.1918 17.8277 14.5801 17.8852C13.0718 18.0261 9.5576 17.8461 5.86344 14.1736C2.41594 10.7452 1.75427 7.75525 1.6701 6.28191C1.62844 5.53691 1.9801 4.90691 2.42844 4.46191L3.73594 3.16108ZM6.26927 4.21608C5.84677 3.65191 5.0601 3.60691 4.61677 4.04775L3.30844 5.34775C3.03344 5.62108 2.90177 5.92275 2.91844 6.21108C2.9851 7.38191 3.51844 10.0794 6.7451 13.2877C10.1301 16.6527 13.2559 16.7536 14.4643 16.6402C14.7109 16.6177 14.9559 16.4894 15.1851 16.2619L16.3684 15.0844C16.8501 14.6061 16.7443 13.7344 16.0626 13.3644L14.4709 12.4986C14.0309 12.2602 13.5159 12.3386 13.1959 12.6569L12.8168 13.0344L12.3751 12.5911C12.8168 13.0344 12.8159 13.0352 12.8151 13.0352L12.8143 13.0369L12.8118 13.0394L12.8059 13.0444L12.7934 13.0561C12.7583 13.0887 12.7204 13.1183 12.6801 13.1444C12.6134 13.1886 12.5251 13.2377 12.4143 13.2786C12.1893 13.3627 11.8909 13.4077 11.5226 13.3511C10.8001 13.2402 9.8426 12.7477 8.5701 11.4827C7.29844 10.2177 6.80177 9.26608 6.6901 8.54441C6.6326 8.17608 6.67844 7.87775 6.76344 7.65275C6.81022 7.52614 6.8772 7.40794 6.96177 7.30275L6.98844 7.27358L7.0001 7.26108L7.0051 7.25608L7.0076 7.25358L7.00927 7.25191L7.24927 7.01358C7.60594 6.65775 7.65594 6.06858 7.3201 5.61941L6.26927 4.21608Z" fill="#B79946"/>
</svg>
