<svg width="62" height="62" viewBox="0 0 62 62" fill="none" xmlns="http://www.w3.org/2000/svg">
<path d="M18.2353 8.31563L21.5383 10.9704L20.4266 15.0595C20.2823 15.5902 20.4765 16.1422 20.9215 16.4655C21.1531 16.6337 21.4225 16.7182 21.6924 16.7182C21.9414 16.7182 22.191 16.6463 22.4116 16.5017L25.9571 14.1808L29.5026 16.5017C29.9627 16.803 30.5478 16.7887 30.9928 16.4654C31.4378 16.142 31.632 15.5901 31.4878 15.0593L30.376 10.9702L33.679 8.31551C34.1078 7.97088 34.2749 7.41021 34.105 6.88709C33.9351 6.36396 33.4702 6.00855 32.9208 5.98179L28.6882 5.77545L27.184 1.81399C26.9892 1.30055 26.5077 0.968872 25.9573 0.968872C25.407 0.968872 24.9252 1.30067 24.7303 1.81411L23.2262 5.77569L18.9936 5.98203C18.4442 6.00879 17.9794 6.36408 17.8094 6.88733C17.6394 7.41033 17.8065 7.971 18.2353 8.31563ZM23.7287 7.69091C24.2502 7.66572 24.7068 7.33404 24.8922 6.84579L25.9571 4.0409L27.0219 6.84555C27.2071 7.3338 27.6638 7.6656 28.185 7.69079L31.1818 7.83683L28.8435 9.71656C28.4367 10.0434 28.2622 10.58 28.3991 11.084L29.1862 13.9792L26.676 12.3361C26.4576 12.1931 26.2074 12.1216 25.9571 12.1216C25.7069 12.1216 25.4566 12.1931 25.2384 12.3361L22.7281 13.9793L23.5152 11.0842C23.6522 10.5804 23.4778 10.0438 23.0711 9.71693L20.7325 7.83731L23.7287 7.69091ZM9.9692 20.3301L13.5146 22.6509C13.9749 22.9522 14.5597 22.9382 15.0048 22.6147C15.4498 22.2914 15.6441 21.7396 15.4998 21.2087L14.388 17.1195L17.691 14.4648C18.1197 14.1201 18.2868 13.5595 18.1169 13.0363C17.9469 12.5132 17.482 12.1579 16.9327 12.1312L12.7001 11.9248L11.1961 7.96313C11.0013 7.44981 10.5198 7.11801 9.96944 7.11801C9.41907 7.11801 8.93736 7.44981 8.7424 7.96325L7.23817 11.9249L3.00558 12.1313C2.45618 12.1581 1.99142 12.5133 1.82141 13.0366C1.65139 13.5598 1.81862 14.1205 2.24742 14.465L5.55025 17.1198L4.43861 21.2088C4.29426 21.7396 4.4885 22.2914 4.93352 22.6149C5.16505 22.7831 5.43436 22.8676 5.7044 22.8676C5.95337 22.8676 6.20294 22.7957 6.42358 22.6511L9.9692 20.3301ZM4.74449 13.9862L7.74132 13.84C8.26275 13.8147 8.71927 13.4828 8.9043 12.9951L9.9692 10.1902L11.0342 12.9952C11.2195 13.4831 11.676 13.8147 12.1972 13.84L15.194 13.9862L12.8556 15.8657C12.4487 16.1927 12.2743 16.7293 12.4113 17.233L13.1984 20.1281L10.688 18.4847C10.4698 18.3419 10.2196 18.2705 9.96944 18.2705C9.71926 18.2705 9.46896 18.3419 9.25063 18.4848L6.74036 20.1281L7.52747 17.233C7.66442 16.7291 7.48993 16.1923 7.08329 15.8657L4.74449 13.9862ZM33.7973 13.0363C33.6273 13.5595 33.7945 14.1203 34.2232 14.4649L37.5261 17.1196L36.4145 21.2087C36.2702 21.7395 36.4644 22.2913 36.9094 22.6147C37.1409 22.7829 37.4103 22.8675 37.6803 22.8675C37.9293 22.8675 38.1788 22.7955 38.3996 22.6509L41.945 20.3299L45.4904 22.6508C45.9505 22.9521 46.5354 22.9379 46.9804 22.6147C47.4254 22.2915 47.6199 21.7396 47.4757 21.2086L46.3639 17.1195L49.6669 14.4648C50.0957 14.1201 50.2627 13.5595 50.0928 13.0363C49.9228 12.5132 49.458 12.1579 48.9087 12.1312L44.6761 11.9248L43.172 7.96337C42.9772 7.44981 42.4956 7.11801 41.9451 7.11801C41.3946 7.11801 40.913 7.44981 40.7182 7.96313L39.214 11.9248L34.9815 12.1312C34.4322 12.1579 33.9673 12.5132 33.7973 13.0363ZM39.7171 13.8402C40.2385 13.8149 40.695 13.4831 40.8801 12.9952L41.945 10.1902L43.0099 12.9948C43.195 13.4829 43.6516 13.8147 44.173 13.84L47.1697 13.9862L44.8311 15.8658C44.4244 16.1928 44.25 16.7295 44.387 17.233L45.1741 20.1281L42.6637 18.4847C42.4455 18.3419 42.1953 18.2705 41.9451 18.2705C41.6949 18.2705 41.4446 18.3419 41.2262 18.4848L38.716 20.1281L39.5031 17.233C39.6401 16.7292 39.4656 16.1925 39.0589 15.8657L36.7204 13.9861L39.7171 13.8402ZM48.7188 37.9815C45.0928 37.9815 41.8532 39.6653 39.739 42.2915C37.2834 39.8978 34.2533 38.196 30.9746 37.3311C34.2145 35.552 36.4158 32.1074 36.4158 28.1576C36.4158 22.3907 31.7241 17.6991 25.9572 17.6991C20.1904 17.6991 15.4986 22.3907 15.4986 28.1576C15.4986 32.1045 17.6968 35.5468 20.9328 37.327C17.9034 38.1229 15.0872 39.6348 12.7234 41.7726C9.11743 45.0336 6.84789 49.4805 6.33288 54.294C6.30357 54.5674 6.39185 54.8402 6.57555 55.0446C6.75925 55.249 7.02117 55.3658 7.29606 55.3658L38.7984 55.3656C40.8074 58.7542 44.5019 61.0311 48.7187 61.0311C55.0736 61.0311 60.2436 55.8611 60.2436 49.5063C60.2436 43.1514 55.0737 37.9815 48.7188 37.9815ZM17.4362 28.1576C17.4362 23.459 21.2588 19.6366 25.9573 19.6366C30.6559 19.6366 34.4785 23.459 34.4785 28.1576C34.4785 32.8556 30.6567 36.6778 25.9589 36.6786H25.9573H25.9558C21.2579 36.6777 17.4362 32.8555 17.4362 28.1576ZM8.40661 53.4284C9.83721 44.9119 17.1995 38.6169 25.9558 38.6162H25.9573H25.9588C30.722 38.6166 35.3019 40.5449 38.6371 43.9282C37.7183 45.5821 37.194 47.4841 37.194 49.5065C37.194 50.8829 37.4369 52.2036 37.8814 53.4284H8.40661ZM48.7188 59.0938C43.4324 59.0938 39.1315 54.7929 39.1315 49.5064C39.1315 44.2199 43.4324 39.919 48.7188 39.919C54.0053 39.919 58.3062 44.2199 58.3062 49.5064C58.3062 54.7929 54.0053 59.0938 48.7188 59.0938Z" fill="white"/>
<path d="M48.7191 37.9814C45.0931 37.9814 41.8535 39.6653 39.7393 42.2914C37.2836 39.8978 34.2536 38.1959 30.9749 37.3311C34.2148 35.5519 36.4161 32.1073 36.4161 28.1575C36.4161 22.3906 31.7243 17.699 25.9575 17.699C20.1906 17.699 15.4989 22.3906 15.4989 28.1575C15.4989 32.1044 17.6971 35.5467 20.9331 37.3269C17.9037 38.1228 15.0875 39.6347 12.7236 41.7725C9.11771 45.0335 6.84817 49.4804 6.33316 54.2939C6.30385 54.5673 6.39213 54.8401 6.57583 55.0445C6.75953 55.2489 7.02145 55.3657 7.29634 55.3657L38.7986 55.3656C40.8077 58.7541 44.5022 61.031 48.719 61.031C55.0739 61.031 60.2439 55.8611 60.2439 49.5062C60.2439 43.1513 55.074 37.9814 48.7191 37.9814ZM17.4365 28.1575C17.4365 23.4589 21.2591 19.6365 25.9576 19.6365C30.6562 19.6365 34.4787 23.4589 34.4787 28.1575C34.4787 32.8556 30.657 36.6778 25.9592 36.6785H25.9576H25.956C21.2582 36.6776 17.4365 32.8554 17.4365 28.1575ZM8.40689 53.4283C9.83749 44.9118 17.1997 38.6168 25.956 38.6161H25.9576H25.9591C30.7223 38.6165 35.3022 40.5448 38.6373 43.9281C37.7186 45.582 37.1943 47.484 37.1943 49.5064C37.1943 50.8828 37.4372 52.2035 37.8817 53.4283H8.40689ZM48.7191 59.0937C43.4327 59.0937 39.1318 54.7928 39.1318 49.5063C39.1318 44.2198 43.4327 39.9189 48.7191 39.9189C54.0056 39.9189 58.3065 44.2198 58.3065 49.5063C58.3065 54.7928 54.0056 59.0937 48.7191 59.0937Z" fill="#0F5850"/>
<path d="M55.5257 44.7367C55.0453 44.2591 54.4051 43.9986 53.7301 44C53.0536 44.0025 52.4191 44.2686 51.9435 44.7488L47.4957 49.2412L45.8254 47.5708C44.8371 46.5828 43.2294 46.5827 42.241 47.5709C41.253 48.5591 41.253 50.1669 42.241 51.1553L45.7102 54.6244C46.2043 55.1185 46.8532 55.3654 47.5023 55.3654C48.1512 55.3654 48.8003 55.1183 49.2944 54.6243C50.6111 53.3076 51.9392 51.9606 53.2234 50.6579C53.994 49.8762 54.7648 49.0945 55.5373 48.3147C56.519 47.3241 56.5137 45.7191 55.5257 44.7367ZM54.1611 46.9509C53.3873 47.7319 52.6156 48.5147 51.8437 49.2976C50.5618 50.5978 49.2362 51.9424 47.9244 53.2542C47.6918 53.487 47.3129 53.487 47.0802 53.2542L43.6111 49.7853C43.3783 49.5524 43.3783 49.1736 43.6111 48.9409C43.7274 48.8245 43.8804 48.7664 44.0332 48.7664C44.186 48.7664 44.339 48.8245 44.4553 48.9409L46.814 51.2997C46.9956 51.4813 47.2421 51.5834 47.499 51.5834H47.5014C47.7591 51.5828 48.006 51.4795 48.1874 51.2963L53.3202 46.1121C53.4312 46.0001 53.5794 45.9381 53.7375 45.9375C53.8979 45.9316 54.0466 45.9982 54.1594 46.1105C54.3913 46.341 54.392 46.7181 54.1611 46.9509Z" fill="#0F5850"/>
</svg>
